<?xml version="1.0" encoding="UTF-8" standalone="no"?>
<!DOCTYPE svg PUBLIC "-//W3C//DTD SVG 1.1//EN"
 "http://www.w3.org/Graphics/SVG/1.1/DTD/svg11.dtd">
<!-- Generated by graphviz version 2.26.3 (20100126.1600)
 -->
<!-- Title: _anonymous_0 Pages: 1 -->
<svg width="2867pt" height="638pt"
 viewBox="0.00 0.00 2867.00 638.00" xmlns="http://www.w3.org/2000/svg" xmlns:xlink="http://www.w3.org/1999/xlink">
<g id="graph1" class="graph" transform="scale(1 1) rotate(0) translate(4 634)">
<title>_anonymous_0</title>
<polygon fill="white" stroke="white" points="-4,5 -4,-634 2864,-634 2864,5 -4,5"/>
<!-- CD40L_CD40_TRAF6_TRAF1,2,3,5 -->
<g id="node1" class="node"><title>CD40L_CD40_TRAF6_TRAF1,2,3,5</title>
<ellipse fill="#ffffff" stroke="black" cx="1922" cy="-389" rx="181" ry="18.5"/>
<text text-anchor="middle" x="1922" y="-385.4" font-family="Times Roman,serif" font-size="14.00">CD40L_CD40_TRAF6_TRAF1,2,3,5</text>
</g>
<!-- NIK_MEKK1 -->
<g id="node2" class="node"><title>NIK_MEKK1</title>
<ellipse fill="#ffffff" stroke="black" cx="1059" cy="-315" rx="68" ry="18.5"/>
<text text-anchor="middle" x="1059" y="-311.4" font-family="Times Roman,serif" font-size="14.00">NIK_MEKK1</text>
</g>
<!-- CD40L_CD40_TRAF6_TRAF1,2,3,5&#45;&gt;NIK_MEKK1 -->
<g id="edge2" class="edge"><title>CD40L_CD40_TRAF6_TRAF1,2,3,5&#45;&gt;NIK_MEKK1</title>
<path fill="none" stroke="green" d="M1794,-375.88C1773.3,-373.85 1752.1,-371.82 1732,-370 1515.7,-350.35 1259.9,-330.33 1135.2,-320.77"/>
<polygon fill="green" stroke="green" points="1135.14,-317.255 1124.9,-319.99 1134.61,-324.235 1135.14,-317.255"/>
</g>
<!-- MKK7_SEK1 -->
<g id="node4" class="node"><title>MKK7_SEK1</title>
<ellipse fill="#ffffff" stroke="black" cx="1059" cy="-241" rx="70" ry="18.5"/>
<text text-anchor="middle" x="1059" y="-237.4" font-family="Times Roman,serif" font-size="14.00">MKK7_SEK1</text>
</g>
<!-- NIK_MEKK1&#45;&gt;MKK7_SEK1 -->
<g id="edge4" class="edge"><title>NIK_MEKK1&#45;&gt;MKK7_SEK1</title>
<path fill="none" stroke="green" d="M1059,-296.33C1059,-288.26 1059,-278.65 1059,-269.71"/>
<polygon fill="green" stroke="green" points="1062.5,-269.67 1059,-259.67 1055.5,-269.67 1062.5,-269.67"/>
</g>
<!-- JNK -->
<g id="node24" class="node"><title>JNK</title>
<ellipse fill="#ffffff" stroke="black" cx="875" cy="-167" rx="29" ry="18.5"/>
<text text-anchor="middle" x="875" y="-163.4" font-family="Times Roman,serif" font-size="14.00">JNK</text>
</g>
<!-- MKK7_SEK1&#45;&gt;JNK -->
<g id="edge36" class="edge"><title>MKK7_SEK1&#45;&gt;JNK</title>
<path fill="none" stroke="green" d="M1020.4,-225.49C987.62,-212.29 940.95,-193.52 909.39,-180.83"/>
<polygon fill="green" stroke="green" points="910.304,-177.425 899.72,-176.94 907.691,-183.919 910.304,-177.425"/>
</g>
<!-- IKKs -->
<g id="node6" class="node"><title>IKKs</title>
<ellipse fill="#ec8165" stroke="black" cx="2680" cy="-537" rx="31.8295" ry="18.5"/>
<text text-anchor="middle" x="2680" y="-533.4" font-family="Times Roman,serif" font-size="14.00">IKKs</text>
</g>
<!-- P_IKBs_NF&#45;KB -->
<g id="node7" class="node"><title>P_IKBs_NF&#45;KB</title>
<ellipse fill="#ffffff" stroke="black" cx="2680" cy="-463" rx="80" ry="18.5"/>
<text text-anchor="middle" x="2680" y="-459.4" font-family="Times Roman,serif" font-size="14.00">P_IKBs_NF&#45;KB</text>
</g>
<!-- IKKs&#45;&gt;P_IKBs_NF&#45;KB -->
<g id="edge6" class="edge"><title>IKKs&#45;&gt;P_IKBs_NF&#45;KB</title>
<path fill="none" stroke="green" d="M2680,-518.33C2680,-510.26 2680,-500.65 2680,-491.71"/>
<polygon fill="green" stroke="green" points="2683.5,-491.67 2680,-481.67 2676.5,-491.67 2683.5,-491.67"/>
</g>
<!-- NF&#45;KB -->
<g id="node9" class="node"><title>NF&#45;KB</title>
<ellipse fill="#ffffff" stroke="black" cx="2604" cy="-389" rx="40.9631" ry="18.5"/>
<text text-anchor="middle" x="2604" y="-385.4" font-family="Times Roman,serif" font-size="14.00">NF&#45;KB</text>
</g>
<!-- P_IKBs_NF&#45;KB&#45;&gt;NF&#45;KB -->
<g id="edge8" class="edge"><title>P_IKBs_NF&#45;KB&#45;&gt;NF&#45;KB</title>
<path fill="none" stroke="green" d="M2661.2,-444.71C2651.4,-435.13 2639.2,-423.29 2628.6,-412.99"/>
<polygon fill="green" stroke="green" points="2630.89,-410.33 2621.3,-405.82 2625.98,-415.324 2630.89,-410.33"/>
</g>
<!-- IKBsDegradation -->
<g id="node11" class="node"><title>IKBsDegradation</title>
<ellipse fill="#ffffff" stroke="black" cx="2756" cy="-389" rx="93" ry="18.5"/>
<text text-anchor="middle" x="2756" y="-385.4" font-family="Times Roman,serif" font-size="14.00">IKBsDegradation</text>
</g>
<!-- P_IKBs_NF&#45;KB&#45;&gt;IKBsDegradation -->
<g id="edge10" class="edge"><title>P_IKBs_NF&#45;KB&#45;&gt;IKBsDegradation</title>
<path fill="none" stroke="green" d="M2698.8,-444.71C2708.2,-435.55 2719.7,-424.31 2730,-414.33"/>
<polygon fill="green" stroke="green" points="2732.46,-416.817 2737.2,-407.34 2727.59,-411.794 2732.46,-416.817"/>
</g>
<!--  RANKL_RANK_Ub_TRAF6_TRAF6 -->
<g id="node13" class="node"><title> RANKL_RANK_Ub_TRAF6_TRAF6</title>
<ellipse fill="#ffffff" stroke="black" cx="173" cy="-537" rx="173" ry="18.5"/>
<text text-anchor="middle" x="173" y="-533.4" font-family="Times Roman,serif" font-size="14.00"> RANKL_RANK_Ub_TRAF6_TRAF6</text>
</g>
<!-- TRAF61 -->
<g id="node14" class="node"><title>TRAF61</title>
<ellipse fill="none" stroke="black" cx="498" cy="-463" rx="50" ry="18.5"/>
<text text-anchor="middle" x="498" y="-459.4" font-family="Times Roman,serif" font-size="14.00">TRAF61</text>
</g>
<!--  RANKL_RANK_Ub_TRAF6_TRAF6&#45;&gt;TRAF61 -->
<g id="edge12" class="edge"><title> RANKL_RANK_Ub_TRAF6_TRAF6&#45;&gt;TRAF61</title>
<path fill="none" stroke="green" d="M246.75,-520.21C307.27,-506.43 391.49,-487.25 445.38,-474.98"/>
<polygon fill="green" stroke="green" points="446.435,-478.33 455.41,-472.7 444.883,-471.504 446.435,-478.33"/>
</g>
<!-- TRAF61&#45;&gt;NIK_MEKK1 -->
<g id="edge18" class="edge"><title>TRAF61&#45;&gt;NIK_MEKK1</title>
<path fill="none" stroke="green" d="M531.68,-449.16C553.81,-439.29 582.85,-424.82 606,-408 625.32,-393.96 622.58,-380.57 644,-370 701.79,-341.47 878.67,-326.07 981.91,-319.31"/>
<polygon fill="green" stroke="green" points="982.217,-322.798 991.97,-318.66 981.765,-315.812 982.217,-322.798"/>
</g>
<!-- Src -->
<g id="node16" class="node"><title>Src</title>
<ellipse fill="#779af6" stroke="black" cx="354" cy="-389" rx="27" ry="18.5"/>
<text text-anchor="middle" x="354" y="-385.4" font-family="Times Roman,serif" font-size="14.00">Src</text>
</g>
<!-- TRAF61&#45;&gt;Src -->
<g id="edge14" class="edge"><title>TRAF61&#45;&gt;Src</title>
<path fill="none" stroke="green" d="M468.14,-447.94C446.43,-436.95 416.34,-421.66 390,-408 388.26,-407.1 386.47,-406.17 384.67,-405.23"/>
<polygon fill="green" stroke="green" points="386.161,-402.06 375.68,-400.51 382.907,-408.257 386.161,-402.06"/>
</g>
<!-- TAB1_TAB2_TAK1 -->
<g id="node18" class="node"><title>TAB1_TAB2_TAK1</title>
<ellipse fill="#ffffff" stroke="black" cx="498" cy="-389" rx="99.0887" ry="18.5"/>
<text text-anchor="middle" x="498" y="-385.4" font-family="Times Roman,serif" font-size="14.00">TAB1_TAB2_TAK1</text>
</g>
<!-- TRAF61&#45;&gt;TAB1_TAB2_TAK1 -->
<g id="edge16" class="edge"><title>TRAF61&#45;&gt;TAB1_TAB2_TAK1</title>
<path fill="none" stroke="green" d="M498,-444.33C498,-436.26 498,-426.65 498,-417.71"/>
<polygon fill="green" stroke="green" points="501.5,-417.67 498,-407.67 494.5,-417.67 501.5,-417.67"/>
</g>
<!-- PI3K -->
<g id="node46" class="node"><title>PI3K</title>
<ellipse fill="#698bef" stroke="black" cx="354" cy="-315" rx="34" ry="18.5"/>
<text text-anchor="middle" x="354" y="-311.4" font-family="Times Roman,serif" font-size="14.00">PI3K</text>
</g>
<!-- Src&#45;&gt;PI3K -->
<g id="edge48" class="edge"><title>Src&#45;&gt;PI3K</title>
<path fill="none" stroke="green" d="M354,-370.33C354,-362.26 354,-352.65 354,-343.71"/>
<polygon fill="green" stroke="green" points="357.5,-343.67 354,-333.67 350.5,-343.67 357.5,-343.67"/>
</g>
<!-- TAB1_TAB2_TAK1&#45;&gt;NIK_MEKK1 -->
<g id="edge42" class="edge"><title>TAB1_TAB2_TAK1&#45;&gt;NIK_MEKK1</title>
<path fill="none" stroke="green" d="M570.57,-376.31C583.99,-374.1 597.91,-371.9 611,-370 742.79,-350.84 897.04,-332.88 985.85,-322.97"/>
<polygon fill="green" stroke="green" points="986.269,-326.445 995.82,-321.86 985.494,-319.488 986.269,-326.445"/>
</g>
<!-- MEK3_MEK6 -->
<g id="node21" class="node"><title>MEK3_MEK6</title>
<ellipse fill="#ffffff" stroke="black" cx="798" cy="-241" rx="72" ry="18.5"/>
<text text-anchor="middle" x="798" y="-237.4" font-family="Times Roman,serif" font-size="14.00">MEK3_MEK6</text>
</g>
<!-- TAB1_TAB2_TAK1&#45;&gt;MEK3_MEK6 -->
<g id="edge40" class="edge"><title>TAB1_TAB2_TAK1&#45;&gt;MEK3_MEK6</title>
<path fill="none" stroke="green" d="M533.3,-371.59C588.72,-344.24 695.98,-291.33 755.54,-261.95"/>
<polygon fill="green" stroke="green" points="757.254,-265.007 764.67,-257.44 754.154,-258.731 757.254,-265.007"/>
</g>
<!-- p38 -->
<g id="node22" class="node"><title>p38</title>
<ellipse fill="#ffffff" stroke="black" cx="798" cy="-167" rx="30.2185" ry="18.5"/>
<text text-anchor="middle" x="798" y="-163.4" font-family="Times Roman,serif" font-size="14.00">p38</text>
</g>
<!-- MEK3_MEK6&#45;&gt;p38 -->
<g id="edge20" class="edge"><title>MEK3_MEK6&#45;&gt;p38</title>
<path fill="none" stroke="green" d="M798,-222.33C798,-214.26 798,-204.65 798,-195.71"/>
<polygon fill="green" stroke="green" points="801.5,-195.67 798,-185.67 794.5,-195.67 801.5,-195.67"/>
</g>
<!-- MEK3_MEK6&#45;&gt;JNK -->
<g id="edge22" class="edge"><title>MEK3_MEK6&#45;&gt;JNK</title>
<path fill="none" stroke="green" d="M816.64,-223.09C827.13,-213.01 840.32,-200.33 851.51,-189.57"/>
<polygon fill="green" stroke="green" points="854.093,-191.942 858.88,-182.49 849.244,-186.894 854.093,-191.942"/>
</g>
<!-- c&#45;Jun -->
<g id="node26" class="node"><title>c&#45;Jun</title>
<ellipse fill="#ffffff" stroke="black" cx="836" cy="-93" rx="37" ry="18.5"/>
<text text-anchor="middle" x="836" y="-89.4" font-family="Times Roman,serif" font-size="14.00">c&#45;Jun</text>
</g>
<!-- p38&#45;&gt;c&#45;Jun -->
<g id="edge24" class="edge"><title>p38&#45;&gt;c&#45;Jun</title>
<path fill="none" stroke="green" d="M807.2,-149.09C811.69,-140.33 817.19,-129.62 822.18,-119.91"/>
<polygon fill="green" stroke="green" points="825.3,-121.495 826.75,-111 819.072,-118.301 825.3,-121.495"/>
</g>
<!-- JNK&#45;&gt;c&#45;Jun -->
<g id="edge26" class="edge"><title>JNK&#45;&gt;c&#45;Jun</title>
<path fill="none" stroke="green" d="M865.76,-149.46C861.11,-140.65 855.39,-129.79 850.2,-119.94"/>
<polygon fill="green" stroke="green" points="853.21,-118.144 845.45,-110.93 847.017,-121.408 853.21,-118.144"/>
</g>
<!-- c&#45;Jun_c&#45;Fos -->
<g id="node38" class="node"><title>c&#45;Jun_c&#45;Fos</title>
<ellipse fill="#ffffff" stroke="black" cx="836" cy="-19" rx="66.0591" ry="18.5"/>
<text text-anchor="middle" x="836" y="-15.4" font-family="Times Roman,serif" font-size="14.00">c&#45;Jun_c&#45;Fos</text>
</g>
<!-- c&#45;Jun&#45;&gt;c&#45;Jun_c&#45;Fos -->
<g id="edge38" class="edge"><title>c&#45;Jun&#45;&gt;c&#45;Jun_c&#45;Fos</title>
<path fill="none" stroke="green" d="M836,-74.327C836,-66.264 836,-56.648 836,-47.711"/>
<polygon fill="green" stroke="green" points="839.5,-47.667 836,-37.667 832.5,-47.667 839.5,-47.667"/>
</g>
<!-- TLRs_TOLLIP_TIRAP_MyD88_IRAK -->
<g id="node29" class="node"><title>TLRs_TOLLIP_TIRAP_MyD88_IRAK</title>
<ellipse fill="#ffffff" stroke="black" cx="202" cy="-611" rx="179" ry="18.5"/>
<text text-anchor="middle" x="202" y="-607.4" font-family="Times Roman,serif" font-size="14.00">TLRs_TOLLIP_TIRAP_MyD88_IRAK</text>
</g>
<!-- ASK1 -->
<g id="node30" class="node"><title>ASK1</title>
<ellipse fill="#ffffff" stroke="black" cx="401" cy="-537" rx="37.2461" ry="18.5"/>
<text text-anchor="middle" x="401" y="-533.4" font-family="Times Roman,serif" font-size="14.00">ASK1</text>
</g>
<!-- TLRs_TOLLIP_TIRAP_MyD88_IRAK&#45;&gt;ASK1 -->
<g id="edge28" class="edge"><title>TLRs_TOLLIP_TIRAP_MyD88_IRAK&#45;&gt;ASK1</title>
<path fill="none" stroke="green" d="M253.22,-593.26C283.04,-582.76 321.29,-569.01 355,-556 357.56,-555.01 360.19,-553.98 362.83,-552.92"/>
<polygon fill="green" stroke="green" points="364.407,-556.058 372.37,-549.07 361.787,-549.567 364.407,-556.058"/>
</g>
<!-- ASK1&#45;&gt;TRAF61 -->
<g id="edge30" class="edge"><title>ASK1&#45;&gt;TRAF61</title>
<path fill="none" stroke="green" d="M421.57,-521.31C435.08,-511 452.99,-497.34 468.07,-485.83"/>
<polygon fill="green" stroke="green" points="470.28,-488.546 476.11,-479.7 466.036,-482.98 470.28,-488.546"/>
</g>
<!-- TRAF2_ASK1 -->
<g id="node33" class="node"><title>TRAF2_ASK1</title>
<ellipse fill="#ffffff" stroke="black" cx="2298" cy="-389" rx="75" ry="18.5"/>
<text text-anchor="middle" x="2298" y="-385.4" font-family="Times Roman,serif" font-size="14.00">TRAF2_ASK1</text>
</g>
<!-- TRAF2_ASK1&#45;&gt;MKK7_SEK1 -->
<g id="edge34" class="edge"><title>TRAF2_ASK1&#45;&gt;MKK7_SEK1</title>
<path fill="none" stroke="green" d="M2244.4,-375.94C2234.3,-373.76 2223.9,-371.66 2214,-370 1811.3,-302.18 1323.4,-260.96 1136.7,-246.68"/>
<polygon fill="green" stroke="green" points="1136.94,-243.188 1126.7,-245.92 1136.41,-250.168 1136.94,-243.188"/>
</g>
<!-- ROS -->
<g id="node34" class="node"><title>ROS</title>
<ellipse fill="#ffffff" stroke="black" cx="2328" cy="-315" rx="33.0296" ry="18.5"/>
<text text-anchor="middle" x="2328" y="-311.4" font-family="Times Roman,serif" font-size="14.00">ROS</text>
</g>
<!-- TRAF2_ASK1&#45;&gt;ROS -->
<g id="edge32" class="edge"><title>TRAF2_ASK1&#45;&gt;ROS</title>
<path fill="none" stroke="green" d="M2305.6,-370.33C2309,-361.96 2313,-351.93 2316.8,-342.71"/>
<polygon fill="green" stroke="green" points="2320.15,-343.745 2320.6,-333.16 2313.65,-341.157 2320.15,-343.745"/>
</g>
<!-- IL&#45;1a,b_IL&#45;1R_TOLLIP_MyD88_IRAK1,2 -->
<g id="node42" class="node"><title>IL&#45;1a,b_IL&#45;1R_TOLLIP_MyD88_IRAK1,2</title>
<ellipse fill="#ffffff" stroke="black" cx="601" cy="-611" rx="202" ry="18.5"/>
<text text-anchor="middle" x="601" y="-607.4" font-family="Times Roman,serif" font-size="14.00">IL&#45;1a,b_IL&#45;1R_TOLLIP_MyD88_IRAK1,2</text>
</g>
<!-- IL&#45;1a,b_IL&#45;1R_TOLLIP_MyD88_IRAK1,2&#45;&gt;ASK1 -->
<g id="edge44" class="edge"><title>IL&#45;1a,b_IL&#45;1R_TOLLIP_MyD88_IRAK1,2&#45;&gt;ASK1</title>
<path fill="none" stroke="green" d="M548.73,-593.04C518.81,-582.59 480.65,-568.95 447,-556 444.44,-555.02 441.81,-553.98 439.17,-552.93"/>
<polygon fill="green" stroke="green" points="440.203,-549.572 429.62,-549.07 437.58,-556.062 440.203,-549.572"/>
</g>
<!-- APRIL_BCMA_TRAF6_TRAF5_TRAF3 -->
<g id="node44" class="node"><title>APRIL_BCMA_TRAF6_TRAF5_TRAF3</title>
<ellipse fill="#ffffff" stroke="black" cx="1059" cy="-389" rx="186" ry="18.5"/>
<text text-anchor="middle" x="1059" y="-385.4" font-family="Times Roman,serif" font-size="14.00">APRIL_BCMA_TRAF6_TRAF5_TRAF3</text>
</g>
<!-- APRIL_BCMA_TRAF6_TRAF5_TRAF3&#45;&gt;NIK_MEKK1 -->
<g id="edge46" class="edge"><title>APRIL_BCMA_TRAF6_TRAF5_TRAF3&#45;&gt;NIK_MEKK1</title>
<path fill="none" stroke="green" d="M1059,-370.33C1059,-362.26 1059,-352.65 1059,-343.71"/>
<polygon fill="green" stroke="green" points="1062.5,-343.67 1059,-333.67 1055.5,-343.67 1062.5,-343.67"/>
</g>
<!-- NGF_NGFR_TRAF4_TRAF2 -->
<g id="node48" class="node"><title>NGF_NGFR_TRAF4_TRAF2</title>
<ellipse fill="#ffffff" stroke="black" cx="596" cy="-537" rx="140" ry="18.5"/>
<text text-anchor="middle" x="596" y="-533.4" font-family="Times Roman,serif" font-size="14.00">NGF_NGFR_TRAF4_TRAF2</text>
</g>
<!-- NGF_NGFR_TRAF4_TRAF2&#45;&gt;TRAF61 -->
<g id="edge50" class="edge"><title>NGF_NGFR_TRAF4_TRAF2&#45;&gt;TRAF61</title>
<path fill="none" stroke="green" d="M571.78,-518.71C558.73,-508.85 542.5,-496.6 528.58,-486.09"/>
<polygon fill="green" stroke="green" points="530.361,-483.049 520.27,-479.82 526.145,-488.637 530.361,-483.049"/>
</g>
<!-- Caspase3,6,7 -->
<g id="node50" class="node"><title>Caspase3,6,7</title>
<ellipse fill="#ffffff" stroke="black" cx="2487" cy="-315" rx="77" ry="18.5"/>
<text text-anchor="middle" x="2487" y="-311.4" font-family="Times Roman,serif" font-size="14.00">Caspase3,6,7</text>
</g>
<!-- BAFF_TACI_TRAF6_TRAF5_TRAF2 -->
<g id="node51" class="node"><title>BAFF_TACI_TRAF6_TRAF5_TRAF2</title>
<ellipse fill="#ffffff" stroke="black" cx="1440" cy="-389" rx="177" ry="18.5"/>
<text text-anchor="middle" x="1440" y="-385.4" font-family="Times Roman,serif" font-size="14.00">BAFF_TACI_TRAF6_TRAF5_TRAF2</text>
</g>
<!-- BAFF_TACI_TRAF6_TRAF5_TRAF2&#45;&gt;NIK_MEKK1 -->
<g id="edge52" class="edge"><title>BAFF_TACI_TRAF6_TRAF5_TRAF2&#45;&gt;NIK_MEKK1</title>
<path fill="none" stroke="green" d="M1355.9,-372.67C1286.2,-359.13 1188.6,-340.17 1124.6,-327.74"/>
<polygon fill="green" stroke="green" points="1125.08,-324.269 1114.6,-325.8 1123.75,-331.141 1125.08,-324.269"/>
</g>
<!-- TRAF6 -->
<g id="node53" class="node"><title>TRAF6</title>
<ellipse fill="#ffffff" stroke="black" cx="1679" cy="-389" rx="44" ry="18.5"/>
<text text-anchor="middle" x="1679" y="-385.4" font-family="Times Roman,serif" font-size="14.00">TRAF6</text>
</g>
<!-- TRAF6&#45;&gt;NIK_MEKK1 -->
<g id="edge54" class="edge"><title>TRAF6&#45;&gt;NIK_MEKK1</title>
<path fill="none" stroke="green" d="M1647.1,-376.15C1640.3,-373.78 1633,-371.56 1626,-370 1534.5,-349.5 1267.6,-329.2 1135.3,-320.05"/>
<polygon fill="green" stroke="green" points="1135.42,-316.55 1125.2,-319.36 1134.94,-323.534 1135.42,-316.55"/>
</g>
<!-- Caspase8 -->
<g id="node55" class="node"><title>Caspase8</title>
<ellipse fill="#e36c54" stroke="black" cx="2487" cy="-389" rx="58" ry="18.5"/>
<text text-anchor="middle" x="2487" y="-385.4" font-family="Times Roman,serif" font-size="14.00">Caspase8</text>
</g>
<!-- Caspase8&#45;&gt;Caspase3,6,7 -->
<g id="edge56" class="edge"><title>Caspase8&#45;&gt;Caspase3,6,7</title>
<path fill="none" stroke="green" d="M2487,-370.33C2487,-362.26 2487,-352.65 2487,-343.71"/>
<polygon fill="green" stroke="green" points="2490.5,-343.67 2487,-333.67 2483.5,-343.67 2490.5,-343.67"/>
</g>
<!-- TNFa/b_TNFR2_RIP_TRAF2_TRAF6 -->
<g id="node57" class="node"><title>TNFa/b_TNFR2_RIP_TRAF2_TRAF6</title>
<ellipse fill="#ffffff" stroke="black" cx="2680" cy="-611" rx="179" ry="18.5"/>
<text text-anchor="middle" x="2680" y="-607.4" font-family="Times Roman,serif" font-size="14.00">TNFa/b_TNFR2_RIP_TRAF2_TRAF6</text>
</g>
<!-- TNFa/b_TNFR2_RIP_TRAF2_TRAF6&#45;&gt;IKKs -->
<g id="edge58" class="edge"><title>TNFa/b_TNFR2_RIP_TRAF2_TRAF6&#45;&gt;IKKs</title>
<path fill="none" stroke="green" d="M2680,-592.33C2680,-584.26 2680,-574.65 2680,-565.71"/>
<polygon fill="green" stroke="green" points="2683.5,-565.67 2680,-555.67 2676.5,-565.67 2683.5,-565.67"/>
</g>
<!--  TNFa_TNFR1_FADD_TRADD_MADD_TRAF2_I&#45;TRAF_RIP -->
<g id="node59" class="node"><title> TNFa_TNFR1_FADD_TRADD_MADD_TRAF2_I&#45;TRAF_RIP</title>
<ellipse fill="#ffffff" stroke="black" cx="2230" cy="-463" rx="283" ry="18.5"/>
<text text-anchor="middle" x="2230" y="-459.4" font-family="Times Roman,serif" font-size="14.00"> TNFa_TNFR1_FADD_TRADD_MADD_TRAF2_I&#45;TRAF_RIP</text>
</g>
<!--  TNFa_TNFR1_FADD_TRADD_MADD_TRAF2_I&#45;TRAF_RIP&#45;&gt;TRAF2_ASK1 -->
<g id="edge66" class="edge"><title> TNFa_TNFR1_FADD_TRADD_MADD_TRAF2_I&#45;TRAF_RIP&#45;&gt;TRAF2_ASK1</title>
<path fill="none" stroke="green" d="M2247.2,-444.33C2255.4,-435.34 2265.4,-424.42 2274.4,-414.67"/>
<polygon fill="green" stroke="green" points="2277.11,-416.892 2281.3,-407.16 2271.96,-412.156 2277.11,-416.892"/>
</g>
<!--  TNFa_TNFR1_FADD_TRADD_MADD_TRAF2_I&#45;TRAF_RIP&#45;&gt;ROS -->
<g id="edge60" class="edge"><title> TNFa_TNFR1_FADD_TRADD_MADD_TRAF2_I&#45;TRAF_RIP&#45;&gt;ROS</title>
<path fill="none" stroke="green" d="M2303.3,-445.09C2337.2,-435.16 2372.2,-422.01 2382,-408 2398.4,-384.59 2375.9,-355.89 2355.1,-336.62"/>
<polygon fill="green" stroke="green" points="2357.41,-333.988 2347.6,-329.98 2352.77,-339.229 2357.41,-333.988"/>
</g>
<!--  TNFa_TNFR1_FADD_TRADD_MADD_TRAF2_I&#45;TRAF_RIP&#45;&gt;TRAF6 -->
<g id="edge62" class="edge"><title> TNFa_TNFR1_FADD_TRADD_MADD_TRAF2_I&#45;TRAF_RIP&#45;&gt;TRAF6</title>
<path fill="none" stroke="green" d="M2018.9,-450.68C1929.6,-442.64 1824.9,-429.47 1732,-408 1728.2,-407.12 1724.3,-406.05 1720.4,-404.88"/>
<polygon fill="green" stroke="green" points="1721.49,-401.555 1710.9,-401.78 1719.32,-408.21 1721.49,-401.555"/>
</g>
<!--  TNFa_TNFR1_FADD_TRADD_MADD_TRAF2_I&#45;TRAF_RIP&#45;&gt;Caspase8 -->
<g id="edge68" class="edge"><title> TNFa_TNFR1_FADD_TRADD_MADD_TRAF2_I&#45;TRAF_RIP&#45;&gt;Caspase8</title>
<path fill="none" stroke="green" d="M2292.9,-444.9C2336.1,-432.45 2392.9,-416.09 2433.9,-404.29"/>
<polygon fill="green" stroke="green" points="2435.06,-407.599 2443.7,-401.47 2433.12,-400.872 2435.06,-407.599"/>
</g>
<!-- GCK/GCKR_TRAF2 -->
<g id="node62" class="node"><title>GCK/GCKR_TRAF2</title>
<ellipse fill="#ffffff" stroke="black" cx="754" cy="-389" rx="101" ry="18.5"/>
<text text-anchor="middle" x="754" y="-385.4" font-family="Times Roman,serif" font-size="14.00">GCK/GCKR_TRAF2</text>
</g>
<!--  TNFa_TNFR1_FADD_TRADD_MADD_TRAF2_I&#45;TRAF_RIP&#45;&gt;GCK/GCKR_TRAF2 -->
<g id="edge64" class="edge"><title> TNFa_TNFR1_FADD_TRADD_MADD_TRAF2_I&#45;TRAF_RIP&#45;&gt;GCK/GCKR_TRAF2</title>
<path fill="none" stroke="green" d="M1965.1,-456.46C1629.4,-447.45 1069.9,-429.83 864,-408 854.17,-406.96 843.89,-405.58 833.73,-404.03"/>
<polygon fill="green" stroke="green" points="834.063,-400.539 823.64,-402.44 832.973,-407.454 834.063,-400.539"/>
</g>
<!-- CLAPs -->
<g id="node66" class="node"><title>CLAPs</title>
<ellipse fill="#ffffff" stroke="black" cx="2163" cy="-389" rx="42.1654" ry="18.5"/>
<text text-anchor="middle" x="2163" y="-385.4" font-family="Times Roman,serif" font-size="14.00">CLAPs</text>
</g>
<!--  TNFa_TNFR1_FADD_TRADD_MADD_TRAF2_I&#45;TRAF_RIP&#45;&gt;CLAPs -->
<g id="edge70" class="edge"><title> TNFa_TNFR1_FADD_TRADD_MADD_TRAF2_I&#45;TRAF_RIP&#45;&gt;CLAPs</title>
<path fill="none" stroke="green" d="M2213.1,-444.33C2204.8,-435.14 2194.6,-423.93 2185.6,-414.01"/>
<polygon fill="green" stroke="green" points="2188.07,-411.525 2178.8,-406.4 2182.85,-416.189 2188.07,-411.525"/>
</g>
<!-- GCK/GCKR_TRAF2&#45;&gt;NIK_MEKK1 -->
<g id="edge72" class="edge"><title>GCK/GCKR_TRAF2&#45;&gt;NIK_MEKK1</title>
<path fill="none" stroke="green" d="M814.99,-374.2C868.23,-361.29 945.08,-342.64 998.25,-329.74"/>
<polygon fill="green" stroke="green" points="999.31,-333.084 1008.2,-327.32 997.656,-326.282 999.31,-333.084"/>
</g>
<!-- LMP1_TRAF4_TRAF2 -->
<g id="node69" class="node"><title>LMP1_TRAF4_TRAF2</title>
<ellipse fill="#e9795e" stroke="black" cx="867" cy="-537" rx="113" ry="18.5"/>
<text text-anchor="middle" x="867" y="-533.4" font-family="Times Roman,serif" font-size="14.00">LMP1_TRAF4_TRAF2</text>
</g>
<!-- LMP1_TRAF4_TRAF2&#45;&gt;TRAF61 -->
<g id="edge74" class="edge"><title>LMP1_TRAF4_TRAF2&#45;&gt;TRAF61</title>
<path fill="none" stroke="green" d="M795.42,-522.64C724.19,-508.36 616.5,-486.76 552.12,-473.85"/>
<polygon fill="green" stroke="green" points="552.662,-470.389 542.17,-471.86 551.289,-477.253 552.662,-470.389"/>
</g>
</g>
</svg>
