<?xml version="1.0" encoding="UTF-8" standalone="no"?>
<!DOCTYPE svg PUBLIC "-//W3C//DTD SVG 1.1//EN"
 "http://www.w3.org/Graphics/SVG/1.1/DTD/svg11.dtd">
<!-- Generated by graphviz version 2.26.3 (20100126.1600)
 -->
<!-- Title: _anonymous_0 Pages: 1 -->
<svg width="594pt" height="564pt"
 viewBox="0.00 0.00 594.00 564.00" xmlns="http://www.w3.org/2000/svg" xmlns:xlink="http://www.w3.org/1999/xlink">
<g id="graph1" class="graph" transform="scale(1 1) rotate(0) translate(4 560)">
<title>_anonymous_0</title>
<polygon fill="white" stroke="white" points="-4,5 -4,-560 591,-560 591,5 -4,5"/>
<!-- Src -->
<g id="node1" class="node"><title>Src</title>
<ellipse fill="#779af6" stroke="black" cx="245" cy="-463" rx="27" ry="18.5"/>
<text text-anchor="middle" x="245" y="-459.4" font-family="Times Roman,serif" font-size="14.00">Src</text>
</g>
<!-- P_STAT3 -->
<g id="node2" class="node"><title>P_STAT3</title>
<ellipse fill="#ffffff" stroke="black" cx="367" cy="-389" rx="54.1123" ry="18.5"/>
<text text-anchor="middle" x="367" y="-385.4" font-family="Times Roman,serif" font-size="14.00">P_STAT3</text>
</g>
<!-- Src&#45;&gt;P_STAT3 -->
<g id="edge2" class="edge"><title>Src&#45;&gt;P_STAT3</title>
<path fill="none" stroke="green" d="M265.42,-450.61C283.34,-439.74 309.83,-423.68 331.26,-410.68"/>
<polygon fill="green" stroke="green" points="333.358,-413.501 340.09,-405.32 329.725,-407.517 333.358,-413.501"/>
</g>
<!-- Ras_GTP -->
<g id="node4" class="node"><title>Ras_GTP</title>
<ellipse fill="#ffffff" stroke="black" cx="227" cy="-389" rx="54.1123" ry="18.5"/>
<text text-anchor="middle" x="227" y="-385.4" font-family="Times Roman,serif" font-size="14.00">Ras_GTP</text>
</g>
<!-- Src&#45;&gt;Ras_GTP -->
<g id="edge4" class="edge"><title>Src&#45;&gt;Ras_GTP</title>
<path fill="none" stroke="green" d="M240.55,-444.71C238.55,-436.5 236.15,-426.62 233.93,-417.48"/>
<polygon fill="green" stroke="green" points="237.29,-416.486 231.52,-407.6 230.49,-418.145 237.29,-416.486"/>
</g>
<!-- P_P_STAT3_STAT3 -->
<g id="node6" class="node"><title>P_P_STAT3_STAT3</title>
<ellipse fill="#ffffff" stroke="black" cx="386" cy="-315" rx="103" ry="18.5"/>
<text text-anchor="middle" x="386" y="-311.4" font-family="Times Roman,serif" font-size="14.00">P_P_STAT3_STAT3</text>
</g>
<!-- P_STAT3&#45;&gt;P_P_STAT3_STAT3 -->
<g id="edge6" class="edge"><title>P_STAT3&#45;&gt;P_P_STAT3_STAT3</title>
<path fill="none" stroke="green" d="M371.79,-370.33C373.89,-362.18 376.39,-352.44 378.7,-343.42"/>
<polygon fill="green" stroke="green" points="382.106,-344.227 381.21,-333.67 375.327,-342.482 382.106,-344.227"/>
</g>
<!-- Rac1 -->
<g id="node8" class="node"><title>Rac1</title>
<ellipse fill="#ffffff" stroke="black" cx="140" cy="-315" rx="35.1378" ry="18.5"/>
<text text-anchor="middle" x="140" y="-311.4" font-family="Times Roman,serif" font-size="14.00">Rac1</text>
</g>
<!-- Ras_GTP&#45;&gt;Rac1 -->
<g id="edge8" class="edge"><title>Ras_GTP&#45;&gt;Rac1</title>
<path fill="none" stroke="green" d="M206.82,-371.84C194.77,-361.58 179.32,-348.44 166.31,-337.38"/>
<polygon fill="green" stroke="green" points="168.466,-334.619 158.58,-330.81 163.933,-339.953 168.466,-334.619"/>
</g>
<!-- Raf1 -->
<g id="node10" class="node"><title>Raf1</title>
<ellipse fill="#ffffff" stroke="black" cx="227" cy="-315" rx="34" ry="18.5"/>
<text text-anchor="middle" x="227" y="-311.4" font-family="Times Roman,serif" font-size="14.00">Raf1</text>
</g>
<!-- Ras_GTP&#45;&gt;Raf1 -->
<g id="edge10" class="edge"><title>Ras_GTP&#45;&gt;Raf1</title>
<path fill="none" stroke="green" d="M227,-370.33C227,-362.26 227,-352.65 227,-343.71"/>
<polygon fill="green" stroke="green" points="230.5,-343.67 227,-333.67 223.5,-343.67 230.5,-343.67"/>
</g>
<!-- P_P_STAT3_STAT3_P_P -->
<g id="node15" class="node"><title>P_P_STAT3_STAT3_P_P</title>
<ellipse fill="#ffffff" stroke="black" cx="240" cy="-19" rx="126" ry="18.5"/>
<text text-anchor="middle" x="240" y="-15.4" font-family="Times Roman,serif" font-size="14.00">P_P_STAT3_STAT3_P_P</text>
</g>
<!-- P_P_STAT3_STAT3&#45;&gt;P_P_STAT3_STAT3_P_P -->
<g id="edge16" class="edge"><title>P_P_STAT3_STAT3&#45;&gt;P_P_STAT3_STAT3_P_P</title>
<path fill="none" stroke="green" d="M406.39,-296.73C415.82,-286.9 426.02,-273.94 431,-260 447.73,-213.12 451.89,-193.18 431,-148 406.18,-94.311 346.35,-59.614 300.2,-39.877"/>
<polygon fill="green" stroke="green" points="301.458,-36.6096 290.88,-36.009 298.775,-43.0749 301.458,-36.6096"/>
</g>
<!-- C&#45;Myc -->
<g id="node17" class="node"><title>C&#45;Myc</title>
<ellipse fill="#e36c54" stroke="black" cx="525" cy="-241" rx="40.9631" ry="18.5"/>
<text text-anchor="middle" x="525" y="-237.4" font-family="Times Roman,serif" font-size="14.00">C&#45;Myc</text>
</g>
<!-- P_P_STAT3_STAT3&#45;&gt;C&#45;Myc -->
<g id="edge18" class="edge"><title>P_P_STAT3_STAT3&#45;&gt;C&#45;Myc</title>
<path fill="none" stroke="green" d="M418.94,-297.46C440.16,-286.17 467.72,-271.49 489.43,-259.93"/>
<polygon fill="green" stroke="green" points="491.162,-262.973 498.35,-255.19 487.877,-256.792 491.162,-262.973"/>
</g>
<!-- WAF1 -->
<g id="node19" class="node"><title>WAF1</title>
<ellipse fill="#ffffff" stroke="black" cx="291" cy="-241" rx="41" ry="18.5"/>
<text text-anchor="middle" x="291" y="-237.4" font-family="Times Roman,serif" font-size="14.00">WAF1</text>
</g>
<!-- P_P_STAT3_STAT3&#45;&gt;WAF1 -->
<g id="edge20" class="edge"><title>P_P_STAT3_STAT3&#45;&gt;WAF1</title>
<path fill="none" stroke="green" d="M362.52,-296.71C349.59,-286.64 333.45,-274.07 319.78,-263.42"/>
<polygon fill="green" stroke="green" points="321.669,-260.455 311.63,-257.07 317.367,-265.977 321.669,-260.455"/>
</g>
<!-- Pim1 -->
<g id="node21" class="node"><title>Pim1</title>
<ellipse fill="#ffffff" stroke="black" cx="386" cy="-241" rx="36" ry="18.5"/>
<text text-anchor="middle" x="386" y="-237.4" font-family="Times Roman,serif" font-size="14.00">Pim1</text>
</g>
<!-- P_P_STAT3_STAT3&#45;&gt;Pim1 -->
<g id="edge22" class="edge"><title>P_P_STAT3_STAT3&#45;&gt;Pim1</title>
<path fill="none" stroke="green" d="M386,-296.33C386,-288.26 386,-278.65 386,-269.71"/>
<polygon fill="green" stroke="green" points="389.5,-269.67 386,-259.67 382.5,-269.67 389.5,-269.67"/>
</g>
<!-- MLKs -->
<g id="node29" class="node"><title>MLKs</title>
<ellipse fill="#ffffff" stroke="black" cx="140" cy="-241" rx="37.2461" ry="18.5"/>
<text text-anchor="middle" x="140" y="-237.4" font-family="Times Roman,serif" font-size="14.00">MLKs</text>
</g>
<!-- Rac1&#45;&gt;MLKs -->
<g id="edge30" class="edge"><title>Rac1&#45;&gt;MLKs</title>
<path fill="none" stroke="green" d="M140,-296.33C140,-288.26 140,-278.65 140,-269.71"/>
<polygon fill="green" stroke="green" points="143.5,-269.67 140,-259.67 136.5,-269.67 143.5,-269.67"/>
</g>
<!-- MKK1/2 -->
<g id="node25" class="node"><title>MKK1/2</title>
<ellipse fill="#ffffff" stroke="black" cx="263" cy="-167" rx="49" ry="18.5"/>
<text text-anchor="middle" x="263" y="-163.4" font-family="Times Roman,serif" font-size="14.00">MKK1/2</text>
</g>
<!-- Raf1&#45;&gt;MKK1/2 -->
<g id="edge42" class="edge"><title>Raf1&#45;&gt;MKK1/2</title>
<path fill="none" stroke="green" d="M228.54,-296.21C230.4,-277.24 234.16,-247.21 241,-222 243.49,-212.84 247.04,-203.14 250.56,-194.48"/>
<polygon fill="green" stroke="green" points="253.805,-195.793 254.48,-185.22 247.358,-193.064 253.805,-195.793"/>
</g>
<!-- Citokines_CitkineReceptor_TYK2_P_P_JAK2_P_P -->
<g id="node12" class="node"><title>Citokines_CitkineReceptor_TYK2_P_P_JAK2_P_P</title>
<ellipse fill="#ffffff" stroke="black" cx="245" cy="-537" rx="245" ry="18.5"/>
<text text-anchor="middle" x="245" y="-533.4" font-family="Times Roman,serif" font-size="14.00">Citokines_CitkineReceptor_TYK2_P_P_JAK2_P_P</text>
</g>
<!-- Citokines_CitkineReceptor_TYK2_P_P_JAK2_P_P&#45;&gt;Src -->
<g id="edge12" class="edge"><title>Citokines_CitkineReceptor_TYK2_P_P_JAK2_P_P&#45;&gt;Src</title>
<path fill="none" stroke="green" d="M245,-518.33C245,-510.26 245,-500.65 245,-491.71"/>
<polygon fill="green" stroke="green" points="248.5,-491.67 245,-481.67 241.5,-491.67 248.5,-491.67"/>
</g>
<!-- Citokines_CitkineReceptor_TYK2_P_P_JAK2_P_P&#45;&gt;P_STAT3 -->
<g id="edge14" class="edge"><title>Citokines_CitkineReceptor_TYK2_P_P_JAK2_P_P&#45;&gt;P_STAT3</title>
<path fill="none" stroke="green" d="M260.45,-518.26C282.02,-492.09 321.24,-444.52 345.6,-414.96"/>
<polygon fill="green" stroke="green" points="348.396,-417.071 352.06,-407.13 342.996,-412.616 348.396,-417.071"/>
</g>
<!-- CDC25A -->
<g id="node33" class="node"><title>CDC25A</title>
<ellipse fill="#ffffff" stroke="black" cx="531" cy="-167" rx="53" ry="18.5"/>
<text text-anchor="middle" x="531" y="-163.4" font-family="Times Roman,serif" font-size="14.00">CDC25A</text>
</g>
<!-- C&#45;Myc&#45;&gt;CDC25A -->
<g id="edge34" class="edge"><title>C&#45;Myc&#45;&gt;CDC25A</title>
<path fill="none" stroke="green" d="M526.51,-222.33C527.17,-214.26 527.95,-204.65 528.67,-195.71"/>
<polygon fill="green" stroke="green" points="532.164,-195.922 529.49,-185.67 525.188,-195.352 532.164,-195.922"/>
</g>
<!-- BCL2 -->
<g id="node39" class="node"><title>BCL2</title>
<ellipse fill="#698bef" stroke="black" cx="385" cy="-167" rx="37.2461" ry="18.5"/>
<text text-anchor="middle" x="385" y="-163.4" font-family="Times Roman,serif" font-size="14.00">BCL2</text>
</g>
<!-- Pim1&#45;&gt;BCL2 -->
<g id="edge40" class="edge"><title>Pim1&#45;&gt;BCL2</title>
<path fill="none" stroke="green" d="M385.75,-222.33C385.64,-214.26 385.51,-204.65 385.39,-195.71"/>
<polygon fill="green" stroke="green" points="388.889,-195.62 385.25,-185.67 381.89,-195.718 388.889,-195.62"/>
</g>
<!-- STAT3 -->
<g id="node23" class="node"><title>STAT3</title>
<ellipse fill="#ffffff" stroke="black" cx="494" cy="-463" rx="43" ry="18.5"/>
<text text-anchor="middle" x="494" y="-459.4" font-family="Times Roman,serif" font-size="14.00">STAT3</text>
</g>
<!-- STAT3&#45;&gt;P_STAT3 -->
<g id="edge24" class="edge"><title>STAT3&#45;&gt;P_STAT3</title>
<path fill="none" stroke="green" d="M468.3,-448.02C449.61,-437.14 424.05,-422.24 403.29,-410.14"/>
<polygon fill="green" stroke="green" points="404.824,-406.983 394.42,-404.98 401.304,-413.034 404.824,-406.983"/>
</g>
<!-- ERK1/2 -->
<g id="node26" class="node"><title>ERK1/2</title>
<ellipse fill="#ffffff" stroke="black" cx="288" cy="-93" rx="47.0847" ry="18.5"/>
<text text-anchor="middle" x="288" y="-89.4" font-family="Times Roman,serif" font-size="14.00">ERK1/2</text>
</g>
<!-- MKK1/2&#45;&gt;ERK1/2 -->
<g id="edge26" class="edge"><title>MKK1/2&#45;&gt;ERK1/2</title>
<path fill="none" stroke="green" d="M269.31,-148.33C272.11,-140.03 275.47,-130.08 278.57,-120.92"/>
<polygon fill="green" stroke="green" points="281.898,-122.004 281.78,-111.41 275.266,-119.765 281.898,-122.004"/>
</g>
<!-- ERK1/2&#45;&gt;P_P_STAT3_STAT3_P_P -->
<g id="edge28" class="edge"><title>ERK1/2&#45;&gt;P_P_STAT3_STAT3_P_P</title>
<path fill="none" stroke="green" d="M276.13,-74.708C270.52,-66.057 263.71,-55.554 257.52,-46.01"/>
<polygon fill="green" stroke="green" points="260.44,-44.0794 252.06,-37.596 254.568,-47.8898 260.44,-44.0794"/>
</g>
<!-- MKKs -->
<g id="node31" class="node"><title>MKKs</title>
<ellipse fill="#ffffff" stroke="black" cx="140" cy="-167" rx="37.2461" ry="18.5"/>
<text text-anchor="middle" x="140" y="-163.4" font-family="Times Roman,serif" font-size="14.00">MKKs</text>
</g>
<!-- MLKs&#45;&gt;MKKs -->
<g id="edge32" class="edge"><title>MLKs&#45;&gt;MKKs</title>
<path fill="none" stroke="green" d="M140,-222.33C140,-214.26 140,-204.65 140,-195.71"/>
<polygon fill="green" stroke="green" points="143.5,-195.67 140,-185.67 136.5,-195.67 143.5,-195.67"/>
</g>
<!-- p38 -->
<g id="node35" class="node"><title>p38</title>
<ellipse fill="#ffffff" stroke="black" cx="193" cy="-93" rx="30.2185" ry="18.5"/>
<text text-anchor="middle" x="193" y="-89.4" font-family="Times Roman,serif" font-size="14.00">p38</text>
</g>
<!-- MKKs&#45;&gt;p38 -->
<g id="edge36" class="edge"><title>MKKs&#45;&gt;p38</title>
<path fill="none" stroke="green" d="M152.56,-149.46C159.21,-140.18 167.49,-128.61 174.83,-118.37"/>
<polygon fill="green" stroke="green" points="177.733,-120.328 180.71,-110.16 172.042,-116.252 177.733,-120.328"/>
</g>
<!-- JNK -->
<g id="node37" class="node"><title>JNK</title>
<ellipse fill="#ffffff" stroke="black" cx="116" cy="-93" rx="29" ry="18.5"/>
<text text-anchor="middle" x="116" y="-89.4" font-family="Times Roman,serif" font-size="14.00">JNK</text>
</g>
<!-- MKKs&#45;&gt;JNK -->
<g id="edge38" class="edge"><title>MKKs&#45;&gt;JNK</title>
<path fill="none" stroke="green" d="M134.07,-148.71C131.36,-140.35 128.08,-130.26 125.07,-120.97"/>
<polygon fill="green" stroke="green" points="128.362,-119.774 121.95,-111.34 121.703,-121.932 128.362,-119.774"/>
</g>
<!-- p38&#45;&gt;P_P_STAT3_STAT3_P_P -->
<g id="edge44" class="edge"><title>p38&#45;&gt;P_P_STAT3_STAT3_P_P</title>
<path fill="none" stroke="green" d="M204.14,-75.463C209.71,-66.693 216.57,-55.884 222.8,-46.079"/>
<polygon fill="green" stroke="green" points="225.878,-47.7607 228.29,-37.444 219.971,-44.005 225.878,-47.7607"/>
</g>
<!-- JNK&#45;&gt;P_P_STAT3_STAT3_P_P -->
<g id="edge46" class="edge"><title>JNK&#45;&gt;P_P_STAT3_STAT3_P_P</title>
<path fill="none" stroke="green" d="M137.32,-80.279C154.77,-69.865 179.91,-54.858 200.95,-42.301"/>
<polygon fill="green" stroke="green" points="202.892,-45.2178 209.69,-37.091 199.308,-39.205 202.892,-45.2178"/>
</g>
<!-- SOCS -->
<g id="node44" class="node"><title>SOCS</title>
<ellipse fill="#ea7b60" stroke="black" cx="547" cy="-537" rx="38.8562" ry="18.5"/>
<text text-anchor="middle" x="547" y="-533.4" font-family="Times Roman,serif" font-size="14.00">SOCS</text>
</g>
<!-- SOCS&#45;&gt;STAT3 -->
<g id="edge48" class="edge"><title>SOCS&#45;&gt;STAT3</title>
<path fill="none" stroke="red" d="M534.44,-519.46C528,-510.47 520.02,-499.34 512.86,-489.34"/>
<polygon fill="red" stroke="red" points="515.507,-487.024 506.84,-480.93 509.815,-491.099 515.507,-487.024"/>
</g>
</g>
</svg>
