<?xml version="1.0" encoding="UTF-8" standalone="no"?>
<!DOCTYPE svg PUBLIC "-//W3C//DTD SVG 1.1//EN"
 "http://www.w3.org/Graphics/SVG/1.1/DTD/svg11.dtd">
<!-- Generated by graphviz version 2.26.3 (20100126.1600)
 -->
<!-- Title: _anonymous_0 Pages: 1 -->
<svg width="1229pt" height="1008pt"
 viewBox="0.00 0.00 1229.00 1008.00" xmlns="http://www.w3.org/2000/svg" xmlns:xlink="http://www.w3.org/1999/xlink">
<g id="graph1" class="graph" transform="scale(1 1) rotate(0) translate(4 1004)">
<title>_anonymous_0</title>
<polygon fill="white" stroke="white" points="-4,5 -4,-1004 1226,-1004 1226,5 -4,5"/>
<!-- PLCgamma -->
<g id="node1" class="node"><title>PLCgamma</title>
<ellipse fill="#ffffff" stroke="black" cx="859" cy="-685" rx="66.0591" ry="18.5"/>
<text text-anchor="middle" x="859" y="-681.4" font-family="Times Roman,serif" font-size="14.00">PLCgamma</text>
</g>
<!-- PLC -->
<g id="node2" class="node"><title>PLC</title>
<ellipse fill="#779af7" stroke="black" cx="859" cy="-611" rx="31" ry="18.5"/>
<text text-anchor="middle" x="859" y="-607.4" font-family="Times Roman,serif" font-size="14.00">PLC</text>
</g>
<!-- PLCgamma&#45;&gt;PLC -->
<g id="edge2" class="edge"><title>PLCgamma&#45;&gt;PLC</title>
<path fill="none" stroke="green" d="M859,-666.33C859,-658.26 859,-648.65 859,-639.71"/>
<polygon fill="green" stroke="green" points="862.5,-639.67 859,-629.67 855.5,-639.67 862.5,-639.67"/>
</g>
<!-- IP3 -->
<g id="node4" class="node"><title>IP3</title>
<ellipse fill="#ffffff" stroke="black" cx="1021" cy="-537" rx="26.9092" ry="18.5"/>
<text text-anchor="middle" x="1021" y="-533.4" font-family="Times Roman,serif" font-size="14.00">IP3</text>
</g>
<!-- PLC&#45;&gt;IP3 -->
<g id="edge4" class="edge"><title>PLC&#45;&gt;IP3</title>
<path fill="none" stroke="green" d="M883.96,-599.6C912.15,-586.72 958.1,-565.73 988.93,-551.65"/>
<polygon fill="green" stroke="green" points="990.727,-554.677 998.37,-547.34 987.82,-548.309 990.727,-554.677"/>
</g>
<!-- IP3R_Ca2+ -->
<g id="node20" class="node"><title>IP3R_Ca2+</title>
<ellipse fill="#7ca0f9" stroke="black" cx="1021" cy="-463" rx="67" ry="18.5"/>
<text text-anchor="middle" x="1021" y="-459.4" font-family="Times Roman,serif" font-size="14.00">IP3R_Ca2+</text>
</g>
<!-- IP3&#45;&gt;IP3R_Ca2+ -->
<g id="edge20" class="edge"><title>IP3&#45;&gt;IP3R_Ca2+</title>
<path fill="none" stroke="green" d="M1021,-518.33C1021,-510.26 1021,-500.65 1021,-491.71"/>
<polygon fill="green" stroke="green" points="1024.5,-491.67 1021,-481.67 1017.5,-491.67 1024.5,-491.67"/>
</g>
<!-- HRas_GTP -->
<g id="node6" class="node"><title>HRas_GTP</title>
<ellipse fill="#7a9df8" stroke="black" cx="194" cy="-759" rx="62" ry="18.5"/>
<text text-anchor="middle" x="194" y="-755.4" font-family="Times Roman,serif" font-size="14.00">HRas_GTP</text>
</g>
<!-- PLCepsilon -->
<g id="node7" class="node"><title>PLCepsilon</title>
<ellipse fill="#80a4fa" stroke="black" cx="210" cy="-685" rx="65" ry="18.5"/>
<text text-anchor="middle" x="210" y="-681.4" font-family="Times Roman,serif" font-size="14.00">PLCepsilon</text>
</g>
<!-- HRas_GTP&#45;&gt;PLCepsilon -->
<g id="edge6" class="edge"><title>HRas_GTP&#45;&gt;PLCepsilon</title>
<path fill="none" stroke="green" d="M198.04,-740.33C199.78,-732.26 201.86,-722.65 203.79,-713.71"/>
<polygon fill="green" stroke="green" points="207.268,-714.184 205.96,-703.67 200.426,-712.705 207.268,-714.184"/>
</g>
<!-- PLCepsilon&#45;&gt;PLC -->
<g id="edge8" class="edge"><title>PLCepsilon&#45;&gt;PLC</title>
<path fill="none" stroke="green" d="M260.92,-673.49C274.24,-670.75 288.62,-668.04 302,-666 493.94,-636.79 725.56,-619.67 818,-613.56"/>
<polygon fill="green" stroke="green" points="818.307,-617.048 828.06,-612.91 817.855,-610.062 818.307,-617.048"/>
</g>
<!-- CaMKIV -->
<g id="node10" class="node"><title>CaMKIV</title>
<ellipse fill="#ffffff" stroke="black" cx="962" cy="-167" rx="49.193" ry="18.5"/>
<text text-anchor="middle" x="962" y="-163.4" font-family="Times Roman,serif" font-size="14.00">CaMKIV</text>
</g>
<!-- HDAC_MEF2 -->
<g id="node11" class="node"><title>HDAC_MEF2</title>
<ellipse fill="#ffffff" stroke="black" cx="995" cy="-93" rx="73.0867" ry="18.5"/>
<text text-anchor="middle" x="995" y="-89.4" font-family="Times Roman,serif" font-size="14.00">HDAC_MEF2</text>
</g>
<!-- CaMKIV&#45;&gt;HDAC_MEF2 -->
<g id="edge10" class="edge"><title>CaMKIV&#45;&gt;HDAC_MEF2</title>
<path fill="none" stroke="red" d="M970.16,-148.71C973.9,-140.32 978.41,-130.2 982.56,-120.89"/>
<polygon fill="red" stroke="red" points="985.827,-122.158 986.71,-111.6 979.436,-119.303 985.827,-122.158"/>
</g>
<!-- p300_CREB_CBP -->
<g id="node13" class="node"><title>p300_CREB_CBP</title>
<ellipse fill="#7598f5" stroke="black" cx="809" cy="-93" rx="95" ry="18.5"/>
<text text-anchor="middle" x="809" y="-89.4" font-family="Times Roman,serif" font-size="14.00">p300_CREB_CBP</text>
</g>
<!-- CaMKIV&#45;&gt;p300_CREB_CBP -->
<g id="edge12" class="edge"><title>CaMKIV&#45;&gt;p300_CREB_CBP</title>
<path fill="none" stroke="green" d="M931.77,-152.38C909.53,-141.62 878.93,-126.82 853.85,-114.69"/>
<polygon fill="green" stroke="green" points="855.057,-111.386 844.53,-110.19 852.013,-117.69 855.057,-111.386"/>
</g>
<!-- Gene expression -->
<g id="node15" class="node"><title>Gene expression</title>
<ellipse fill="#ffffff" stroke="black" cx="995" cy="-19" rx="92.0612" ry="18.5"/>
<text text-anchor="middle" x="995" y="-15.4" font-family="Times Roman,serif" font-size="14.00">Gene expression</text>
</g>
<!-- HDAC_MEF2&#45;&gt;Gene expression -->
<g id="edge16" class="edge"><title>HDAC_MEF2&#45;&gt;Gene expression</title>
<path fill="none" stroke="green" d="M995,-74.327C995,-66.264 995,-56.648 995,-47.711"/>
<polygon fill="green" stroke="green" points="998.5,-47.667 995,-37.667 991.5,-47.667 998.5,-47.667"/>
</g>
<!-- p300_CREB_CBP&#45;&gt;Gene expression -->
<g id="edge14" class="edge"><title>p300_CREB_CBP&#45;&gt;Gene expression</title>
<path fill="none" stroke="green" d="M851.21,-76.208C878.65,-65.289 914.61,-50.984 943.7,-39.409"/>
<polygon fill="green" stroke="green" points="945.282,-42.5465 953.28,-35.598 942.694,-36.0423 945.282,-42.5465"/>
</g>
<!-- CaMKII -->
<g id="node18" class="node"><title>CaMKII</title>
<ellipse fill="#698bef" stroke="black" cx="817" cy="-167" rx="46" ry="18.5"/>
<text text-anchor="middle" x="817" y="-163.4" font-family="Times Roman,serif" font-size="14.00">CaMKII</text>
</g>
<!-- CaMKII&#45;&gt;p300_CREB_CBP -->
<g id="edge18" class="edge"><title>CaMKII&#45;&gt;p300_CREB_CBP</title>
<path fill="none" stroke="green" d="M814.98,-148.33C814.11,-140.26 813.07,-130.65 812.1,-121.71"/>
<polygon fill="green" stroke="green" points="815.57,-121.238 811.02,-111.67 808.61,-121.987 815.57,-121.238"/>
</g>
<!-- Ca2+ -->
<g id="node22" class="node"><title>Ca2+</title>
<ellipse fill="#ffffff" stroke="black" cx="941" cy="-389" rx="38.8562" ry="18.5"/>
<text text-anchor="middle" x="941" y="-385.4" font-family="Times Roman,serif" font-size="14.00">Ca2+</text>
</g>
<!-- IP3R_Ca2+&#45;&gt;Ca2+ -->
<g id="edge22" class="edge"><title>IP3R_Ca2+&#45;&gt;Ca2+</title>
<path fill="none" stroke="green" d="M1001.6,-445.09C991.04,-435.29 977.78,-423.02 966.37,-412.47"/>
<polygon fill="green" stroke="green" points="968.536,-409.705 958.82,-405.48 963.78,-414.842 968.536,-409.705"/>
</g>
<!-- PMR1 -->
<g id="node29" class="node"><title>PMR1</title>
<ellipse fill="#ffffff" stroke="black" cx="1021" cy="-315" rx="38.8562" ry="18.5"/>
<text text-anchor="middle" x="1021" y="-311.4" font-family="Times Roman,serif" font-size="14.00">PMR1</text>
</g>
<!-- Ca2+&#45;&gt;PMR1 -->
<g id="edge54" class="edge"><title>Ca2+&#45;&gt;PMR1</title>
<path fill="none" stroke="green" d="M959.15,-372.21C969.97,-362.2 983.86,-349.36 995.73,-338.37"/>
<polygon fill="green" stroke="green" points="998.229,-340.826 1003.2,-331.47 993.479,-335.684 998.229,-340.826"/>
</g>
<!-- Calm -->
<g id="node50" class="node"><title>Calm</title>
<ellipse fill="#ffffff" stroke="black" cx="928" cy="-315" rx="36" ry="18.5"/>
<text text-anchor="middle" x="928" y="-311.4" font-family="Times Roman,serif" font-size="14.00">Calm</text>
</g>
<!-- Ca2+&#45;&gt;Calm -->
<g id="edge52" class="edge"><title>Ca2+&#45;&gt;Calm</title>
<path fill="none" stroke="green" d="M937.72,-370.33C936.3,-362.26 934.61,-352.65 933.04,-343.71"/>
<polygon fill="green" stroke="green" points="936.454,-342.915 931.28,-333.67 929.559,-344.124 936.454,-342.915"/>
</g>
<!-- Galpha_GTP -->
<g id="node24" class="node"><title>Galpha_GTP</title>
<ellipse fill="#779af6" stroke="black" cx="927" cy="-833" rx="71" ry="18.5"/>
<text text-anchor="middle" x="927" y="-829.4" font-family="Times Roman,serif" font-size="14.00">Galpha_GTP</text>
</g>
<!-- Caln -->
<g id="node25" class="node"><title>Caln</title>
<ellipse fill="#ffffff" stroke="black" cx="1068" cy="-241" rx="33.0296" ry="18.5"/>
<text text-anchor="middle" x="1068" y="-237.4" font-family="Times Roman,serif" font-size="14.00">Caln</text>
</g>
<!-- NFAT1 -->
<g id="node26" class="node"><title>NFAT1</title>
<ellipse fill="#ffffff" stroke="black" cx="1088" cy="-167" rx="43" ry="18.5"/>
<text text-anchor="middle" x="1088" y="-163.4" font-family="Times Roman,serif" font-size="14.00">NFAT1</text>
</g>
<!-- Caln&#45;&gt;NFAT1 -->
<g id="edge24" class="edge"><title>Caln&#45;&gt;NFAT1</title>
<path fill="none" stroke="green" d="M1072.9,-222.71C1075.2,-214.5 1077.8,-204.62 1080.3,-195.48"/>
<polygon fill="green" stroke="green" points="1083.74,-196.169 1083,-185.6 1076.99,-194.324 1083.74,-196.169"/>
</g>
<!-- NFAT1&#45;&gt;Gene expression -->
<g id="edge26" class="edge"><title>NFAT1&#45;&gt;Gene expression</title>
<path fill="none" stroke="green" d="M1090.1,-148.41C1091.5,-128.52 1090.9,-96.747 1077,-74 1068.7,-60.444 1055.7,-49.494 1042.4,-41.04"/>
<polygon fill="green" stroke="green" points="1044.08,-37.9666 1033.7,-35.843 1040.49,-43.976 1044.08,-37.9666"/>
</g>
<!-- PMR1&#45;&gt;IP3R_Ca2+ -->
<g id="edge28" class="edge"><title>PMR1&#45;&gt;IP3R_Ca2+</title>
<path fill="none" stroke="green" d="M1021,-333.59C1021,-358.87 1021,-404.32 1021,-434.07"/>
<polygon fill="green" stroke="green" points="1017.5,-434.26 1021,-444.26 1024.5,-434.26 1017.5,-434.26"/>
</g>
<!-- BCR -->
<g id="node31" class="node"><title>BCR</title>
<ellipse fill="#ffffff" stroke="black" cx="1062" cy="-981" rx="31.8295" ry="18.5"/>
<text text-anchor="middle" x="1062" y="-977.4" font-family="Times Roman,serif" font-size="14.00">BCR</text>
</g>
<!-- SYK -->
<g id="node32" class="node"><title>SYK</title>
<ellipse fill="#84a7fb" stroke="black" cx="1018" cy="-907" rx="31" ry="18.5"/>
<text text-anchor="middle" x="1018" y="-903.4" font-family="Times Roman,serif" font-size="14.00">SYK</text>
</g>
<!-- BCR&#45;&gt;SYK -->
<g id="edge30" class="edge"><title>BCR&#45;&gt;SYK</title>
<path fill="none" stroke="green" d="M1051.6,-963.46C1046.2,-954.5 1039.6,-943.4 1033.7,-933.42"/>
<polygon fill="green" stroke="green" points="1036.62,-931.478 1028.5,-924.67 1030.6,-935.055 1036.62,-931.478"/>
</g>
<!-- CD19 -->
<g id="node34" class="node"><title>CD19</title>
<ellipse fill="#e36c54" stroke="black" cx="1106" cy="-907" rx="38.8562" ry="18.5"/>
<text text-anchor="middle" x="1106" y="-903.4" font-family="Times Roman,serif" font-size="14.00">CD19</text>
</g>
<!-- BCR&#45;&gt;CD19 -->
<g id="edge32" class="edge"><title>BCR&#45;&gt;CD19</title>
<path fill="none" stroke="green" d="M1072.4,-963.46C1077.7,-954.56 1084.3,-943.56 1090.2,-933.64"/>
<polygon fill="green" stroke="green" points="1093.27,-935.328 1095.3,-924.93 1087.23,-931.791 1093.27,-935.328"/>
</g>
<!-- SYK&#45;&gt;PLCgamma -->
<g id="edge34" class="edge"><title>SYK&#45;&gt;PLCgamma</title>
<path fill="none" stroke="green" d="M1019.6,-888.38C1020.5,-868.73 1019.4,-837.43 1007,-814 982.06,-766.76 932.19,-729.02 897.26,-706.84"/>
<polygon fill="green" stroke="green" points="899.073,-703.846 888.73,-701.55 895.384,-709.795 899.073,-703.846"/>
</g>
<!-- Vav -->
<g id="node37" class="node"><title>Vav</title>
<ellipse fill="#7a9df8" stroke="black" cx="1098" cy="-833" rx="29.0155" ry="18.5"/>
<text text-anchor="middle" x="1098" y="-829.4" font-family="Times Roman,serif" font-size="14.00">Vav</text>
</g>
<!-- CD19&#45;&gt;Vav -->
<g id="edge36" class="edge"><title>CD19&#45;&gt;Vav</title>
<path fill="none" stroke="green" d="M1104,-888.33C1103.1,-880.26 1102.1,-870.65 1101.1,-861.71"/>
<polygon fill="green" stroke="green" points="1104.57,-861.229 1100,-851.67 1097.61,-861.992 1104.57,-861.229"/>
</g>
<!-- PI3K -->
<g id="node39" class="node"><title>PI3K</title>
<ellipse fill="#7b9ef8" stroke="black" cx="1097" cy="-759" rx="34" ry="18.5"/>
<text text-anchor="middle" x="1097" y="-755.4" font-family="Times Roman,serif" font-size="14.00">PI3K</text>
</g>
<!-- Vav&#45;&gt;PI3K -->
<g id="edge38" class="edge"><title>Vav&#45;&gt;PI3K</title>
<path fill="none" stroke="green" d="M1097.7,-814.33C1097.6,-806.26 1097.5,-796.65 1097.4,-787.71"/>
<polygon fill="green" stroke="green" points="1100.9,-787.635 1097.3,-777.67 1093.9,-787.704 1100.9,-787.635"/>
</g>
<!-- PI3K&#45;&gt;PLCgamma -->
<g id="edge40" class="edge"><title>PI3K&#45;&gt;PLCgamma</title>
<path fill="none" stroke="green" d="M1067.3,-749.78C1028.8,-737.78 960.63,-716.6 912.81,-701.73"/>
<polygon fill="green" stroke="green" points="913.828,-698.381 903.24,-698.75 911.747,-705.065 913.828,-698.381"/>
</g>
<!-- PIP3 -->
<g id="node42" class="node"><title>PIP3</title>
<ellipse fill="#ffffff" stroke="black" cx="1121" cy="-685" rx="34" ry="18.5"/>
<text text-anchor="middle" x="1121" y="-681.4" font-family="Times Roman,serif" font-size="14.00">PIP3</text>
</g>
<!-- PI3K&#45;&gt;PIP3 -->
<g id="edge42" class="edge"><title>PI3K&#45;&gt;PIP3</title>
<path fill="none" stroke="green" d="M1102.9,-740.71C1105.6,-732.35 1108.9,-722.26 1111.9,-712.97"/>
<polygon fill="green" stroke="green" points="1115.27,-713.934 1115.1,-703.34 1108.63,-711.726 1115.27,-713.934"/>
</g>
<!-- PIP2 -->
<g id="node46" class="node"><title>PIP2</title>
<ellipse fill="#ffffff" stroke="black" cx="1183" cy="-759" rx="34" ry="18.5"/>
<text text-anchor="middle" x="1183" y="-755.4" font-family="Times Roman,serif" font-size="14.00">PIP2</text>
</g>
<!-- PIP3&#45;&gt;PIP2 -->
<g id="edge50" class="edge"><title>PIP3&#45;&gt;PIP2</title>
<path fill="none" stroke="green" d="M1139.8,-700.74C1148.7,-710.07 1159.1,-722.13 1167.6,-732.85"/>
<polygon fill="green" stroke="green" points="1165.05,-735.272 1173.9,-741.09 1170.61,-731.02 1165.05,-735.272"/>
</g>
<!-- LAT_GADS_Fyb_SLP_ITK_PLCgamma1 -->
<g id="node44" class="node"><title>LAT_GADS_Fyb_SLP_ITK_PLCgamma1</title>
<ellipse fill="#eb7e62" stroke="black" cx="568" cy="-759" rx="198" ry="18.5"/>
<text text-anchor="middle" x="568" y="-755.4" font-family="Times Roman,serif" font-size="14.00">LAT_GADS_Fyb_SLP_ITK_PLCgamma1</text>
</g>
<!-- LAT_GADS_Fyb_SLP_ITK_PLCgamma1&#45;&gt;PLCgamma -->
<g id="edge44" class="edge"><title>LAT_GADS_Fyb_SLP_ITK_PLCgamma1&#45;&gt;PLCgamma</title>
<path fill="none" stroke="green" d="M636.59,-741.56C686.32,-728.91 752.87,-711.99 800.18,-699.96"/>
<polygon fill="green" stroke="green" points="801.141,-703.327 809.97,-697.47 799.416,-696.543 801.141,-703.327"/>
</g>
<!-- PIP2&#45;&gt;IP3 -->
<g id="edge48" class="edge"><title>PIP2&#45;&gt;IP3</title>
<path fill="none" stroke="green" d="M1182.6,-740.33C1181.4,-720.65 1177.3,-689.32 1164,-666 1136.1,-617.18 1083.1,-576.83 1050.1,-554.89"/>
<polygon fill="green" stroke="green" points="1051.6,-551.691 1041.3,-549.2 1047.8,-557.569 1051.6,-551.691"/>
</g>
<!-- PIP2&#45;&gt;PIP3 -->
<g id="edge46" class="edge"><title>PIP2&#45;&gt;PIP3</title>
<path fill="none" stroke="green" d="M1164.2,-743.31C1155.3,-734 1144.9,-721.97 1136.5,-711.25"/>
<polygon fill="green" stroke="green" points="1139.05,-708.828 1130.2,-703.01 1133.49,-713.08 1139.05,-708.828"/>
</g>
<!-- Calm&#45;&gt;CaMKIV -->
<g id="edge56" class="edge"><title>Calm&#45;&gt;CaMKIV</title>
<path fill="none" stroke="green" d="M918.68,-296.96C910.1,-277.8 900.09,-246.91 910,-222 914.71,-210.17 923.3,-199.42 932.16,-190.62"/>
<polygon fill="green" stroke="green" points="934.651,-193.083 939.59,-183.71 929.884,-187.957 934.651,-193.083"/>
</g>
<!-- Calm&#45;&gt;CaMKII -->
<g id="edge58" class="edge"><title>Calm&#45;&gt;CaMKII</title>
<path fill="none" stroke="green" d="M915.05,-297.73C895.79,-272.05 859.45,-223.6 836.83,-193.44"/>
<polygon fill="green" stroke="green" points="839.36,-190.98 830.56,-185.08 833.76,-195.18 839.36,-190.98"/>
</g>
<!-- Calm&#45;&gt;Caln -->
<g id="edge62" class="edge"><title>Calm&#45;&gt;Caln</title>
<path fill="none" stroke="green" d="M953.35,-301.6C976.13,-289.56 1009.7,-271.8 1034.7,-258.61"/>
<polygon fill="green" stroke="green" points="1036.59,-261.571 1043.8,-253.81 1033.32,-255.38 1036.59,-261.571"/>
</g>
<!-- CaMKK -->
<g id="node55" class="node"><title>CaMKK</title>
<ellipse fill="#6e91f2" stroke="black" cx="965" cy="-241" rx="46" ry="18.5"/>
<text text-anchor="middle" x="965" y="-237.4" font-family="Times Roman,serif" font-size="14.00">CaMKK</text>
</g>
<!-- Calm&#45;&gt;CaMKK -->
<g id="edge60" class="edge"><title>Calm&#45;&gt;CaMKK</title>
<path fill="none" stroke="green" d="M937.15,-296.71C941.42,-288.17 946.59,-277.83 951.31,-268.38"/>
<polygon fill="green" stroke="green" points="954.488,-269.85 955.83,-259.34 948.227,-266.719 954.488,-269.85"/>
</g>
<!-- CaMKK&#45;&gt;CaMKIV -->
<g id="edge64" class="edge"><title>CaMKK&#45;&gt;CaMKIV</title>
<path fill="none" stroke="green" d="M964.24,-222.33C963.92,-214.26 963.53,-204.65 963.16,-195.71"/>
<polygon fill="green" stroke="green" points="966.655,-195.523 962.76,-185.67 959.661,-195.801 966.655,-195.523"/>
</g>
<!-- Gbeta_Ggamma -->
<g id="node59" class="node"><title>Gbeta_Ggamma</title>
<ellipse fill="#ffffff" stroke="black" cx="748" cy="-833" rx="90" ry="18.5"/>
<text text-anchor="middle" x="748" y="-829.4" font-family="Times Roman,serif" font-size="14.00">Gbeta_Ggamma</text>
</g>
<!-- BTK -->
<g id="node60" class="node"><title>BTK</title>
<ellipse fill="#ffffff" stroke="black" cx="857" cy="-759" rx="31" ry="18.5"/>
<text text-anchor="middle" x="857" y="-755.4" font-family="Times Roman,serif" font-size="14.00">BTK</text>
</g>
<!-- Gbeta_Ggamma&#45;&gt;BTK -->
<g id="edge66" class="edge"><title>Gbeta_Ggamma&#45;&gt;BTK</title>
<path fill="none" stroke="green" d="M774.11,-815.28C790.31,-804.28 811.14,-790.13 827.88,-778.77"/>
<polygon fill="green" stroke="green" points="829.893,-781.633 836.2,-773.12 825.961,-775.842 829.893,-781.633"/>
</g>
<!-- PLCbeta2 -->
<g id="node62" class="node"><title>PLCbeta2</title>
<ellipse fill="#e57057" stroke="black" cx="1008" cy="-685" rx="57.8303" ry="18.5"/>
<text text-anchor="middle" x="1008" y="-681.4" font-family="Times Roman,serif" font-size="14.00">PLCbeta2</text>
</g>
<!-- Gbeta_Ggamma&#45;&gt;PLCbeta2 -->
<g id="edge68" class="edge"><title>Gbeta_Ggamma&#45;&gt;PLCbeta2</title>
<path fill="none" stroke="green" d="M801.7,-818.12C830.96,-808.81 867.18,-795.29 897,-778 929.54,-759.13 961.96,-730.55 983.29,-710.05"/>
<polygon fill="green" stroke="green" points="985.905,-712.388 990.62,-702.9 981.018,-707.377 985.905,-712.388"/>
</g>
<!-- BTK&#45;&gt;PLCgamma -->
<g id="edge70" class="edge"><title>BTK&#45;&gt;PLCgamma</title>
<path fill="none" stroke="green" d="M857.5,-740.33C857.72,-732.26 857.98,-722.65 858.22,-713.71"/>
<polygon fill="green" stroke="green" points="861.72,-713.764 858.5,-703.67 854.722,-713.569 861.72,-713.764"/>
</g>
<!-- PLCbeta2&#45;&gt;PLC -->
<g id="edge72" class="edge"><title>PLCbeta2&#45;&gt;PLC</title>
<path fill="none" stroke="green" d="M976.4,-669.31C951.71,-657.04 917.47,-640.04 892.34,-627.56"/>
<polygon fill="green" stroke="green" points="893.713,-624.334 883.2,-623.02 890.599,-630.603 893.713,-624.334"/>
</g>
<!-- GPCR_GTP -->
<g id="node66" class="node"><title>GPCR_GTP</title>
<ellipse fill="#ffffff" stroke="black" cx="830" cy="-907" rx="65" ry="18.5"/>
<text text-anchor="middle" x="830" y="-903.4" font-family="Times Roman,serif" font-size="14.00">GPCR_GTP</text>
</g>
<!-- GPCR_GTP&#45;&gt;Galpha_GTP -->
<g id="edge76" class="edge"><title>GPCR_GTP&#45;&gt;Galpha_GTP</title>
<path fill="none" stroke="green" d="M852.99,-889.46C865.7,-879.77 881.68,-867.57 895.54,-857"/>
<polygon fill="green" stroke="green" points="898.011,-859.517 903.84,-850.67 893.766,-853.951 898.011,-859.517"/>
</g>
<!-- GPCR_GTP&#45;&gt;Gbeta_Ggamma -->
<g id="edge74" class="edge"><title>GPCR_GTP&#45;&gt;Gbeta_Ggamma</title>
<path fill="none" stroke="green" d="M810.15,-889.09C799.83,-879.77 787.05,-868.24 775.76,-858.05"/>
<polygon fill="green" stroke="green" points="778.008,-855.364 768.24,-851.26 773.317,-860.559 778.008,-855.364"/>
</g>
<!-- Ca2+_CaCn -->
<g id="node69" class="node"><title>Ca2+_CaCn</title>
<ellipse fill="#6d90f1" stroke="black" cx="866" cy="-463" rx="69.7773" ry="18.5"/>
<text text-anchor="middle" x="866" y="-459.4" font-family="Times Roman,serif" font-size="14.00">Ca2+_CaCn</text>
</g>
<!-- Ca2+_CaCn&#45;&gt;Ca2+ -->
<g id="edge78" class="edge"><title>Ca2+_CaCn&#45;&gt;Ca2+</title>
<path fill="none" stroke="green" d="M884.16,-445.09C893.92,-435.45 906.1,-423.43 916.68,-413"/>
<polygon fill="green" stroke="green" points="919.385,-415.248 924.04,-405.73 914.466,-410.267 919.385,-415.248"/>
</g>
<!-- GF_GFR_Shc_GRB2_SOS_PLCgamma -->
<g id="node71" class="node"><title>GF_GFR_Shc_GRB2_SOS_PLCgamma</title>
<ellipse fill="#7598f5" stroke="black" cx="193" cy="-833" rx="193" ry="18.5"/>
<text text-anchor="middle" x="193" y="-829.4" font-family="Times Roman,serif" font-size="14.00">GF_GFR_Shc_GRB2_SOS_PLCgamma</text>
</g>
<!-- GF_GFR_Shc_GRB2_SOS_PLCgamma&#45;&gt;PLC -->
<g id="edge80" class="edge"><title>GF_GFR_Shc_GRB2_SOS_PLCgamma&#45;&gt;PLC</title>
<path fill="none" stroke="green" d="M221.05,-814.57C253.55,-793.92 309.29,-760.63 361,-740 525.22,-674.5 733.24,-633.16 819.13,-617.79"/>
<polygon fill="green" stroke="green" points="819.756,-621.234 828.99,-616.04 818.532,-614.341 819.756,-621.234"/>
</g>
<!-- GF_GFR_Shc_GRB2_SOS_PLCgamma&#45;&gt;HRas_GTP -->
<g id="edge82" class="edge"><title>GF_GFR_Shc_GRB2_SOS_PLCgamma&#45;&gt;HRas_GTP</title>
<path fill="none" stroke="green" d="M193.25,-814.33C193.36,-806.26 193.49,-796.65 193.61,-787.71"/>
<polygon fill="green" stroke="green" points="197.11,-787.718 193.75,-777.67 190.111,-787.62 197.11,-787.718"/>
</g>
<!-- PTEN -->
<g id="node74" class="node"><title>PTEN</title>
<ellipse fill="#7fa2fa" stroke="black" cx="1183" cy="-833" rx="38" ry="18.5"/>
<text text-anchor="middle" x="1183" y="-829.4" font-family="Times Roman,serif" font-size="14.00">PTEN</text>
</g>
<!-- PTEN&#45;&gt;PIP2 -->
<g id="edge84" class="edge"><title>PTEN&#45;&gt;PIP2</title>
<path fill="none" stroke="green" d="M1183,-814.33C1183,-806.26 1183,-796.65 1183,-787.71"/>
<polygon fill="green" stroke="green" points="1186.5,-787.67 1183,-777.67 1179.5,-787.67 1186.5,-787.67"/>
</g>
<!-- TCR_CD3_ZAP70_Fyn -->
<g id="node76" class="node"><title>TCR_CD3_ZAP70_Fyn</title>
<ellipse fill="#ffffff" stroke="black" cx="522" cy="-833" rx="118" ry="18.5"/>
<text text-anchor="middle" x="522" y="-829.4" font-family="Times Roman,serif" font-size="14.00">TCR_CD3_ZAP70_Fyn</text>
</g>
<!-- TCR_CD3_ZAP70_Fyn&#45;&gt;LAT_GADS_Fyb_SLP_ITK_PLCgamma1 -->
<g id="edge86" class="edge"><title>TCR_CD3_ZAP70_Fyn&#45;&gt;LAT_GADS_Fyb_SLP_ITK_PLCgamma1</title>
<path fill="none" stroke="green" d="M533.61,-814.33C538.89,-805.83 545.25,-795.6 551.05,-786.26"/>
<polygon fill="green" stroke="green" points="554.084,-788.009 556.4,-777.67 548.142,-784.308 554.084,-788.009"/>
</g>
</g>
</svg>
