<?xml version="1.0" encoding="UTF-8" standalone="no"?>
<!DOCTYPE svg PUBLIC "-//W3C//DTD SVG 1.1//EN"
 "http://www.w3.org/Graphics/SVG/1.1/DTD/svg11.dtd">
<!-- Generated by graphviz version 2.26.3 (20100126.1600)
 -->
<!-- Title: _anonymous_0 Pages: 1 -->
<svg width="2833pt" height="786pt"
 viewBox="0.00 0.00 2833.00 786.00" xmlns="http://www.w3.org/2000/svg" xmlns:xlink="http://www.w3.org/1999/xlink">
<g id="graph1" class="graph" transform="scale(1 1) rotate(0) translate(4 782)">
<title>_anonymous_0</title>
<polygon fill="white" stroke="white" points="-4,5 -4,-782 2830,-782 2830,5 -4,5"/>
<!-- CyclinE_CDK4 -->
<g id="node1" class="node"><title>CyclinE_CDK4</title>
<ellipse fill="#e57057" stroke="black" cx="80" cy="-241" rx="80" ry="18.5"/>
<text text-anchor="middle" x="80" y="-237.4" font-family="Times Roman,serif" font-size="14.00">CyclinE_CDK4</text>
</g>
<!-- E2F -->
<g id="node2" class="node"><title>E2F</title>
<ellipse fill="#e67259" stroke="black" cx="300" cy="-167" rx="30.2185" ry="18.5"/>
<text text-anchor="middle" x="300" y="-163.4" font-family="Times Roman,serif" font-size="14.00">E2F</text>
</g>
<!-- CyclinE_CDK4&#45;&gt;E2F -->
<g id="edge2" class="edge"><title>CyclinE_CDK4&#45;&gt;E2F</title>
<path fill="none" stroke="green" d="M125.58,-225.67C166.6,-211.87 226.06,-191.87 263.87,-179.15"/>
<polygon fill="green" stroke="green" points="265.094,-182.431 273.46,-175.93 262.866,-175.795 265.094,-182.431"/>
</g>
<!-- BRCA1 -->
<g id="node4" class="node"><title>BRCA1</title>
<ellipse fill="#ffffff" stroke="black" cx="2164" cy="-611" rx="45" ry="18.5"/>
<text text-anchor="middle" x="2164" y="-607.4" font-family="Times Roman,serif" font-size="14.00">BRCA1</text>
</g>
<!-- p53 -->
<g id="node5" class="node"><title>p53</title>
<ellipse fill="#89acfc" stroke="black" cx="2219" cy="-537" rx="30.2185" ry="18.5"/>
<text text-anchor="middle" x="2219" y="-533.4" font-family="Times Roman,serif" font-size="14.00">p53</text>
</g>
<!-- BRCA1&#45;&gt;p53 -->
<g id="edge4" class="edge"><title>BRCA1&#45;&gt;p53</title>
<path fill="none" stroke="green" d="M2177.3,-593.09C2184.2,-583.8 2192.8,-572.3 2200.3,-562.13"/>
<polygon fill="green" stroke="green" points="2203.2,-564.091 2206.4,-553.99 2197.6,-559.893 2203.2,-564.091"/>
</g>
<!-- PML -->
<g id="node7" class="node"><title>PML</title>
<ellipse fill="#ffffff" stroke="black" cx="2175" cy="-463" rx="31.8295" ry="18.5"/>
<text text-anchor="middle" x="2175" y="-459.4" font-family="Times Roman,serif" font-size="14.00">PML</text>
</g>
<!-- p53&#45;&gt;PML -->
<g id="edge6" class="edge"><title>p53&#45;&gt;PML</title>
<path fill="none" stroke="green" d="M2208.6,-519.46C2203.2,-510.5 2196.6,-499.4 2190.7,-489.42"/>
<polygon fill="green" stroke="green" points="2193.62,-487.478 2185.5,-480.67 2187.6,-491.055 2193.62,-487.478"/>
</g>
<!-- p53_Ac -->
<g id="node9" class="node"><title>p53_Ac</title>
<ellipse fill="#89acfc" stroke="black" cx="2056" cy="-463" rx="47.0847" ry="18.5"/>
<text text-anchor="middle" x="2056" y="-459.4" font-family="Times Roman,serif" font-size="14.00">p53_Ac</text>
</g>
<!-- p53&#45;&gt;p53_Ac -->
<g id="edge8" class="edge"><title>p53&#45;&gt;p53_Ac</title>
<path fill="none" stroke="green" d="M2195.6,-525.41C2190.4,-522.93 2185.1,-520.35 2180,-518 2152.5,-505.2 2121.2,-491.34 2097,-480.74"/>
<polygon fill="green" stroke="green" points="2098.27,-477.474 2087.7,-476.7 2095.48,-483.895 2098.27,-477.474"/>
</g>
<!-- PLAS1 -->
<g id="node11" class="node"><title>PLAS1</title>
<ellipse fill="#ffffff" stroke="black" cx="2269" cy="-463" rx="44" ry="18.5"/>
<text text-anchor="middle" x="2269" y="-459.4" font-family="Times Roman,serif" font-size="14.00">PLAS1</text>
</g>
<!-- p53&#45;&gt;PLAS1 -->
<g id="edge10" class="edge"><title>p53&#45;&gt;PLAS1</title>
<path fill="none" stroke="green" d="M2230.6,-519.84C2236.7,-510.79 2244.3,-499.49 2251.2,-489.36"/>
<polygon fill="green" stroke="green" points="2254.25,-491.098 2256.9,-480.84 2248.43,-487.205 2254.25,-491.098"/>
</g>
<!-- p53_Ub_uB_MDM2 -->
<g id="node13" class="node"><title>p53_Ub_uB_MDM2</title>
<ellipse fill="#eb7f63" stroke="black" cx="1503" cy="-167" rx="104" ry="18.5"/>
<text text-anchor="middle" x="1503" y="-163.4" font-family="Times Roman,serif" font-size="14.00">p53_Ub_uB_MDM2</text>
</g>
<!-- p53&#45;&gt;p53_Ub_uB_MDM2 -->
<g id="edge12" class="edge"><title>p53&#45;&gt;p53_Ub_uB_MDM2</title>
<path fill="none" stroke="green" d="M2196.4,-524.49C2191.1,-522 2185.5,-519.66 2180,-518 2122.7,-500.67 1958.7,-520.63 1913,-482 1879.9,-454.07 1884,-432.3 1884,-389 1884,-389 1884,-389 1884,-315 1884,-272.81 1895.6,-251.06 1865,-222 1846.3,-204.24 1706,-186.91 1605.7,-176.59"/>
<polygon fill="green" stroke="green" points="1605.8,-173.082 1595.5,-175.55 1605.09,-180.046 1605.8,-173.082"/>
</g>
<!-- p53_P_P -->
<g id="node15" class="node"><title>p53_P_P</title>
<ellipse fill="#89acfc" stroke="black" cx="2487" cy="-463" rx="52.9104" ry="18.5"/>
<text text-anchor="middle" x="2487" y="-459.4" font-family="Times Roman,serif" font-size="14.00">p53_P_P</text>
</g>
<!-- p53&#45;&gt;p53_P_P -->
<g id="edge14" class="edge"><title>p53&#45;&gt;p53_P_P</title>
<path fill="none" stroke="green" d="M2237.9,-522.55C2241.5,-520.89 2245.3,-519.32 2249,-518 2308.3,-496.73 2379.1,-481.14 2428.1,-472.1"/>
<polygon fill="green" stroke="green" points="2428.98,-475.497 2438.2,-470.27 2427.74,-468.609 2428.98,-475.497"/>
</g>
<!-- p53_Ac_P_P_Ac_p53 -->
<g id="node35" class="node"><title>p53_Ac_P_P_Ac_p53</title>
<ellipse fill="#89acfc" stroke="black" cx="2061" cy="-389" rx="111.036" ry="18.5"/>
<text text-anchor="middle" x="2061" y="-385.4" font-family="Times Roman,serif" font-size="14.00">p53_Ac_P_P_Ac_p53</text>
</g>
<!-- p53_Ac&#45;&gt;p53_Ac_P_P_Ac_p53 -->
<g id="edge36" class="edge"><title>p53_Ac&#45;&gt;p53_Ac_P_P_Ac_p53</title>
<path fill="none" stroke="green" d="M2057.3,-444.33C2057.8,-436.26 2058.5,-426.65 2059.1,-417.71"/>
<polygon fill="green" stroke="green" points="2062.6,-417.861 2059.7,-407.67 2055.61,-417.443 2062.6,-417.861"/>
</g>
<!-- Protosome -->
<g id="node17" class="node"><title>Protosome</title>
<ellipse fill="#f18e70" stroke="black" cx="1503" cy="-93" rx="63.2481" ry="18.5"/>
<text text-anchor="middle" x="1503" y="-89.4" font-family="Times Roman,serif" font-size="14.00">Protosome</text>
</g>
<!-- p53_Ub_uB_MDM2&#45;&gt;Protosome -->
<g id="edge16" class="edge"><title>p53_Ub_uB_MDM2&#45;&gt;Protosome</title>
<path fill="none" stroke="green" d="M1503,-148.33C1503,-140.26 1503,-130.65 1503,-121.71"/>
<polygon fill="green" stroke="green" points="1506.5,-121.67 1503,-111.67 1499.5,-121.67 1506.5,-121.67"/>
</g>
<!-- p53_P_P&#45;&gt;p53 -->
<g id="edge22" class="edge"><title>p53_P_P&#45;&gt;p53</title>
<path fill="none" stroke="green" d="M2440.8,-472.37C2395.7,-481.45 2325.7,-496.94 2267,-518 2262.8,-519.5 2258.5,-521.32 2254.2,-523.23"/>
<polygon fill="green" stroke="green" points="2252.55,-520.134 2244.9,-527.46 2255.45,-526.506 2252.55,-520.134"/>
</g>
<!-- p53Degradation -->
<g id="node19" class="node"><title>p53Degradation</title>
<ellipse fill="#ffffff" stroke="black" cx="1503" cy="-19" rx="90" ry="18.5"/>
<text text-anchor="middle" x="1503" y="-15.4" font-family="Times Roman,serif" font-size="14.00">p53Degradation</text>
</g>
<!-- Protosome&#45;&gt;p53Degradation -->
<g id="edge18" class="edge"><title>Protosome&#45;&gt;p53Degradation</title>
<path fill="none" stroke="green" d="M1503,-74.327C1503,-66.264 1503,-56.648 1503,-47.711"/>
<polygon fill="green" stroke="green" points="1506.5,-47.667 1503,-37.667 1499.5,-47.667 1506.5,-47.667"/>
</g>
<!-- CSNKld -->
<g id="node21" class="node"><title>CSNKld</title>
<ellipse fill="#eb7f63" stroke="black" cx="2449" cy="-611" rx="47.0847" ry="18.5"/>
<text text-anchor="middle" x="2449" y="-607.4" font-family="Times Roman,serif" font-size="14.00">CSNKld</text>
</g>
<!-- CSNKld&#45;&gt;p53_P_P -->
<g id="edge20" class="edge"><title>CSNKld&#45;&gt;p53_P_P</title>
<path fill="none" stroke="green" d="M2453.7,-592.55C2460.2,-567.19 2472,-521.29 2479.7,-491.49"/>
<polygon fill="green" stroke="green" points="2483.12,-492.235 2482.2,-481.68 2476.34,-490.506 2483.12,-492.235"/>
</g>
<!-- DNADamage -->
<g id="node24" class="node"><title>DNADamage</title>
<ellipse fill="#ffffff" stroke="black" cx="2655" cy="-685" rx="74" ry="18.5"/>
<text text-anchor="middle" x="2655" y="-681.4" font-family="Times Roman,serif" font-size="14.00">DNADamage</text>
</g>
<!-- Chk1_P_ATR -->
<g id="node25" class="node"><title>Chk1_P_ATR</title>
<ellipse fill="#e8775d" stroke="black" cx="2625" cy="-611" rx="73.0867" ry="18.5"/>
<text text-anchor="middle" x="2625" y="-607.4" font-family="Times Roman,serif" font-size="14.00">Chk1_P_ATR</text>
</g>
<!-- DNADamage&#45;&gt;Chk1_P_ATR -->
<g id="edge24" class="edge"><title>DNADamage&#45;&gt;Chk1_P_ATR</title>
<path fill="none" stroke="green" d="M2647.4,-666.33C2644.1,-658.03 2640,-648.08 2636.3,-638.92"/>
<polygon fill="green" stroke="green" points="2639.46,-637.397 2632.5,-629.41 2632.96,-639.995 2639.46,-637.397"/>
</g>
<!-- ATM -->
<g id="node27" class="node"><title>ATM</title>
<ellipse fill="#ffffff" stroke="black" cx="2749" cy="-611" rx="33.0296" ry="18.5"/>
<text text-anchor="middle" x="2749" y="-607.4" font-family="Times Roman,serif" font-size="14.00">ATM</text>
</g>
<!-- DNADamage&#45;&gt;ATM -->
<g id="edge26" class="edge"><title>DNADamage&#45;&gt;ATM</title>
<path fill="none" stroke="green" d="M2677.8,-667.09C2690.9,-656.74 2707.5,-643.66 2721.4,-632.73"/>
<polygon fill="green" stroke="green" points="2723.92,-635.196 2729.6,-626.25 2719.58,-629.704 2723.92,-635.196"/>
</g>
<!-- Chk1_P_ATR&#45;&gt;p53_P_P -->
<g id="edge32" class="edge"><title>Chk1_P_ATR&#45;&gt;p53_P_P</title>
<path fill="none" stroke="green" d="M2608.1,-592.85C2583.6,-566.64 2538.3,-518.06 2510.6,-488.32"/>
<polygon fill="green" stroke="green" points="2512.99,-485.746 2503.6,-480.83 2507.87,-490.526 2512.99,-485.746"/>
</g>
<!-- ATM&#45;&gt;p53_P_P -->
<g id="edge30" class="edge"><title>ATM&#45;&gt;p53_P_P</title>
<path fill="none" stroke="green" d="M2725.7,-597.87C2680.2,-572.12 2578.8,-514.83 2523.9,-483.85"/>
<polygon fill="green" stroke="green" points="2525.33,-480.635 2514.9,-478.75 2521.87,-486.725 2525.33,-480.635"/>
</g>
<!-- DNA&#45;PK -->
<g id="node29" class="node"><title>DNA&#45;PK</title>
<ellipse fill="#ffffff" stroke="black" cx="2725" cy="-537" rx="50" ry="18.5"/>
<text text-anchor="middle" x="2725" y="-533.4" font-family="Times Roman,serif" font-size="14.00">DNA&#45;PK</text>
</g>
<!-- ATM&#45;&gt;DNA&#45;PK -->
<g id="edge28" class="edge"><title>ATM&#45;&gt;DNA&#45;PK</title>
<path fill="none" stroke="green" d="M2743.1,-592.71C2740.4,-584.41 2737.1,-574.41 2734.1,-565.18"/>
<polygon fill="green" stroke="green" points="2737.41,-564.037 2731,-555.6 2730.75,-566.192 2737.41,-564.037"/>
</g>
<!-- DNA&#45;PK&#45;&gt;p53_P_P -->
<g id="edge38" class="edge"><title>DNA&#45;PK&#45;&gt;p53_P_P</title>
<path fill="none" stroke="green" d="M2686.5,-525.03C2645.6,-512.33 2581,-492.22 2536.4,-478.36"/>
<polygon fill="green" stroke="green" points="2537.19,-474.94 2526.6,-475.32 2535.11,-481.626 2537.19,-474.94"/>
</g>
<!-- PCAF -->
<g id="node33" class="node"><title>PCAF</title>
<ellipse fill="#ffffff" stroke="black" cx="1942" cy="-537" rx="37.2461" ry="18.5"/>
<text text-anchor="middle" x="1942" y="-533.4" font-family="Times Roman,serif" font-size="14.00">PCAF</text>
</g>
<!-- PCAF&#45;&gt;p53_Ac -->
<g id="edge34" class="edge"><title>PCAF&#45;&gt;p53_Ac</title>
<path fill="none" stroke="green" d="M1964.8,-522.2C1981.4,-511.43 2004.1,-496.66 2022.8,-484.57"/>
<polygon fill="green" stroke="green" points="2024.82,-487.432 2031.3,-479.05 2021.01,-481.561 2024.82,-487.432"/>
</g>
<!-- GSK3b -->
<g id="node43" class="node"><title>GSK3b</title>
<ellipse fill="#f08b6d" stroke="black" cx="2061" cy="-167" rx="43.7762" ry="18.5"/>
<text text-anchor="middle" x="2061" y="-163.4" font-family="Times Roman,serif" font-size="14.00">GSK3b</text>
</g>
<!-- p53_Ac_P_P_Ac_p53&#45;&gt;GSK3b -->
<g id="edge46" class="edge"><title>p53_Ac_P_P_Ac_p53&#45;&gt;GSK3b</title>
<path fill="none" stroke="green" d="M2057.1,-370.45C2053.6,-331.77 2053.3,-242.22 2056.3,-195.91"/>
<polygon fill="green" stroke="green" points="2059.81,-195.865 2057,-185.65 2052.83,-195.389 2059.81,-195.865"/>
</g>
<!-- GeneExpression -->
<g id="node45" class="node"><title>GeneExpression</title>
<ellipse fill="#ffffff" stroke="black" cx="1153" cy="-315" rx="90" ry="18.5"/>
<text text-anchor="middle" x="1153" y="-311.4" font-family="Times Roman,serif" font-size="14.00">GeneExpression</text>
</g>
<!-- p53_Ac_P_P_Ac_p53&#45;&gt;GeneExpression -->
<g id="edge48" class="edge"><title>p53_Ac_P_P_Ac_p53&#45;&gt;GeneExpression</title>
<path fill="none" stroke="green" d="M1961.2,-380.87C1784.6,-366.48 1419.4,-336.71 1247,-322.66"/>
<polygon fill="green" stroke="green" points="1247.15,-319.161 1236.9,-321.84 1246.58,-326.138 1247.15,-319.161"/>
</g>
<!-- PTEN -->
<g id="node47" class="node"><title>PTEN</title>
<ellipse fill="#ffffff" stroke="black" cx="2136" cy="-315" rx="38" ry="18.5"/>
<text text-anchor="middle" x="2136" y="-311.4" font-family="Times Roman,serif" font-size="14.00">PTEN</text>
</g>
<!-- p53_Ac_P_P_Ac_p53&#45;&gt;PTEN -->
<g id="edge50" class="edge"><title>p53_Ac_P_P_Ac_p53&#45;&gt;PTEN</title>
<path fill="none" stroke="green" d="M2079.5,-370.71C2089.2,-361.13 2101.2,-349.29 2111.7,-338.99"/>
<polygon fill="green" stroke="green" points="2114.32,-341.324 2119,-331.82 2109.41,-336.33 2114.32,-341.324"/>
</g>
<!-- p300 -->
<g id="node38" class="node"><title>p300</title>
<ellipse fill="#ffffff" stroke="black" cx="2034" cy="-537" rx="37" ry="18.5"/>
<text text-anchor="middle" x="2034" y="-533.4" font-family="Times Roman,serif" font-size="14.00">p300</text>
</g>
<!-- p300&#45;&gt;p53_Ac -->
<g id="edge40" class="edge"><title>p300&#45;&gt;p53_Ac</title>
<path fill="none" stroke="green" d="M2039.6,-518.33C2042,-510.11 2044.9,-500.29 2047.6,-491.21"/>
<polygon fill="green" stroke="green" points="2051.02,-491.992 2050.5,-481.41 2044.31,-490.006 2051.02,-491.992"/>
</g>
<!-- CAK -->
<g id="node40" class="node"><title>CAK</title>
<ellipse fill="#80a4fa" stroke="black" cx="1954" cy="-463" rx="32" ry="18.5"/>
<text text-anchor="middle" x="1954" y="-459.4" font-family="Times Roman,serif" font-size="14.00">CAK</text>
</g>
<!-- CAK&#45;&gt;p53_Ub_uB_MDM2 -->
<g id="edge42" class="edge"><title>CAK&#45;&gt;p53_Ub_uB_MDM2</title>
<path fill="none" stroke="green" d="M1949.6,-444.67C1947.1,-433.98 1943.9,-420.23 1941,-408 1921.7,-325.38 1960.6,-279.27 1898,-222 1876.9,-202.65 1717.8,-185.32 1608.1,-175.5"/>
<polygon fill="green" stroke="green" points="1608.27,-172.001 1598,-174.6 1607.65,-178.974 1608.27,-172.001"/>
</g>
<!-- CAK&#45;&gt;p53_Ac_P_P_Ac_p53 -->
<g id="edge44" class="edge"><title>CAK&#45;&gt;p53_Ac_P_P_Ac_p53</title>
<path fill="none" stroke="green" d="M1974.6,-448.73C1989.2,-438.65 2009.1,-424.88 2026.1,-413.11"/>
<polygon fill="green" stroke="green" points="2028.47,-415.728 2034.7,-407.16 2024.48,-409.971 2028.47,-415.728"/>
</g>
<!-- GSK3b&#45;&gt;p53_Ac_P_P_Ac_p53 -->
<g id="edge88" class="edge"><title>GSK3b&#45;&gt;p53_Ac_P_P_Ac_p53</title>
<path fill="none" stroke="green" d="M2065,-185.65C2068.4,-224.43 2068.7,-313.98 2065.7,-360.22"/>
<polygon fill="green" stroke="green" points="2062.19,-360.208 2064.9,-370.45 2069.17,-360.753 2062.19,-360.208"/>
</g>
<!-- C&#45;Fos -->
<g id="node53" class="node"><title>C&#45;Fos</title>
<ellipse fill="#ffffff" stroke="black" cx="1714" cy="-241" rx="38" ry="18.5"/>
<text text-anchor="middle" x="1714" y="-237.4" font-family="Times Roman,serif" font-size="14.00">C&#45;Fos</text>
</g>
<!-- GeneExpression&#45;&gt;C&#45;Fos -->
<g id="edge66" class="edge"><title>GeneExpression&#45;&gt;C&#45;Fos</title>
<path fill="none" stroke="green" d="M1237.9,-308.78C1362.3,-299.19 1587.9,-279.8 1667,-260 1670.2,-259.21 1673.4,-258.25 1676.6,-257.19"/>
<polygon fill="green" stroke="green" points="1677.88,-260.448 1686.1,-253.76 1675.51,-253.864 1677.88,-260.448"/>
</g>
<!-- TSP1 -->
<g id="node54" class="node"><title>TSP1</title>
<ellipse fill="#80a4fa" stroke="black" cx="1153" cy="-241" rx="37.2461" ry="18.5"/>
<text text-anchor="middle" x="1153" y="-237.4" font-family="Times Roman,serif" font-size="14.00">TSP1</text>
</g>
<!-- GeneExpression&#45;&gt;TSP1 -->
<g id="edge64" class="edge"><title>GeneExpression&#45;&gt;TSP1</title>
<path fill="none" stroke="green" d="M1153,-296.33C1153,-288.26 1153,-278.65 1153,-269.71"/>
<polygon fill="green" stroke="green" points="1156.5,-269.67 1153,-259.67 1149.5,-269.67 1156.5,-269.67"/>
</g>
<!-- Fas -->
<g id="node57" class="node"><title>Fas</title>
<ellipse fill="#ffffff" stroke="black" cx="1235" cy="-241" rx="27" ry="18.5"/>
<text text-anchor="middle" x="1235" y="-237.4" font-family="Times Roman,serif" font-size="14.00">Fas</text>
</g>
<!-- GeneExpression&#45;&gt;Fas -->
<g id="edge84" class="edge"><title>GeneExpression&#45;&gt;Fas</title>
<path fill="none" stroke="green" d="M1173.3,-296.71C1184.7,-286.39 1199.1,-273.43 1211.1,-262.61"/>
<polygon fill="green" stroke="green" points="1213.48,-265.179 1218.5,-255.85 1208.76,-260.011 1213.48,-265.179"/>
</g>
<!-- Caspase -->
<g id="node60" class="node"><title>Caspase</title>
<ellipse fill="#f08b6d" stroke="black" cx="1607" cy="-241" rx="50.8032" ry="18.5"/>
<text text-anchor="middle" x="1607" y="-237.4" font-family="Times Roman,serif" font-size="14.00">Caspase</text>
</g>
<!-- GeneExpression&#45;&gt;Caspase -->
<g id="edge74" class="edge"><title>GeneExpression&#45;&gt;Caspase</title>
<path fill="none" stroke="green" d="M1235.6,-307.55C1315.8,-299.35 1440.7,-284.06 1547,-260 1551.3,-259.02 1555.8,-257.88 1560.2,-256.65"/>
<polygon fill="green" stroke="green" points="1561.19,-260.008 1569.8,-253.84 1559.22,-253.29 1561.19,-260.008"/>
</g>
<!-- 14&#45;3&#45;3s -->
<g id="node67" class="node"><title>14&#45;3&#45;3s</title>
<ellipse fill="#ffffff" stroke="black" cx="1329" cy="-241" rx="49.193" ry="18.5"/>
<text text-anchor="middle" x="1329" y="-237.4" font-family="Times Roman,serif" font-size="14.00">14&#45;3&#45;3s</text>
</g>
<!-- GeneExpression&#45;&gt;14&#45;3&#45;3s -->
<g id="edge68" class="edge"><title>GeneExpression&#45;&gt;14&#45;3&#45;3s</title>
<path fill="none" stroke="green" d="M1192.9,-298.21C1220.9,-286.45 1258.2,-270.75 1286.7,-258.78"/>
<polygon fill="green" stroke="green" points="1288.14,-261.972 1296,-254.87 1285.43,-255.519 1288.14,-261.972"/>
</g>
<!-- Box -->
<g id="node69" class="node"><title>Box</title>
<ellipse fill="#ffffff" stroke="black" cx="625" cy="-241" rx="29.0155" ry="18.5"/>
<text text-anchor="middle" x="625" y="-237.4" font-family="Times Roman,serif" font-size="14.00">Box</text>
</g>
<!-- GeneExpression&#45;&gt;Box -->
<g id="edge70" class="edge"><title>GeneExpression&#45;&gt;Box</title>
<path fill="none" stroke="green" d="M1068.6,-308.53C950.32,-298.92 741.41,-279.88 668,-260 664.4,-259.03 660.72,-257.79 657.09,-256.43"/>
<polygon fill="green" stroke="green" points="658.319,-253.151 647.74,-252.58 655.654,-259.624 658.319,-253.151"/>
</g>
<!-- GADD45 -->
<g id="node71" class="node"><title>GADD45</title>
<ellipse fill="#ffffff" stroke="black" cx="959" cy="-241" rx="55" ry="18.5"/>
<text text-anchor="middle" x="959" y="-237.4" font-family="Times Roman,serif" font-size="14.00">GADD45</text>
</g>
<!-- GeneExpression&#45;&gt;GADD45 -->
<g id="edge72" class="edge"><title>GeneExpression&#45;&gt;GADD45</title>
<path fill="none" stroke="green" d="M1109.9,-298.58C1078.8,-286.69 1036.7,-270.65 1004.9,-258.52"/>
<polygon fill="green" stroke="green" points="1006.01,-255.197 995.42,-254.89 1003.51,-261.735 1006.01,-255.197"/>
</g>
<!-- BCL2 -->
<g id="node74" class="node"><title>BCL2</title>
<ellipse fill="#ffffff" stroke="black" cx="653" cy="-167" rx="37.2461" ry="18.5"/>
<text text-anchor="middle" x="653" y="-163.4" font-family="Times Roman,serif" font-size="14.00">BCL2</text>
</g>
<!-- GeneExpression&#45;&gt;BCL2 -->
<g id="edge76" class="edge"><title>GeneExpression&#45;&gt;BCL2</title>
<path fill="none" stroke="red" d="M1067.9,-308.94C945.34,-299.57 730.45,-280.48 701,-260 679.21,-244.84 666.66,-216.7 659.9,-195.33"/>
<polygon fill="red" stroke="red" points="663.183,-194.085 657.03,-185.46 656.461,-196.04 663.183,-194.085"/>
</g>
<!-- p21CIP -->
<g id="node76" class="node"><title>p21CIP</title>
<ellipse fill="#ffffff" stroke="black" cx="224" cy="-241" rx="45.8832" ry="18.5"/>
<text text-anchor="middle" x="224" y="-237.4" font-family="Times Roman,serif" font-size="14.00">p21CIP</text>
</g>
<!-- GeneExpression&#45;&gt;p21CIP -->
<g id="edge78" class="edge"><title>GeneExpression&#45;&gt;p21CIP</title>
<path fill="none" stroke="green" d="M1063.6,-312.43C872.06,-306.43 427.14,-289.68 279,-260 274.93,-259.19 270.75,-258.14 266.61,-256.97"/>
<polygon fill="green" stroke="green" points="267.637,-253.624 257.05,-254.03 265.579,-260.315 267.637,-253.624"/>
</g>
<!-- DR5 -->
<g id="node78" class="node"><title>DR5</title>
<ellipse fill="#e46e56" stroke="black" cx="1065" cy="-241" rx="33.0296" ry="18.5"/>
<text text-anchor="middle" x="1065" y="-237.4" font-family="Times Roman,serif" font-size="14.00">DR5</text>
</g>
<!-- GeneExpression&#45;&gt;DR5 -->
<g id="edge80" class="edge"><title>GeneExpression&#45;&gt;DR5</title>
<path fill="none" stroke="green" d="M1131.2,-296.71C1119.2,-286.6 1104.2,-273.96 1091.5,-263.27"/>
<polygon fill="green" stroke="green" points="1093.42,-260.31 1083.5,-256.58 1088.93,-265.68 1093.42,-260.31"/>
</g>
<!-- BAI1 -->
<g id="node80" class="node"><title>BAI1</title>
<ellipse fill="#ffffff" stroke="black" cx="745" cy="-241" rx="35.1378" ry="18.5"/>
<text text-anchor="middle" x="745" y="-237.4" font-family="Times Roman,serif" font-size="14.00">BAI1</text>
</g>
<!-- GeneExpression&#45;&gt;BAI1 -->
<g id="edge82" class="edge"><title>GeneExpression&#45;&gt;BAI1</title>
<path fill="none" stroke="green" d="M1068.6,-308.45C993.94,-301.21 882.7,-286.82 789,-260 786.23,-259.21 783.39,-258.28 780.57,-257.27"/>
<polygon fill="green" stroke="green" points="781.708,-253.957 771.12,-253.59 779.168,-260.48 781.708,-253.957"/>
</g>
<!-- MDM2 -->
<g id="node83" class="node"><title>MDM2</title>
<ellipse fill="#ffffff" stroke="black" cx="1813" cy="-241" rx="43" ry="18.5"/>
<text text-anchor="middle" x="1813" y="-237.4" font-family="Times Roman,serif" font-size="14.00">MDM2</text>
</g>
<!-- GeneExpression&#45;&gt;MDM2 -->
<g id="edge86" class="edge"><title>GeneExpression&#45;&gt;MDM2</title>
<path fill="none" stroke="green" d="M1239.8,-309.94C1383.3,-301.1 1664.1,-281.7 1761,-260 1764.6,-259.19 1768.4,-258.18 1772.1,-257.06"/>
<polygon fill="green" stroke="green" points="1773.38,-260.325 1781.8,-253.9 1771.21,-253.67 1773.38,-260.325"/>
</g>
<!-- Akt -->
<g id="node63" class="node"><title>Akt</title>
<ellipse fill="#f29375" stroke="black" cx="2132" cy="-241" rx="29" ry="18.5"/>
<text text-anchor="middle" x="2132" y="-237.4" font-family="Times Roman,serif" font-size="14.00">Akt</text>
</g>
<!-- PTEN&#45;&gt;Akt -->
<g id="edge62" class="edge"><title>PTEN&#45;&gt;Akt</title>
<path fill="none" stroke="red" d="M2135,-296.33C2134.6,-288.26 2134,-278.65 2133.6,-269.71"/>
<polygon fill="red" stroke="red" points="2137.09,-269.443 2133,-259.67 2130.1,-269.861 2137.09,-269.443"/>
</g>
<!-- HIPK2 -->
<g id="node49" class="node"><title>HIPK2</title>
<ellipse fill="#ffffff" stroke="black" cx="2522" cy="-685" rx="40.9631" ry="18.5"/>
<text text-anchor="middle" x="2522" y="-681.4" font-family="Times Roman,serif" font-size="14.00">HIPK2</text>
</g>
<!-- HIPK2&#45;&gt;p53_P_P -->
<g id="edge52" class="edge"><title>HIPK2&#45;&gt;p53_P_P</title>
<path fill="none" stroke="green" d="M2519.1,-666.45C2513,-627.69 2498.8,-537.84 2491.5,-491.61"/>
<polygon fill="green" stroke="green" points="2494.94,-490.968 2489.9,-481.65 2488.03,-492.079 2494.94,-490.968"/>
</g>
<!-- CyclinD1_CDK2 -->
<g id="node51" class="node"><title>CyclinD1_CDK2</title>
<ellipse fill="#ffffff" stroke="black" cx="376" cy="-241" rx="88" ry="18.5"/>
<text text-anchor="middle" x="376" y="-237.4" font-family="Times Roman,serif" font-size="14.00">CyclinD1_CDK2</text>
</g>
<!-- CyclinD1_CDK2&#45;&gt;E2F -->
<g id="edge54" class="edge"><title>CyclinD1_CDK2&#45;&gt;E2F</title>
<path fill="none" stroke="green" d="M357.21,-222.71C347.1,-212.86 334.52,-200.61 323.73,-190.1"/>
<polygon fill="green" stroke="green" points="325.86,-187.29 316.25,-182.83 320.982,-192.31 325.86,-187.29"/>
</g>
<!-- c&#45;Abl -->
<g id="node55" class="node"><title>c&#45;Abl</title>
<ellipse fill="#ffffff" stroke="black" cx="1503" cy="-241" rx="35.1378" ry="18.5"/>
<text text-anchor="middle" x="1503" y="-237.4" font-family="Times Roman,serif" font-size="14.00">c&#45;Abl</text>
</g>
<!-- c&#45;Abl&#45;&gt;p53_Ub_uB_MDM2 -->
<g id="edge56" class="edge"><title>c&#45;Abl&#45;&gt;p53_Ub_uB_MDM2</title>
<path fill="none" stroke="red" d="M1503,-222.33C1503,-214.26 1503,-204.65 1503,-195.71"/>
<polygon fill="red" stroke="red" points="1506.5,-195.67 1503,-185.67 1499.5,-195.67 1506.5,-195.67"/>
</g>
<!-- PTEN1 -->
<g id="node58" class="node"><title>PTEN1</title>
<ellipse fill="none" stroke="black" cx="842" cy="-241" rx="43.7762" ry="18.5"/>
<text text-anchor="middle" x="842" y="-237.4" font-family="Times Roman,serif" font-size="14.00">PTEN1</text>
</g>
<!-- PTEN1&#45;&gt;p53_Ub_uB_MDM2 -->
<g id="edge58" class="edge"><title>PTEN1&#45;&gt;p53_Ub_uB_MDM2</title>
<path fill="none" stroke="red" d="M873.85,-228.11C880.73,-225.74 888.03,-223.54 895,-222 987.19,-201.65 1245.5,-182.99 1394.1,-173.52"/>
<polygon fill="red" stroke="red" points="1394.44,-177.005 1404.2,-172.88 1394,-170.019 1394.44,-177.005"/>
</g>
<!-- HIFla -->
<g id="node61" class="node"><title>HIFla</title>
<ellipse fill="#f39577" stroke="black" cx="2264" cy="-611" rx="37" ry="18.5"/>
<text text-anchor="middle" x="2264" y="-607.4" font-family="Times Roman,serif" font-size="14.00">HIFla</text>
</g>
<!-- HIFla&#45;&gt;p53 -->
<g id="edge60" class="edge"><title>HIFla&#45;&gt;p53</title>
<path fill="none" stroke="green" d="M2253.1,-593.09C2247.7,-584.11 2240.9,-573.08 2234.9,-563.18"/>
<polygon fill="green" stroke="green" points="2237.8,-561.205 2229.6,-554.49 2231.82,-564.85 2237.8,-561.205"/>
</g>
<!-- Akt&#45;&gt;GSK3b -->
<g id="edge96" class="edge"><title>Akt&#45;&gt;GSK3b</title>
<path fill="none" stroke="red" d="M2116.6,-224.94C2107.2,-215.2 2095.1,-202.58 2084.6,-191.6"/>
<polygon fill="red" stroke="red" points="2087.05,-189.102 2077.6,-184.32 2082.01,-193.954 2087.05,-189.102"/>
</g>
<!-- 14&#45;3&#45;3s&#45;&gt;p53_Ub_uB_MDM2 -->
<g id="edge92" class="edge"><title>14&#45;3&#45;3s&#45;&gt;p53_Ub_uB_MDM2</title>
<path fill="none" stroke="red" d="M1361.7,-227.08C1387.6,-216.09 1424.1,-200.57 1453.5,-188.06"/>
<polygon fill="red" stroke="red" points="1454.96,-191.241 1462.8,-184.11 1452.23,-184.798 1454.96,-191.241"/>
</g>
<!-- Box&#45;&gt;BCL2 -->
<g id="edge90" class="edge"><title>Box&#45;&gt;BCL2</title>
<path fill="none" stroke="red" d="M631.92,-222.71C635.08,-214.35 638.9,-204.26 642.42,-194.97"/>
<polygon fill="red" stroke="red" points="645.798,-195.932 646.06,-185.34 639.25,-193.457 645.798,-195.932"/>
</g>
<!-- p21CIP&#45;&gt;E2F -->
<g id="edge94" class="edge"><title>p21CIP&#45;&gt;E2F</title>
<path fill="none" stroke="red" d="M241.63,-223.84C251.96,-213.78 265.14,-200.94 276.37,-190.01"/>
<polygon fill="red" stroke="red" points="279.043,-192.292 283.77,-182.81 274.162,-187.275 279.043,-192.292"/>
</g>
<!-- MDM2&#45;&gt;p53_Ub_uB_MDM2 -->
<g id="edge102" class="edge"><title>MDM2&#45;&gt;p53_Ub_uB_MDM2</title>
<path fill="none" stroke="green" d="M1781.1,-228.53C1774.5,-226.19 1767.6,-223.89 1761,-222 1703.7,-205.53 1638.1,-191.59 1587.3,-181.87"/>
<polygon fill="green" stroke="green" points="1587.88,-178.417 1577.4,-179.99 1586.57,-185.294 1587.88,-178.417"/>
</g>
<!-- HDAC -->
<g id="node90" class="node"><title>HDAC</title>
<ellipse fill="#ffffff" stroke="black" cx="2130" cy="-537" rx="41" ry="18.5"/>
<text text-anchor="middle" x="2130" y="-533.4" font-family="Times Roman,serif" font-size="14.00">HDAC</text>
</g>
<!-- HDAC&#45;&gt;p53_Ac -->
<g id="edge98" class="edge"><title>HDAC&#45;&gt;p53_Ac</title>
<path fill="none" stroke="red" d="M2112.8,-519.84C2103.3,-510.29 2091.2,-498.23 2080.7,-487.68"/>
<polygon fill="red" stroke="red" points="2082.86,-484.894 2073.3,-480.33 2077.93,-489.86 2082.86,-484.894"/>
</g>
<!-- p38 -->
<g id="node92" class="node"><title>p38</title>
<ellipse fill="#85a8fb" stroke="black" cx="2795" cy="-685" rx="30.2185" ry="18.5"/>
<text text-anchor="middle" x="2795" y="-681.4" font-family="Times Roman,serif" font-size="14.00">p38</text>
</g>
<!-- p38&#45;&gt;p53_P_P -->
<g id="edge100" class="edge"><title>p38&#45;&gt;p53_P_P</title>
<path fill="none" stroke="green" d="M2800.3,-666.62C2809,-632.52 2821.7,-559.16 2784,-518 2753.3,-484.4 2627.5,-471.07 2549.8,-465.98"/>
<polygon fill="green" stroke="green" points="2549.9,-462.479 2539.7,-465.34 2549.46,-469.465 2549.9,-462.479"/>
</g>
<!-- Ub -->
<g id="node95" class="node"><title>Ub</title>
<ellipse fill="#ea7b60" stroke="black" cx="1423" cy="-241" rx="27" ry="18.5"/>
<text text-anchor="middle" x="1423" y="-237.4" font-family="Times Roman,serif" font-size="14.00">Ub</text>
</g>
<!-- Ub&#45;&gt;p53_Ub_uB_MDM2 -->
<g id="edge104" class="edge"><title>Ub&#45;&gt;p53_Ub_uB_MDM2</title>
<path fill="none" stroke="green" d="M1439.2,-226.02C1449.6,-216.39 1463.4,-203.63 1475.5,-192.44"/>
<polygon fill="green" stroke="green" points="1478.21,-194.705 1483.2,-185.36 1473.47,-189.552 1478.21,-194.705"/>
</g>
<!-- Rb_E2F -->
<g id="node97" class="node"><title>Rb_E2F</title>
<ellipse fill="#e57057" stroke="black" cx="530" cy="-241" rx="48" ry="18.5"/>
<text text-anchor="middle" x="530" y="-237.4" font-family="Times Roman,serif" font-size="14.00">Rb_E2F</text>
</g>
<!-- Rb_E2F&#45;&gt;E2F -->
<g id="edge108" class="edge"><title>Rb_E2F&#45;&gt;E2F</title>
<path fill="none" stroke="green" d="M493.54,-228.76C486.72,-226.5 479.65,-224.16 473,-222 426.09,-206.72 371.86,-189.56 336.8,-178.54"/>
<polygon fill="green" stroke="green" points="337.599,-175.122 327.01,-175.46 335.499,-181.8 337.599,-175.122"/>
</g>
<!-- P_Rb -->
<g id="node98" class="node"><title>P_Rb</title>
<ellipse fill="#e36c54" stroke="black" cx="530" cy="-167" rx="36" ry="18.5"/>
<text text-anchor="middle" x="530" y="-163.4" font-family="Times Roman,serif" font-size="14.00">P_Rb</text>
</g>
<!-- Rb_E2F&#45;&gt;P_Rb -->
<g id="edge106" class="edge"><title>Rb_E2F&#45;&gt;P_Rb</title>
<path fill="none" stroke="green" d="M530,-222.33C530,-214.26 530,-204.65 530,-195.71"/>
<polygon fill="green" stroke="green" points="533.5,-195.67 530,-185.67 526.5,-195.67 533.5,-195.67"/>
</g>
<!-- uv -->
<g id="node101" class="node"><title>uv</title>
<ellipse fill="#ffffff" stroke="black" cx="2522" cy="-759" rx="27" ry="18.5"/>
<text text-anchor="middle" x="2522" y="-755.4" font-family="Times Roman,serif" font-size="14.00">uv</text>
</g>
<!-- uv&#45;&gt;CSNKld -->
<g id="edge118" class="edge"><title>uv&#45;&gt;CSNKld</title>
<path fill="none" stroke="green" d="M2504.8,-744.28C2493.9,-734.04 2480.3,-719.48 2472,-704 2461.3,-683.94 2455.5,-658.79 2452.4,-639.7"/>
<polygon fill="green" stroke="green" points="2455.86,-639.154 2450.9,-629.79 2448.94,-640.201 2455.86,-639.154"/>
</g>
<!-- uv&#45;&gt;DNADamage -->
<g id="edge116" class="edge"><title>uv&#45;&gt;DNADamage</title>
<path fill="none" stroke="green" d="M2543.1,-747.27C2562.6,-736.43 2592,-720.05 2615.8,-706.8"/>
<polygon fill="green" stroke="green" points="2617.57,-709.823 2624.6,-701.9 2614.16,-703.707 2617.57,-709.823"/>
</g>
<!-- uv&#45;&gt;HIPK2 -->
<g id="edge112" class="edge"><title>uv&#45;&gt;HIPK2</title>
<path fill="none" stroke="green" d="M2522,-740.33C2522,-732.26 2522,-722.65 2522,-713.71"/>
<polygon fill="green" stroke="green" points="2525.5,-713.67 2522,-703.67 2518.5,-713.67 2525.5,-713.67"/>
</g>
<!-- uv&#45;&gt;p38 -->
<g id="edge110" class="edge"><title>uv&#45;&gt;p38</title>
<path fill="none" stroke="green" d="M2547.8,-753.08C2588.4,-743.59 2669.9,-724 2738,-704 2744.8,-702.01 2752,-699.73 2758.9,-697.47"/>
<polygon fill="green" stroke="green" points="2760.32,-700.685 2768.7,-694.2 2758.11,-694.045 2760.32,-700.685"/>
</g>
<!-- JNK -->
<g id="node104" class="node"><title>JNK</title>
<ellipse fill="#ffffff" stroke="black" cx="2383" cy="-685" rx="29" ry="18.5"/>
<text text-anchor="middle" x="2383" y="-681.4" font-family="Times Roman,serif" font-size="14.00">JNK</text>
</g>
<!-- uv&#45;&gt;JNK -->
<g id="edge114" class="edge"><title>uv&#45;&gt;JNK</title>
<path fill="none" stroke="green" d="M2500.6,-747.6C2477.7,-735.4 2441,-715.9 2414.8,-701.91"/>
<polygon fill="green" stroke="green" points="2416.07,-698.624 2405.6,-697.03 2412.79,-704.808 2416.07,-698.624"/>
</g>
<!-- JNK&#45;&gt;p53_P_P -->
<g id="edge120" class="edge"><title>JNK&#45;&gt;p53_P_P</title>
<path fill="none" stroke="green" d="M2382.2,-666.16C2382.1,-646.89 2383.6,-616.39 2393,-592 2408.6,-551.64 2440.1,-512.54 2462.3,-488.16"/>
<polygon fill="green" stroke="green" points="2464.93,-490.475 2469.2,-480.78 2459.81,-485.694 2464.93,-490.475"/>
</g>
<!-- Chk2_P -->
<g id="node109" class="node"><title>Chk2_P</title>
<ellipse fill="#698bef" stroke="black" cx="2316" cy="-537" rx="49" ry="18.5"/>
<text text-anchor="middle" x="2316" y="-533.4" font-family="Times Roman,serif" font-size="14.00">Chk2_P</text>
</g>
<!-- Chk2_P&#45;&gt;p53_P_P -->
<g id="edge122" class="edge"><title>Chk2_P&#45;&gt;p53_P_P</title>
<path fill="none" stroke="green" d="M2348.6,-522.91C2375.8,-511.14 2414.7,-494.27 2444.4,-481.43"/>
<polygon fill="green" stroke="green" points="2445.9,-484.593 2453.7,-477.42 2443.13,-478.166 2445.9,-484.593"/>
</g>
<!-- Sirt -->
<g id="node111" class="node"><title>Sirt</title>
<ellipse fill="#ffffff" stroke="black" cx="1858" cy="-537" rx="29" ry="18.5"/>
<text text-anchor="middle" x="1858" y="-533.4" font-family="Times Roman,serif" font-size="14.00">Sirt</text>
</g>
<!-- Sirt&#45;&gt;p53_Ac -->
<g id="edge124" class="edge"><title>Sirt&#45;&gt;p53_Ac</title>
<path fill="none" stroke="red" d="M1880.7,-525.05C1885.7,-522.59 1891,-520.11 1896,-518 1916.8,-509.25 1970.5,-491.13 2009.9,-478.08"/>
<polygon fill="red" stroke="red" points="2011.2,-481.337 2019.6,-474.88 2009.01,-474.689 2011.2,-481.337"/>
</g>
</g>
</svg>
