<?xml version="1.0" encoding="UTF-8" standalone="no"?>
<!DOCTYPE svg PUBLIC "-//W3C//DTD SVG 1.1//EN"
 "http://www.w3.org/Graphics/SVG/1.1/DTD/svg11.dtd">
<!-- Generated by graphviz version 2.36.0 (20140111.2315)
 -->
<!-- Title: %3 Pages: 1 -->
<svg width="1443pt" height="404pt"
 viewBox="0.00 0.00 1442.69 404.00" xmlns="http://www.w3.org/2000/svg" xmlns:xlink="http://www.w3.org/1999/xlink">
<g id="graph0" class="graph" transform="scale(1 1) rotate(0) translate(4 400)">
<title>%3</title>
<polygon fill="white" stroke="none" points="-4,4 -4,-400 1438.69,-400 1438.69,4 -4,4"/>
<!-- TGFB2 -->
<g id="node1" class="node"><title>TGFB2</title>
<ellipse fill="#fad7ea" stroke="black" cx="909.697" cy="-378" rx="42.7926" ry="18"/>
<text text-anchor="middle" x="909.697" y="-374.3" font-family="Times,serif" font-size="14.00">TGFB2</text>
</g>
<!-- TGFBR2 -->
<g id="node2" class="node"><title>TGFBR2</title>
<ellipse fill="#91c857" stroke="black" cx="702.697" cy="-306" rx="50.0912" ry="18"/>
<text text-anchor="middle" x="702.697" y="-302.3" font-family="Times,serif" font-size="14.00">TGFBR2</text>
</g>
<!-- TGFB2&#45;&gt;TGFBR2 -->
<g id="edge1" class="edge"><title>TGFB2&#45;&gt;TGFBR2</title>
<path fill="none" stroke="green" d="M877.357,-366.06C842.447,-354.26 786.607,-335.38 747.487,-322.15"/>
<polygon fill="green" stroke="green" points="748.521,-318.805 737.927,-318.91 746.274,-325.435 748.521,-318.805"/>
</g>
<!-- TGFBR1 -->
<g id="node3" class="node"><title>TGFBR1</title>
<ellipse fill="#e6f5d0" stroke="black" cx="820.697" cy="-306" rx="50.0912" ry="18"/>
<text text-anchor="middle" x="820.697" y="-302.3" font-family="Times,serif" font-size="14.00">TGFBR1</text>
</g>
<!-- TGFB2&#45;&gt;TGFBR1 -->
<g id="edge2" class="edge"><title>TGFB2&#45;&gt;TGFBR1</title>
<path fill="none" stroke="green" d="M890.387,-361.81C878.197,-352.22 862.237,-339.67 848.667,-329"/>
<polygon fill="green" stroke="green" points="850.609,-326.075 840.587,-322.64 846.28,-331.575 850.609,-326.075"/>
</g>
<!-- AXIN1 -->
<g id="node4" class="node"><title>AXIN1</title>
<ellipse fill="#d863a3" stroke="black" cx="744.697" cy="-162" rx="42.4939" ry="18"/>
<text text-anchor="middle" x="744.697" y="-158.3" font-family="Times,serif" font-size="14.00">AXIN1</text>
</g>
<!-- TGFBR2&#45;&gt;AXIN1 -->
<g id="edge3" class="edge"><title>TGFBR2&#45;&gt;AXIN1</title>
<path fill="none" stroke="green" d="M667.067,-293.11C648.197,-284.78 626.697,-271.58 615.697,-252 607.857,-238.05 606.787,-229.29 615.697,-216 625.667,-201.13 667.177,-185.75 700.447,-175.41"/>
<polygon fill="green" stroke="green" points="701.47,-178.757 710.027,-172.51 699.441,-172.057 701.47,-178.757"/>
</g>
<!-- DAB2 -->
<g id="node5" class="node"><title>DAB2</title>
<ellipse fill="#f0b3d8" stroke="black" cx="662.697" cy="-234" rx="37.8943" ry="18"/>
<text text-anchor="middle" x="662.697" y="-230.3" font-family="Times,serif" font-size="14.00">DAB2</text>
</g>
<!-- TGFBR2&#45;&gt;DAB2 -->
<g id="edge4" class="edge"><title>TGFBR2&#45;&gt;DAB2</title>
<path fill="none" stroke="green" d="M693.017,-288.05C688.297,-279.8 682.527,-269.7 677.287,-260.54"/>
<polygon fill="green" stroke="green" points="680.287,-258.736 672.287,-251.79 674.209,-262.209 680.287,-258.736"/>
</g>
<!-- TGFBR1&#45;&gt;AXIN1 -->
<g id="edge5" class="edge"><title>TGFBR1&#45;&gt;AXIN1</title>
<path fill="none" stroke="green" d="M820.077,-287.85C818.737,-269.09 814.557,-238.67 801.697,-216 794.807,-203.85 784.187,-192.87 773.977,-184.1"/>
<polygon fill="green" stroke="green" points="775.911,-181.161 765.947,-177.56 771.49,-186.589 775.911,-181.161"/>
</g>
<!-- SNX6 -->
<g id="node6" class="node"><title>SNX6</title>
<ellipse fill="#f5f6f2" stroke="black" cx="755.697" cy="-234" rx="37.8943" ry="18"/>
<text text-anchor="middle" x="755.697" y="-230.3" font-family="Times,serif" font-size="14.00">SNX6</text>
</g>
<!-- TGFBR1&#45;&gt;SNX6 -->
<g id="edge6" class="edge"><title>TGFBR1&#45;&gt;SNX6</title>
<path fill="none" stroke="green" d="M805.617,-288.76C797.137,-279.62 786.397,-268.06 777.057,-258"/>
<polygon fill="green" stroke="green" points="779.617,-255.614 770.247,-250.67 774.489,-260.378 779.617,-255.614"/>
</g>
<!-- SMAD2 -->
<g id="node7" class="node"><title>SMAD2</title>
<ellipse fill="#cae8a3" stroke="black" cx="520.697" cy="-90" rx="46.2923" ry="18"/>
<text text-anchor="middle" x="520.697" y="-86.3" font-family="Times,serif" font-size="14.00">SMAD2</text>
</g>
<!-- AXIN1&#45;&gt;SMAD2 -->
<g id="edge7" class="edge"><title>AXIN1&#45;&gt;SMAD2</title>
<path fill="none" stroke="green" d="M711.647,-150.67C672.917,-138.57 608.577,-118.46 565.407,-104.97"/>
<polygon fill="green" stroke="green" points="566.315,-101.587 555.727,-101.95 564.23,-108.269 566.315,-101.587"/>
</g>
<!-- SMAD3 -->
<g id="node8" class="node"><title>SMAD3</title>
<ellipse fill="#f9eef4" stroke="black" cx="1043.7" cy="-90" rx="46.2923" ry="18"/>
<text text-anchor="middle" x="1043.7" y="-86.3" font-family="Times,serif" font-size="14.00">SMAD3</text>
</g>
<!-- AXIN1&#45;&gt;SMAD3 -->
<g id="edge8" class="edge"><title>AXIN1&#45;&gt;SMAD3</title>
<path fill="none" stroke="green" d="M780.767,-152.56C834.357,-140.01 935.127,-116.42 995.147,-102.37"/>
<polygon fill="green" stroke="green" points="996.164,-105.726 1005.1,-100.03 994.561,-98.9123 996.164,-105.726"/>
</g>
<!-- DAB2&#45;&gt;AXIN1 -->
<g id="edge9" class="edge"><title>DAB2&#45;&gt;AXIN1</title>
<path fill="none" stroke="green" d="M680.487,-217.81C691.697,-208.25 706.347,-195.74 718.827,-185.08"/>
<polygon fill="green" stroke="green" points="721.321,-187.553 726.657,-178.4 716.777,-182.228 721.321,-187.553"/>
</g>
<!-- SNX6&#45;&gt;AXIN1 -->
<g id="edge10" class="edge"><title>SNX6&#45;&gt;AXIN1</title>
<path fill="none" stroke="green" d="M752.977,-215.7C751.767,-207.98 750.307,-198.71 748.957,-190.11"/>
<polygon fill="green" stroke="green" points="752.394,-189.437 747.387,-180.1 745.478,-190.522 752.394,-189.437"/>
</g>
<!-- FOXH1 -->
<g id="node9" class="node"><title>FOXH1</title>
<ellipse fill="#f7cee6" stroke="black" cx="775.697" cy="-18" rx="45.4919" ry="18"/>
<text text-anchor="middle" x="775.697" y="-14.3" font-family="Times,serif" font-size="14.00">FOXH1</text>
</g>
<!-- SMAD2&#45;&gt;FOXH1 -->
<g id="edge11" class="edge"><title>SMAD2&#45;&gt;FOXH1</title>
<path fill="none" stroke="green" d="M557.237,-78.971C602.717,-66.486 680.417,-45.156 729.847,-31.586"/>
<polygon fill="green" stroke="green" points="730.92,-34.9208 739.637,-28.898 729.067,-28.1707 730.92,-34.9208"/>
</g>
<!-- SMAD3&#45;&gt;FOXH1 -->
<g id="edge12" class="edge"><title>SMAD3&#45;&gt;FOXH1</title>
<path fill="none" stroke="green" d="M1006.4,-79.267C958.327,-66.703 874.617,-44.838 822.347,-31.184"/>
<polygon fill="green" stroke="green" points="823.207,-27.7912 812.647,-28.651 821.438,-34.5641 823.207,-27.7912"/>
</g>
<!-- SMAD4 -->
<g id="node10" class="node"><title>SMAD4</title>
<ellipse fill="#ebf5db" stroke="black" cx="899.697" cy="-162" rx="46.2923" ry="18"/>
<text text-anchor="middle" x="899.697" y="-158.3" font-family="Times,serif" font-size="14.00">SMAD4</text>
</g>
<!-- SMAD4&#45;&gt;SMAD2 -->
<g id="edge13" class="edge"><title>SMAD4&#45;&gt;SMAD2</title>
<path fill="none" stroke="green" d="M858.777,-153.44C789.127,-140.58 647.707,-114.46 571.717,-100.42"/>
<polygon fill="green" stroke="green" points="571.916,-96.8977 561.447,-98.526 570.646,-103.782 571.916,-96.8977"/>
</g>
<!-- SMAD4&#45;&gt;SMAD3 -->
<g id="edge14" class="edge"><title>SMAD4&#45;&gt;SMAD3</title>
<path fill="none" stroke="green" d="M927.457,-147.5C950.077,-136.51 982.187,-120.9 1006.9,-108.87"/>
<polygon fill="green" stroke="green" points="1008.52,-111.971 1016,-104.46 1005.47,-105.671 1008.52,-111.971"/>
</g>
<!-- HDAC8 -->
<g id="node11" class="node"><title>HDAC8</title>
<ellipse fill="#f7f5f6" stroke="black" cx="292.697" cy="-234" rx="46.2923" ry="18"/>
<text text-anchor="middle" x="292.697" y="-230.3" font-family="Times,serif" font-size="14.00">HDAC8</text>
</g>
<!-- TGIF1 -->
<g id="node12" class="node"><title>TGIF1</title>
<ellipse fill="#f6f6f6" stroke="black" cx="346.697" cy="-162" rx="40.0939" ry="18"/>
<text text-anchor="middle" x="346.697" y="-158.3" font-family="Times,serif" font-size="14.00">TGIF1</text>
</g>
<!-- HDAC8&#45;&gt;TGIF1 -->
<g id="edge15" class="edge"><title>HDAC8&#45;&gt;TGIF1</title>
<path fill="none" stroke="green" d="M305.497,-216.41C312.157,-207.78 320.417,-197.06 327.797,-187.5"/>
<polygon fill="green" stroke="green" points="330.653,-189.527 333.987,-179.47 325.109,-185.253 330.653,-189.527"/>
</g>
<!-- TGIF1&#45;&gt;SMAD2 -->
<g id="edge16" class="edge"><title>TGIF1&#45;&gt;SMAD2</title>
<path fill="none" stroke="green" d="M375.817,-149.28C404.407,-137.79 448.237,-120.15 480.207,-107.29"/>
<polygon fill="green" stroke="green" points="481.748,-110.442 489.717,-103.46 479.133,-103.949 481.748,-110.442"/>
</g>
<!-- SMAD7 -->
<g id="node13" class="node"><title>SMAD7</title>
<ellipse fill="#e8f5d6" stroke="black" cx="704.697" cy="-378" rx="46.2923" ry="18"/>
<text text-anchor="middle" x="704.697" y="-374.3" font-family="Times,serif" font-size="14.00">SMAD7</text>
</g>
<!-- SMAD7&#45;&gt;TGFBR2 -->
<g id="edge17" class="edge"><title>SMAD7&#45;&gt;TGFBR2</title>
<path fill="none" stroke="red" d="M704.207,-359.7C703.987,-351.98 703.717,-342.71 703.467,-334.11"/>
<polygon fill="red" stroke="red" points="706.965,-333.998 703.187,-324.1 699.968,-334.194 706.965,-333.998"/>
</g>
<!-- SMAD7&#45;&gt;TGFBR1 -->
<g id="edge18" class="edge"><title>SMAD7&#45;&gt;TGFBR1</title>
<path fill="none" stroke="red" d="M728.737,-362.5C745.727,-352.24 768.727,-338.36 787.477,-327.05"/>
<polygon fill="red" stroke="red" points="789.541,-329.892 796.297,-321.73 785.926,-323.898 789.541,-329.892"/>
</g>
<!-- ZFYVE9 -->
<g id="node14" class="node"><title>ZFYVE9</title>
<ellipse fill="#f1f6eb" stroke="black" cx="238.697" cy="-162" rx="49.2915" ry="18"/>
<text text-anchor="middle" x="238.697" y="-158.3" font-family="Times,serif" font-size="14.00">ZFYVE9</text>
</g>
<!-- ZFYVE9&#45;&gt;SMAD2 -->
<g id="edge19" class="edge"><title>ZFYVE9&#45;&gt;SMAD2</title>
<path fill="none" stroke="green" d="M275.757,-150.03C283.017,-147.97 290.587,-145.87 297.697,-144 357.277,-128.35 426.337,-112.25 471.627,-101.96"/>
<polygon fill="green" stroke="green" points="472.505,-105.35 481.487,-99.731 470.961,-98.5222 472.505,-105.35"/>
</g>
<!-- TRAF7 -->
<g id="node15" class="node"><title>TRAF7</title>
<ellipse fill="#f3f6f0" stroke="black" cx="590.697" cy="-306" rx="42.4939" ry="18"/>
<text text-anchor="middle" x="590.697" y="-302.3" font-family="Times,serif" font-size="14.00">TRAF7</text>
</g>
<!-- TRAF7&#45;&gt;SMAD3 -->
<g id="edge20" class="edge"><title>TRAF7&#45;&gt;SMAD3</title>
<path fill="none" stroke="red" d="M590.117,-287.73C590.237,-268.87 592.717,-238.36 605.697,-216 612.037,-205.07 682.147,-149.13 693.697,-144 790.587,-100.96 915.837,-91.86 987.217,-90.502"/>
<polygon fill="red" stroke="red" points="987.409,-93.9997 997.357,-90.354 987.307,-87.0004 987.409,-93.9997"/>
</g>
<!-- SKI -->
<g id="node16" class="node"><title>SKI</title>
<ellipse fill="#f1f6ea" stroke="black" cx="1196.7" cy="-234" rx="27.0966" ry="18"/>
<text text-anchor="middle" x="1196.7" y="-230.3" font-family="Times,serif" font-size="14.00">SKI</text>
</g>
<!-- TRAF7&#45;&gt;SKI -->
<g id="edge21" class="edge"><title>TRAF7&#45;&gt;SKI</title>
<path fill="none" stroke="red" d="M621.757,-293.66C628.887,-291.45 636.487,-289.39 643.697,-288 869.447,-244.58 936.967,-308.91 1159.7,-252 1162,-251.41 1164.4,-250.68 1166.7,-249.86"/>
<polygon fill="red" stroke="red" points="1168.13,-253.056 1176.1,-246.07 1165.51,-246.563 1168.13,-253.056"/>
</g>
<!-- XPO1 -->
<g id="node17" class="node"><title>XPO1</title>
<ellipse fill="#fce1ef" stroke="black" cx="1030.7" cy="-234" rx="37.0935" ry="18"/>
<text text-anchor="middle" x="1030.7" y="-230.3" font-family="Times,serif" font-size="14.00">XPO1</text>
</g>
<!-- XPO1&#45;&gt;SMAD4 -->
<g id="edge22" class="edge"><title>XPO1&#45;&gt;SMAD4</title>
<path fill="none" stroke="green" d="M1006.7,-220.16C986.547,-209.41 957.547,-193.91 934.817,-181.77"/>
<polygon fill="green" stroke="green" points="936.286,-178.587 925.817,-176.96 932.986,-184.76 936.286,-178.587"/>
</g>
<!-- RAN -->
<g id="node18" class="node"><title>RAN</title>
<ellipse fill="#f7f5f6" stroke="black" cx="1118.7" cy="-234" rx="32.4942" ry="18"/>
<text text-anchor="middle" x="1118.7" y="-230.3" font-family="Times,serif" font-size="14.00">RAN</text>
</g>
<!-- RAN&#45;&gt;SMAD4 -->
<g id="edge23" class="edge"><title>RAN&#45;&gt;SMAD4</title>
<path fill="none" stroke="green" d="M1093.5,-222.37C1088,-220.16 1082.2,-217.93 1076.7,-216 1052.4,-207.48 989.107,-188.83 945.177,-176.09"/>
<polygon fill="green" stroke="green" points="946.156,-172.73 935.577,-173.31 944.208,-179.454 946.156,-172.73"/>
</g>
<!-- KPNB1 -->
<g id="node19" class="node"><title>KPNB1</title>
<ellipse fill="#276419" stroke="black" cx="1229.7" cy="-162" rx="44.6926" ry="18"/>
<text text-anchor="middle" x="1229.7" y="-158.3" font-family="Times,serif" font-size="14.00">KPNB1</text>
</g>
<!-- RAN&#45;&gt;KPNB1 -->
<g id="edge24" class="edge"><title>RAN&#45;&gt;KPNB1</title>
<path fill="none" stroke="green" d="M1139.3,-220C1155.8,-209.62 1179.1,-194.91 1197.9,-183.03"/>
<polygon fill="green" stroke="green" points="1199.89,-185.912 1206.5,-177.63 1196.17,-179.984 1199.89,-185.912"/>
</g>
<!-- KPNB1&#45;&gt;SMAD3 -->
<g id="edge25" class="edge"><title>KPNB1&#45;&gt;SMAD3</title>
<path fill="none" stroke="green" d="M1198.1,-149.13C1167.1,-137.45 1119.6,-119.55 1085.4,-106.7"/>
<polygon fill="green" stroke="green" points="1086.29,-103.296 1075.7,-103.05 1083.82,-109.848 1086.29,-103.296"/>
</g>
<!-- FOS -->
<g id="node20" class="node"><title>FOS</title>
<ellipse fill="#f8f1f5" stroke="black" cx="1382.7" cy="-234" rx="30.5947" ry="18"/>
<text text-anchor="middle" x="1382.7" y="-230.3" font-family="Times,serif" font-size="14.00">FOS</text>
</g>
<!-- CREBBP -->
<g id="node21" class="node"><title>CREBBP</title>
<ellipse fill="#a00960" stroke="black" cx="1382.7" cy="-162" rx="51.9908" ry="18"/>
<text text-anchor="middle" x="1382.7" y="-158.3" font-family="Times,serif" font-size="14.00">CREBBP</text>
</g>
<!-- FOS&#45;&gt;CREBBP -->
<g id="edge26" class="edge"><title>FOS&#45;&gt;CREBBP</title>
<path fill="none" stroke="green" d="M1382.7,-215.7C1382.7,-207.98 1382.7,-198.71 1382.7,-190.11"/>
<polygon fill="green" stroke="green" points="1386.2,-190.1 1382.7,-180.1 1379.2,-190.1 1386.2,-190.1"/>
</g>
<!-- CREBBP&#45;&gt;SMAD3 -->
<g id="edge27" class="edge"><title>CREBBP&#45;&gt;SMAD3</title>
<path fill="none" stroke="green" d="M1343,-150.36C1334.4,-148.16 1325.2,-145.93 1316.7,-144 1239.8,-126.64 1149.9,-109.86 1094.9,-99.983"/>
<polygon fill="green" stroke="green" points="1095.46,-96.5275 1085,-98.221 1094.23,-103.419 1095.46,-96.5275"/>
</g>
<!-- PSMA2 -->
<g id="node22" class="node"><title>PSMA2</title>
<ellipse fill="#ebf5db" stroke="black" cx="1196.7" cy="-378" rx="45.4919" ry="18"/>
<text text-anchor="middle" x="1196.7" y="-374.3" font-family="Times,serif" font-size="14.00">PSMA2</text>
</g>
<!-- PSMA2&#45;&gt;TGFBR2 -->
<g id="edge28" class="edge"><title>PSMA2&#45;&gt;TGFBR2</title>
<path fill="none" stroke="red" d="M1152.5,-373.95C1073.5,-367.99 902.967,-352.77 761.697,-324 757.527,-323.15 753.217,-322.15 748.927,-321.07"/>
<polygon fill="red" stroke="red" points="749.539,-317.612 738.977,-318.44 747.75,-324.379 749.539,-317.612"/>
</g>
<!-- PSMA2&#45;&gt;TGFBR1 -->
<g id="edge29" class="edge"><title>PSMA2&#45;&gt;TGFBR1</title>
<path fill="none" stroke="red" d="M1156.5,-369.51C1088.3,-356.82 950.087,-331.09 873.967,-316.92"/>
<polygon fill="red" stroke="red" points="874.579,-313.474 864.107,-315.08 873.295,-320.355 874.579,-313.474"/>
</g>
<!-- PSMA2&#45;&gt;SMAD2 -->
<g id="edge30" class="edge"><title>PSMA2&#45;&gt;SMAD2</title>
<path fill="none" stroke="red" d="M1208.7,-360.16C1230,-328.12 1268.8,-257.89 1232.7,-216 1162.3,-134.27 1089.7,-227.27 992.697,-180 971.787,-169.8 975.747,-153.91 954.697,-144 888.797,-112.98 677.807,-98.683 576.287,-93.47"/>
<polygon fill="red" stroke="red" points="576.39,-89.9709 566.227,-92.964 576.038,-96.962 576.39,-89.9709"/>
</g>
<!-- PSMA2&#45;&gt;SMAD3 -->
<g id="edge31" class="edge"><title>PSMA2&#45;&gt;SMAD3</title>
<path fill="none" stroke="red" d="M1223.7,-363.32C1238.6,-354.27 1256.1,-340.94 1265.7,-324 1305.4,-254.13 1333,-206.67 1282.7,-144 1260.1,-115.82 1162.1,-101.69 1098.8,-95.382"/>
<polygon fill="red" stroke="red" points="1098.89,-91.8745 1088.6,-94.4 1098.22,-98.8423 1098.89,-91.8745"/>
</g>
<!-- PSMA2&#45;&gt;SKI -->
<g id="edge32" class="edge"><title>PSMA2&#45;&gt;SKI</title>
<path fill="none" stroke="red" d="M1196.7,-359.87C1196.7,-335.67 1196.7,-291.21 1196.7,-262.39"/>
<polygon fill="red" stroke="red" points="1200.2,-262.19 1196.7,-252.19 1193.2,-262.19 1200.2,-262.19"/>
</g>
<!-- SIN3A -->
<g id="node23" class="node"><title>SIN3A</title>
<ellipse fill="#ca3088" stroke="black" cx="398.697" cy="-234" rx="41.6928" ry="18"/>
<text text-anchor="middle" x="398.697" y="-230.3" font-family="Times,serif" font-size="14.00">SIN3A</text>
</g>
<!-- SIN3A&#45;&gt;TGIF1 -->
<g id="edge33" class="edge"><title>SIN3A&#45;&gt;TGIF1</title>
<path fill="none" stroke="green" d="M386.637,-216.76C380.227,-208.14 372.227,-197.36 365.067,-187.73"/>
<polygon fill="green" stroke="green" points="367.826,-185.575 359.057,-179.63 362.205,-189.746 367.826,-185.575"/>
</g>
<!-- RAB5B -->
<g id="node24" class="node"><title>RAB5B</title>
<ellipse fill="#e285b8" stroke="black" cx="448.697" cy="-162" rx="44.393" ry="18"/>
<text text-anchor="middle" x="448.697" y="-158.3" font-family="Times,serif" font-size="14.00">RAB5B</text>
</g>
<!-- RAB5B&#45;&gt;SMAD2 -->
<g id="edge34" class="edge"><title>RAB5B&#45;&gt;SMAD2</title>
<path fill="none" stroke="green" d="M465.037,-145.12C474.387,-136.03 486.287,-124.46 496.677,-114.35"/>
<polygon fill="green" stroke="green" points="499.191,-116.787 503.927,-107.31 494.314,-111.765 499.191,-116.787"/>
</g>
<!-- CTBP2 -->
<g id="node25" class="node"><title>CTBP2</title>
<ellipse fill="#efb0d5" stroke="black" cx="591.697" cy="-162" rx="42.7926" ry="18"/>
<text text-anchor="middle" x="591.697" y="-158.3" font-family="Times,serif" font-size="14.00">CTBP2</text>
</g>
<!-- CTBP2&#45;&gt;SMAD2 -->
<g id="edge35" class="edge"><title>CTBP2&#45;&gt;SMAD2</title>
<path fill="none" stroke="green" d="M575.587,-145.12C566.367,-136.03 554.637,-124.46 544.377,-114.35"/>
<polygon fill="green" stroke="green" points="546.815,-111.839 537.237,-107.31 541.9,-116.823 546.815,-111.839"/>
</g>
<!-- EP300 -->
<g id="node26" class="node"><title>EP300</title>
<ellipse fill="#af106c" stroke="black" cx="1043.7" cy="-162" rx="41.6928" ry="18"/>
<text text-anchor="middle" x="1043.7" y="-158.3" font-family="Times,serif" font-size="14.00">EP300</text>
</g>
<!-- EP300&#45;&gt;SMAD3 -->
<g id="edge36" class="edge"><title>EP300&#45;&gt;SMAD3</title>
<path fill="none" stroke="green" d="M1043.7,-143.7C1043.7,-135.98 1043.7,-126.71 1043.7,-118.11"/>
<polygon fill="green" stroke="green" points="1047.2,-118.1 1043.7,-108.1 1040.2,-118.1 1047.2,-118.1"/>
</g>
<!-- TGFBRAP1 -->
<g id="node27" class="node"><title>TGFBRAP1</title>
<ellipse fill="#8e0152" stroke="black" cx="912.697" cy="-234" rx="63.0888" ry="18"/>
<text text-anchor="middle" x="912.697" y="-230.3" font-family="Times,serif" font-size="14.00">TGFBRAP1</text>
</g>
<!-- TGFBRAP1&#45;&gt;SMAD4 -->
<g id="edge37" class="edge"><title>TGFBRAP1&#45;&gt;SMAD4</title>
<path fill="none" stroke="green" d="M909.487,-215.7C908.047,-207.98 906.327,-198.71 904.737,-190.11"/>
<polygon fill="green" stroke="green" points="908.145,-189.292 902.877,-180.1 901.263,-190.571 908.145,-189.292"/>
</g>
<!-- BMP4 -->
<g id="node28" class="node"><title>BMP4</title>
<ellipse fill="#f5f6f3" stroke="black" cx="808.697" cy="-378" rx="39.7935" ry="18"/>
<text text-anchor="middle" x="808.697" y="-374.3" font-family="Times,serif" font-size="14.00">BMP4</text>
</g>
<!-- BMP4&#45;&gt;TGFBR2 -->
<g id="edge38" class="edge"><title>BMP4&#45;&gt;TGFBR2</title>
<path fill="none" stroke="green" d="M787.247,-362.83C771.997,-352.76 751.267,-339.08 734.157,-327.77"/>
<polygon fill="green" stroke="green" points="735.86,-324.7 725.587,-322.11 732.002,-330.542 735.86,-324.7"/>
</g>
<!-- BMP4&#45;&gt;TGFBR1 -->
<g id="edge39" class="edge"><title>BMP4&#45;&gt;TGFBR1</title>
<path fill="none" stroke="green" d="M811.667,-359.7C812.987,-351.98 814.577,-342.71 816.047,-334.11"/>
<polygon fill="green" stroke="green" points="819.523,-334.548 817.767,-324.1 812.624,-333.363 819.523,-334.548"/>
</g>
<!-- SMURF1 -->
<g id="node29" class="node"><title>SMURF1</title>
<ellipse fill="#eca5ce" stroke="black" cx="587.697" cy="-378" rx="52.7911" ry="18"/>
<text text-anchor="middle" x="587.697" y="-374.3" font-family="Times,serif" font-size="14.00">SMURF1</text>
</g>
<!-- SMURF1&#45;&gt;TGFBR2 -->
<g id="edge40" class="edge"><title>SMURF1&#45;&gt;TGFBR2</title>
<path fill="none" stroke="red" d="M612.367,-361.98C629.157,-351.76 651.557,-338.13 669.857,-326.99"/>
<polygon fill="red" stroke="red" points="671.744,-329.939 678.467,-321.75 668.105,-323.959 671.744,-329.939"/>
</g>
<!-- SMURF1&#45;&gt;TGFBR1 -->
<g id="edge41" class="edge"><title>SMURF1&#45;&gt;TGFBR1</title>
<path fill="none" stroke="red" d="M625.647,-365.6C666.087,-353.45 730.157,-334.2 773.737,-321.11"/>
<polygon fill="red" stroke="red" points="774.956,-324.398 783.527,-318.17 772.943,-317.694 774.956,-324.398"/>
</g>
<!-- SMURF1&#45;&gt;SMAD2 -->
<g id="edge42" class="edge"><title>SMURF1&#45;&gt;SMAD2</title>
<path fill="none" stroke="red" d="M567.947,-360.98C557.637,-351.42 545.917,-338.35 539.697,-324 509.677,-254.67 513.267,-162.97 517.467,-118.09"/>
<polygon fill="red" stroke="red" points="520.965,-118.283 518.497,-107.98 514.001,-117.574 520.965,-118.283"/>
</g>
<!-- SMURF1&#45;&gt;TRAF7 -->
<g id="edge43" class="edge"><title>SMURF1&#45;&gt;TRAF7</title>
<path fill="none" stroke="green" d="M588.437,-359.7C588.767,-351.98 589.167,-342.71 589.537,-334.11"/>
<polygon fill="green" stroke="green" points="593.034,-334.241 589.967,-324.1 586.041,-333.941 593.034,-334.241"/>
</g>
<!-- UBB -->
<g id="node30" class="node"><title>UBB</title>
<ellipse fill="#f7f3f5" stroke="black" cx="1134.7" cy="-162" rx="31.6951" ry="18"/>
<text text-anchor="middle" x="1134.7" y="-158.3" font-family="Times,serif" font-size="14.00">UBB</text>
</g>
<!-- UBB&#45;&gt;SMAD3 -->
<g id="edge44" class="edge"><title>UBB&#45;&gt;SMAD3</title>
<path fill="none" stroke="red" d="M1116.7,-147.17C1103.9,-137.31 1086.4,-123.86 1071.8,-112.6"/>
<polygon fill="red" stroke="red" points="1073.57,-109.549 1063.5,-106.26 1069.32,-115.112 1073.57,-109.549"/>
</g>
<!-- ACTB -->
<g id="node31" class="node"><title>ACTB</title>
<ellipse fill="#fbe5f0" stroke="black" cx="37.6967" cy="-162" rx="37.8943" ry="18"/>
<text text-anchor="middle" x="37.6967" y="-158.3" font-family="Times,serif" font-size="14.00">ACTB</text>
</g>
<!-- ACTB&#45;&gt;SMAD2 -->
<g id="edge45" class="edge"><title>ACTB&#45;&gt;SMAD2</title>
<path fill="none" stroke="green" d="M65.7147,-149.7C71.8887,-147.54 78.4507,-145.49 84.6967,-144 219.097,-111.96 381.657,-98.725 465.197,-93.725"/>
<polygon fill="green" stroke="green" points="465.447,-97.2165 475.227,-93.142 465.04,-90.2283 465.447,-97.2165"/>
</g>
<!-- FLNC -->
<g id="node32" class="node"><title>FLNC</title>
<ellipse fill="#e4f4cd" stroke="black" cx="132.697" cy="-162" rx="38.9931" ry="18"/>
<text text-anchor="middle" x="132.697" y="-158.3" font-family="Times,serif" font-size="14.00">FLNC</text>
</g>
<!-- FLNC&#45;&gt;SMAD2 -->
<g id="edge46" class="edge"><title>FLNC&#45;&gt;SMAD2</title>
<path fill="none" stroke="green" d="M161.367,-149.87C167.667,-147.7 174.357,-145.6 180.697,-144 279.997,-118.91 398.787,-103.65 466.427,-96.314"/>
<polygon fill="green" stroke="green" points="466.855,-99.7883 476.427,-95.246 466.111,-92.8278 466.855,-99.7883"/>
</g>
</g>
</svg>
