<?xml version="1.0" encoding="UTF-8" standalone="no"?>
<!DOCTYPE svg PUBLIC "-//W3C//DTD SVG 1.1//EN"
 "http://www.w3.org/Graphics/SVG/1.1/DTD/svg11.dtd">
<!-- Generated by graphviz version 2.26.3 (20100126.1600)
 -->
<!-- Title: _anonymous_0 Pages: 1 -->
<svg width="3494pt" height="342pt"
 viewBox="0.00 0.00 3494.00 342.00" xmlns="http://www.w3.org/2000/svg" xmlns:xlink="http://www.w3.org/1999/xlink">
<g id="graph1" class="graph" transform="scale(1 1) rotate(0) translate(4 338)">
<title>_anonymous_0</title>
<polygon fill="white" stroke="white" points="-4,5 -4,-338 3491,-338 3491,5 -4,5"/>
<!-- SARS2 -->
<g id="node1" class="node"><title>SARS2</title>
<ellipse fill="#fad6ea" stroke="black" cx="44" cy="-93" rx="43.7762" ry="18.5"/>
<text text-anchor="middle" x="44" y="-89.4" font-family="Times Roman,serif" font-size="14.00">SARS2</text>
</g>
<!-- tRNA charging -->
<g id="node2" class="node"><title>tRNA charging</title>
<ellipse fill="grey" stroke="black" cx="1696" cy="-19" rx="82" ry="18.5"/>
<text text-anchor="middle" x="1696" y="-15.4" font-family="Times Roman,serif" font-size="14.00">tRNA charging</text>
</g>
<!-- SARS2&#45;&gt;tRNA charging -->
<g id="edge2" class="edge"><title>SARS2&#45;&gt;tRNA charging</title>
<path fill="none" stroke="green" d="M75.503,-79.909C82.47,-77.523 89.896,-75.361 97,-74 244.63,-45.715 1285.8,-25.94 1603.9,-20.506"/>
<polygon fill="green" stroke="green" points="1604.06,-24.0039 1614,-20.335 1603.94,-17.0049 1604.06,-24.0039"/>
</g>
<!-- tRNA charging&#45;&gt;tRNA charging -->
<g id="edge4" class="edge"><title>tRNA charging&#45;&gt;tRNA charging</title>
<path fill="none" stroke="green" d="M1751.3,-32.697C1775.3,-33.864 1796,-29.298 1796,-19 1796,-10.191 1780.9,-5.576 1761.4,-5.1565"/>
<polygon fill="green" stroke="green" points="1761.25,-1.65824 1751.3,-5.3031 1761.35,-8.6575 1761.25,-1.65824"/>
</g>
<!-- KARS -->
<g id="node5" class="node"><title>KARS</title>
<ellipse fill="#eaf5db" stroke="black" cx="634" cy="-93" rx="38" ry="18.5"/>
<text text-anchor="middle" x="634" y="-89.4" font-family="Times Roman,serif" font-size="14.00">KARS</text>
</g>
<!-- KARS&#45;&gt;tRNA charging -->
<g id="edge6" class="edge"><title>KARS&#45;&gt;tRNA charging</title>
<path fill="none" stroke="green" d="M661.6,-80.089C667.86,-77.66 674.56,-75.435 681,-74 855.22,-35.195 1387.9,-23.375 1603.7,-20.123"/>
<polygon fill="green" stroke="green" points="1603.85,-23.6212 1613.8,-19.974 1603.75,-16.622 1603.85,-23.6212"/>
</g>
<!-- AARS -->
<g id="node7" class="node"><title>AARS</title>
<ellipse fill="#eff6e6" stroke="black" cx="241" cy="-93" rx="38.8562" ry="18.5"/>
<text text-anchor="middle" x="241" y="-89.4" font-family="Times Roman,serif" font-size="14.00">AARS</text>
</g>
<!-- AARS&#45;&gt;tRNA charging -->
<g id="edge8" class="edge"><title>AARS&#45;&gt;tRNA charging</title>
<path fill="none" stroke="green" d="M269.19,-80.018C275.58,-77.594 282.42,-75.388 289,-74 416.8,-47.03 1311.8,-26.759 1604,-20.798"/>
<polygon fill="green" stroke="green" points="1604.17,-24.2953 1614.1,-20.592 1604.03,-17.2967 1604.17,-24.2953"/>
</g>
<!-- EARS2 -->
<g id="node9" class="node"><title>EARS2</title>
<ellipse fill="#f9d3e8" stroke="black" cx="342" cy="-93" rx="43.7762" ry="18.5"/>
<text text-anchor="middle" x="342" y="-89.4" font-family="Times Roman,serif" font-size="14.00">EARS2</text>
</g>
<!-- EARS2&#45;&gt;tRNA charging -->
<g id="edge10" class="edge"><title>EARS2&#45;&gt;tRNA charging</title>
<path fill="none" stroke="green" d="M373.51,-79.951C380.48,-77.563 387.9,-75.389 395,-74 512.59,-50.991 1327.7,-28.371 1604.4,-21.276"/>
<polygon fill="green" stroke="green" points="1604.49,-24.7749 1614.4,-21.02 1604.31,-17.7772 1604.49,-24.7749"/>
</g>
<!-- FARS2 -->
<g id="node11" class="node"><title>FARS2</title>
<ellipse fill="#faeaf2" stroke="black" cx="447" cy="-93" rx="43" ry="18.5"/>
<text text-anchor="middle" x="447" y="-89.4" font-family="Times Roman,serif" font-size="14.00">FARS2</text>
</g>
<!-- FARS2&#45;&gt;tRNA charging -->
<g id="edge12" class="edge"><title>FARS2&#45;&gt;tRNA charging</title>
<path fill="none" stroke="green" d="M477.9,-79.968C484.74,-77.578 492.03,-75.4 499,-74 709.88,-31.667 1361.1,-21.838 1603.7,-19.623"/>
<polygon fill="green" stroke="green" points="1603.93,-23.1212 1613.9,-19.532 1603.87,-16.1214 1603.93,-23.1212"/>
</g>
<!-- DARS -->
<g id="node13" class="node"><title>DARS</title>
<ellipse fill="#f7cee6" stroke="black" cx="145" cy="-93" rx="38.8562" ry="18.5"/>
<text text-anchor="middle" x="145" y="-89.4" font-family="Times Roman,serif" font-size="14.00">DARS</text>
</g>
<!-- DARS&#45;&gt;tRNA charging -->
<g id="edge14" class="edge"><title>DARS&#45;&gt;tRNA charging</title>
<path fill="none" stroke="green" d="M173.19,-80.006C179.58,-77.582 186.42,-75.38 193,-74 330.47,-45.166 1298.7,-25.946 1604,-20.55"/>
<polygon fill="green" stroke="green" points="1604.26,-24.046 1614.2,-20.371 1604.14,-17.0471 1604.26,-24.046"/>
</g>
<!-- AIMP2 -->
<g id="node15" class="node"><title>AIMP2</title>
<ellipse fill="#f7cee6" stroke="black" cx="788" cy="-315" rx="43" ry="18.5"/>
<text text-anchor="middle" x="788" y="-311.4" font-family="Times Roman,serif" font-size="14.00">AIMP2</text>
</g>
<!-- AIMP2&#45;&gt;KARS -->
<g id="edge22" class="edge"><title>AIMP2&#45;&gt;KARS</title>
<path fill="none" stroke="green" d="M753.62,-303.88C731.7,-295.16 704.28,-280.95 687,-260 653.67,-219.6 641.2,-157.99 636.61,-121.99"/>
<polygon fill="green" stroke="green" points="640.045,-121.222 635.42,-111.69 633.091,-122.026 640.045,-121.222"/>
</g>
<!-- AIMP2&#45;&gt;DARS -->
<g id="edge18" class="edge"><title>AIMP2&#45;&gt;DARS</title>
<path fill="none" stroke="green" d="M748.92,-307.02C667.95,-289.88 476.67,-246.13 324,-186 271.06,-165.15 213.21,-133.3 178.01,-112.82"/>
<polygon fill="green" stroke="green" points="179.535,-109.657 169.14,-107.61 175.99,-115.693 179.535,-109.657"/>
</g>
<!-- AIMP1 -->
<g id="node16" class="node"><title>AIMP1</title>
<ellipse fill="#f8f2f5" stroke="black" cx="824" cy="-167" rx="43" ry="18.5"/>
<text text-anchor="middle" x="824" y="-163.4" font-family="Times Roman,serif" font-size="14.00">AIMP1</text>
</g>
<!-- AIMP2&#45;&gt;AIMP1 -->
<g id="edge16" class="edge"><title>AIMP2&#45;&gt;AIMP1</title>
<path fill="none" stroke="green" d="M785.37,-296.47C787.25,-285.83 790.96,-272.2 794,-260 799.44,-238.18 805.02,-213.33 810.4,-194.81"/>
<polygon fill="green" stroke="green" points="813.752,-195.818 813.37,-185.23 807.066,-193.745 813.752,-195.818"/>
</g>
<!-- QARS -->
<g id="node19" class="node"><title>QARS</title>
<ellipse fill="#f7f6f6" stroke="black" cx="1013" cy="-93" rx="38.8562" ry="18.5"/>
<text text-anchor="middle" x="1013" y="-89.4" font-family="Times Roman,serif" font-size="14.00">QARS</text>
</g>
<!-- AIMP2&#45;&gt;QARS -->
<g id="edge20" class="edge"><title>AIMP2&#45;&gt;QARS</title>
<path fill="none" stroke="green" d="M810.17,-299.13C841.55,-276.12 899.9,-231.26 943,-186 962.94,-165.06 982.46,-138.47 995.8,-119.1"/>
<polygon fill="green" stroke="green" points="998.753,-120.982 1001.5,-110.75 992.971,-117.036 998.753,-120.982"/>
</g>
<!-- DARS2 -->
<g id="node22" class="node"><title>DARS2</title>
<ellipse fill="#fad8eb" stroke="black" cx="1170" cy="-241" rx="46" ry="18.5"/>
<text text-anchor="middle" x="1170" y="-237.4" font-family="Times Roman,serif" font-size="14.00">DARS2</text>
</g>
<!-- AIMP2&#45;&gt;DARS2 -->
<g id="edge24" class="edge"><title>AIMP2&#45;&gt;DARS2</title>
<path fill="none" stroke="green" d="M829.4,-309.69C890.89,-301.41 1009.8,-283.84 1109,-260 1114.1,-258.78 1119.3,-257.38 1124.5,-255.89"/>
<polygon fill="green" stroke="green" points="1125.81,-259.152 1134.4,-252.95 1123.82,-252.442 1125.81,-259.152"/>
</g>
<!-- IARS -->
<g id="node24" class="node"><title>IARS</title>
<ellipse fill="#fbe5f1" stroke="black" cx="543" cy="-93" rx="35.1378" ry="18.5"/>
<text text-anchor="middle" x="543" y="-89.4" font-family="Times Roman,serif" font-size="14.00">IARS</text>
</g>
<!-- AIMP2&#45;&gt;IARS -->
<g id="edge26" class="edge"><title>AIMP2&#45;&gt;IARS</title>
<path fill="none" stroke="green" d="M751.45,-305.25C724.14,-296.63 687.02,-281.97 660,-260 611.59,-220.63 574.38,-156.32 555.9,-120.06"/>
<polygon fill="green" stroke="green" points="558.996,-118.426 551.39,-111.05 552.736,-121.559 558.996,-118.426"/>
</g>
<!-- EPRS -->
<g id="node26" class="node"><title>EPRS</title>
<ellipse fill="#eba4cd" stroke="black" cx="1107" cy="-93" rx="37.2461" ry="18.5"/>
<text text-anchor="middle" x="1107" y="-89.4" font-family="Times Roman,serif" font-size="14.00">EPRS</text>
</g>
<!-- AIMP2&#45;&gt;EPRS -->
<g id="edge28" class="edge"><title>AIMP2&#45;&gt;EPRS</title>
<path fill="none" stroke="green" d="M817.95,-301.72C840.31,-291.36 871.31,-276.09 897,-260 968.32,-215.34 1043.6,-150.55 1081.7,-116.28"/>
<polygon fill="green" stroke="green" points="1084.16,-118.771 1089.2,-109.45 1079.45,-113.595 1084.16,-118.771"/>
</g>
<!-- EEF1E1 -->
<g id="node28" class="node"><title>EEF1E1</title>
<ellipse fill="#f5c4e1" stroke="black" cx="745" cy="-241" rx="49.193" ry="18.5"/>
<text text-anchor="middle" x="745" y="-237.4" font-family="Times Roman,serif" font-size="14.00">EEF1E1</text>
</g>
<!-- AIMP2&#45;&gt;EEF1E1 -->
<g id="edge30" class="edge"><title>AIMP2&#45;&gt;EEF1E1</title>
<path fill="none" stroke="green" d="M771.97,-297.46C766.03,-288.78 759.59,-278.1 754.37,-268.38"/>
<polygon fill="green" stroke="green" points="757.465,-266.744 749.79,-259.44 751.235,-269.936 757.465,-266.744"/>
</g>
<!-- AIMP1&#45;&gt;KARS -->
<g id="edge60" class="edge"><title>AIMP1&#45;&gt;KARS</title>
<path fill="none" stroke="green" d="M791.57,-154.71C762.54,-143.66 718.86,-126.93 681,-112 678.31,-110.94 675.54,-109.84 672.76,-108.73"/>
<polygon fill="green" stroke="green" points="673.884,-105.41 663.3,-104.94 671.281,-111.908 673.884,-105.41"/>
</g>
<!-- AIMP1&#45;&gt;DARS -->
<g id="edge54" class="edge"><title>AIMP1&#45;&gt;DARS</title>
<path fill="none" stroke="green" d="M781.09,-164.88C657.99,-158.55 305.37,-138.54 193,-112 189.77,-111.24 186.48,-110.3 183.2,-109.25"/>
<polygon fill="green" stroke="green" points="184.095,-105.855 173.5,-105.84 181.773,-112.458 184.095,-105.855"/>
</g>
<!-- AIMP1&#45;&gt;AIMP2 -->
<g id="edge72" class="edge"><title>AIMP1&#45;&gt;AIMP2</title>
<path fill="none" stroke="green" d="M826.86,-185.58C825,-204.4 818.4,-234.3 812,-260 809.74,-269.07 807.11,-278.94 804.23,-287.77"/>
<polygon fill="green" stroke="green" points="800.922,-286.625 800.89,-297.22 807.522,-288.958 800.922,-286.625"/>
</g>
<!-- AIMP1&#45;&gt;QARS -->
<g id="edge58" class="edge"><title>AIMP1&#45;&gt;QARS</title>
<path fill="none" stroke="green" d="M855.94,-154.59C884.53,-143.48 927.58,-126.7 965,-112 967.83,-110.89 970.75,-109.74 973.69,-108.58"/>
<polygon fill="green" stroke="green" points="975.037,-111.811 983.05,-104.88 972.464,-105.301 975.037,-111.811"/>
</g>
<!-- AIMP1&#45;&gt;IARS -->
<g id="edge66" class="edge"><title>AIMP1&#45;&gt;IARS</title>
<path fill="none" stroke="green" d="M783.98,-159.99C736.38,-151.13 654.81,-134.31 587,-112 584.42,-111.15 581.79,-110.21 579.15,-109.22"/>
<polygon fill="green" stroke="green" points="580.285,-105.904 569.7,-105.44 577.685,-112.404 580.285,-105.904"/>
</g>
<!-- AIMP1&#45;&gt;EPRS -->
<g id="edge68" class="edge"><title>AIMP1&#45;&gt;EPRS</title>
<path fill="none" stroke="green" d="M863.96,-159.8C911.51,-150.76 993.02,-133.77 1061,-112 1063.8,-111.11 1066.6,-110.13 1069.5,-109.09"/>
<polygon fill="green" stroke="green" points="1071.02,-112.255 1079.1,-105.4 1068.51,-105.721 1071.02,-112.255"/>
</g>
<!-- AIMP1&#45;&gt;EEF1E1 -->
<g id="edge70" class="edge"><title>AIMP1&#45;&gt;EEF1E1</title>
<path fill="none" stroke="green" d="M810.99,-184.67C801.4,-194.61 788.18,-207.13 776.03,-217.84"/>
<polygon fill="green" stroke="green" points="773.516,-215.387 768.25,-224.58 778.1,-220.678 773.516,-215.387"/>
</g>
<!-- LARS -->
<g id="node32" class="node"><title>LARS</title>
<ellipse fill="#f2badc" stroke="black" cx="727" cy="-93" rx="37.2461" ry="18.5"/>
<text text-anchor="middle" x="727" y="-89.4" font-family="Times Roman,serif" font-size="14.00">LARS</text>
</g>
<!-- AIMP1&#45;&gt;LARS -->
<g id="edge56" class="edge"><title>AIMP1&#45;&gt;LARS</title>
<path fill="none" stroke="green" d="M802.47,-150.58C788.63,-140.01 770.48,-126.17 755.45,-114.71"/>
<polygon fill="green" stroke="green" points="757.543,-111.904 747.47,-108.62 753.296,-117.469 757.543,-111.904"/>
</g>
<!-- RARS -->
<g id="node36" class="node"><title>RARS</title>
<ellipse fill="#f9d3e8" stroke="black" cx="918" cy="-93" rx="38" ry="18.5"/>
<text text-anchor="middle" x="918" y="-89.4" font-family="Times Roman,serif" font-size="14.00">RARS</text>
</g>
<!-- AIMP1&#45;&gt;RARS -->
<g id="edge62" class="edge"><title>AIMP1&#45;&gt;RARS</title>
<path fill="none" stroke="green" d="M844.86,-150.58C858.06,-140.18 875.3,-126.61 889.73,-115.26"/>
<polygon fill="green" stroke="green" points="892.151,-117.808 897.84,-108.87 887.819,-112.31 892.151,-117.808"/>
</g>
<!-- MARS -->
<g id="node38" class="node"><title>MARS</title>
<ellipse fill="#a30b62" stroke="black" cx="822" cy="-93" rx="40.0571" ry="18.5"/>
<text text-anchor="middle" x="822" y="-89.4" font-family="Times Roman,serif" font-size="14.00">MARS</text>
</g>
<!-- AIMP1&#45;&gt;MARS -->
<g id="edge64" class="edge"><title>AIMP1&#45;&gt;MARS</title>
<path fill="none" stroke="green" d="M823.5,-148.33C823.28,-140.26 823.02,-130.65 822.78,-121.71"/>
<polygon fill="green" stroke="green" points="826.278,-121.569 822.5,-111.67 819.28,-121.764 826.278,-121.569"/>
</g>
<!-- QARS&#45;&gt;tRNA charging -->
<g id="edge78" class="edge"><title>QARS&#45;&gt;tRNA charging</title>
<path fill="none" stroke="green" d="M1041.5,-80.154C1047.8,-77.753 1054.5,-75.523 1061,-74 1162,-50.174 1455.9,-31.737 1605.8,-23.582"/>
<polygon fill="green" stroke="green" points="1606.1,-27.0708 1615.9,-23.036 1605.73,-20.081 1606.1,-27.0708"/>
</g>
<!-- DARS2&#45;&gt;tRNA charging -->
<g id="edge76" class="edge"><title>DARS2&#45;&gt;tRNA charging</title>
<path fill="none" stroke="green" d="M1165.8,-222.55C1159.2,-188 1150.9,-113.44 1191,-74 1219.9,-45.569 1467.9,-29.603 1605.3,-22.865"/>
<polygon fill="green" stroke="green" points="1605.58,-26.3556 1615.4,-22.377 1605.24,-19.3638 1605.58,-26.3556"/>
</g>
<!-- IARS&#45;&gt;tRNA charging -->
<g id="edge52" class="edge"><title>IARS&#45;&gt;tRNA charging</title>
<path fill="none" stroke="green" d="M568.53,-80.155C574.46,-77.69 580.84,-75.433 587,-74 684.69,-51.272 1356.5,-29.149 1604.4,-21.667"/>
<polygon fill="green" stroke="green" points="1604.51,-25.1654 1614.4,-21.365 1604.3,-18.1686 1604.51,-25.1654"/>
</g>
<!-- EPRS&#45;&gt;tRNA charging -->
<g id="edge74" class="edge"><title>EPRS&#45;&gt;tRNA charging</title>
<path fill="none" stroke="green" d="M1135.5,-80.941C1142.7,-78.28 1150.5,-75.739 1158,-74 1311.9,-38.087 1496,-25.623 1604.1,-21.298"/>
<polygon fill="green" stroke="green" points="1604.44,-24.7875 1614.3,-20.904 1604.17,-17.7927 1604.44,-24.7875"/>
</g>
<!-- EEF1E1&#45;&gt;KARS -->
<g id="edge40" class="edge"><title>EEF1E1&#45;&gt;KARS</title>
<path fill="none" stroke="green" d="M731.61,-223.15C712.09,-197.12 675.7,-148.6 653.29,-118.72"/>
<polygon fill="green" stroke="green" points="655.892,-116.357 647.09,-110.46 650.294,-120.559 655.892,-116.357"/>
</g>
<!-- EEF1E1&#45;&gt;DARS -->
<g id="edge34" class="edge"><title>EEF1E1&#45;&gt;DARS</title>
<path fill="none" stroke="green" d="M700.76,-232.96C606.32,-215.31 378.5,-170.04 193,-112 189.92,-111.04 186.76,-109.97 183.6,-108.84"/>
<polygon fill="green" stroke="green" points="184.793,-105.55 174.2,-105.35 182.356,-112.112 184.793,-105.55"/>
</g>
<!-- EEF1E1&#45;&gt;AIMP2 -->
<g id="edge50" class="edge"><title>EEF1E1&#45;&gt;AIMP2</title>
<path fill="none" stroke="green" d="M761.11,-258.65C766.93,-267.17 773.23,-277.6 778.39,-287.16"/>
<polygon fill="green" stroke="green" points="775.418,-289.034 783.1,-296.33 781.644,-285.836 775.418,-289.034"/>
</g>
<!-- EEF1E1&#45;&gt;AIMP1 -->
<g id="edge32" class="edge"><title>EEF1E1&#45;&gt;AIMP1</title>
<path fill="none" stroke="green" d="M758.25,-223.09C767.95,-213.05 781.28,-200.44 793.47,-189.71"/>
<polygon fill="green" stroke="green" points="795.974,-192.172 801.26,-182.99 791.402,-186.872 795.974,-192.172"/>
</g>
<!-- EEF1E1&#45;&gt;QARS -->
<g id="edge38" class="edge"><title>EEF1E1&#45;&gt;QARS</title>
<path fill="none" stroke="green" d="M786.37,-231.08C819.32,-222.15 865.91,-207.16 903,-186 936.08,-167.13 968.73,-137.8 989.76,-117.13"/>
<polygon fill="green" stroke="green" points="992.357,-119.483 996.96,-109.94 987.411,-114.53 992.357,-119.483"/>
</g>
<!-- EEF1E1&#45;&gt;IARS -->
<g id="edge46" class="edge"><title>EEF1E1&#45;&gt;IARS</title>
<path fill="none" stroke="green" d="M722.22,-224.31C685.23,-197.21 612.17,-143.68 571.69,-114.02"/>
<polygon fill="green" stroke="green" points="573.705,-111.157 563.57,-108.07 569.568,-116.804 573.705,-111.157"/>
</g>
<!-- EEF1E1&#45;&gt;EPRS -->
<g id="edge48" class="edge"><title>EEF1E1&#45;&gt;EPRS</title>
<path fill="none" stroke="green" d="M788.5,-232.15C829.32,-223.09 891.6,-207.33 943,-186 991.77,-165.76 1044.2,-134.09 1076.3,-113.44"/>
<polygon fill="green" stroke="green" points="1078.31,-116.306 1084.8,-107.93 1074.5,-110.433 1078.31,-116.306"/>
</g>
<!-- EEF1E1&#45;&gt;LARS -->
<g id="edge36" class="edge"><title>EEF1E1&#45;&gt;LARS</title>
<path fill="none" stroke="green" d="M742.72,-222.26C739.64,-196.9 734.11,-151.44 730.5,-121.75"/>
<polygon fill="green" stroke="green" points="733.946,-121.092 729.26,-111.59 726.997,-121.94 733.946,-121.092"/>
</g>
<!-- EEF1E1&#45;&gt;RARS -->
<g id="edge42" class="edge"><title>EEF1E1&#45;&gt;RARS</title>
<path fill="none" stroke="green" d="M787.6,-231.76C815.71,-223.77 851.7,-209.66 876,-186 894.13,-168.34 905.11,-141.43 911.27,-121.09"/>
<polygon fill="green" stroke="green" points="914.651,-121.994 913.99,-111.42 907.913,-120.099 914.651,-121.994"/>
</g>
<!-- EEF1E1&#45;&gt;MARS -->
<g id="edge44" class="edge"><title>EEF1E1&#45;&gt;MARS</title>
<path fill="none" stroke="green" d="M747.87,-222.21C751.42,-202.7 758.7,-171.77 772,-148 778.3,-136.74 787.31,-125.88 795.95,-116.83"/>
<polygon fill="green" stroke="green" points="798.481,-119.249 803.05,-109.69 793.517,-114.313 798.481,-119.249"/>
</g>
<!-- LARS&#45;&gt;tRNA charging -->
<g id="edge80" class="edge"><title>LARS&#45;&gt;tRNA charging</title>
<path fill="none" stroke="green" d="M753.75,-80.208C759.95,-77.74 766.6,-75.469 773,-74 929.09,-38.174 1402.6,-24.783 1603.9,-20.618"/>
<polygon fill="green" stroke="green" points="1604.17,-24.1132 1614.1,-20.409 1604.03,-17.1147 1604.17,-24.1132"/>
</g>
<!-- RARS&#45;&gt;tRNA charging -->
<g id="edge84" class="edge"><title>RARS&#45;&gt;tRNA charging</title>
<path fill="none" stroke="green" d="M945.62,-80.19C951.88,-77.755 958.57,-75.503 965,-74 1084.2,-46.143 1436.9,-29.1 1604.9,-22.345"/>
<polygon fill="green" stroke="green" points="1605.15,-25.8381 1615,-21.944 1604.87,-18.8436 1605.15,-25.8381"/>
</g>
<!-- MARS&#45;&gt;tRNA charging -->
<g id="edge82" class="edge"><title>MARS&#45;&gt;tRNA charging</title>
<path fill="none" stroke="green" d="M850.83,-80.159C857.35,-77.726 864.32,-75.482 871,-74 1008.5,-43.517 1419.7,-27.456 1604.4,-21.613"/>
<polygon fill="green" stroke="green" points="1604.71,-25.1049 1614.6,-21.293 1604.5,-18.1084 1604.71,-25.1049"/>
</g>
<!-- CARS2 -->
<g id="node60" class="node"><title>CARS2</title>
<ellipse fill="#f9d5e9" stroke="black" cx="1245" cy="-93" rx="45" ry="18.5"/>
<text text-anchor="middle" x="1245" y="-89.4" font-family="Times Roman,serif" font-size="14.00">CARS2</text>
</g>
<!-- CARS2&#45;&gt;tRNA charging -->
<g id="edge86" class="edge"><title>CARS2&#45;&gt;tRNA charging</title>
<path fill="none" stroke="green" d="M1277.8,-80.278C1284.7,-77.928 1292,-75.687 1299,-74 1403.7,-48.594 1527,-33.798 1608.1,-26.073"/>
<polygon fill="green" stroke="green" points="1608.67,-29.5352 1618.3,-25.121 1608.02,-22.5655 1608.67,-29.5352"/>
</g>
<!-- DTD1 -->
<g id="node62" class="node"><title>DTD1</title>
<ellipse fill="#f9d5e9" stroke="black" cx="1348" cy="-93" rx="40.0571" ry="18.5"/>
<text text-anchor="middle" x="1348" y="-89.4" font-family="Times Roman,serif" font-size="14.00">DTD1</text>
</g>
<!-- DTD1&#45;&gt;tRNA charging -->
<g id="edge88" class="edge"><title>DTD1&#45;&gt;tRNA charging</title>
<path fill="none" stroke="green" d="M1377.8,-80.437C1384,-78.076 1390.7,-75.79 1397,-74 1469.5,-53.467 1554.2,-38.728 1614.9,-29.707"/>
<polygon fill="green" stroke="green" points="1615.41,-33.1691 1624.8,-28.254 1614.4,-26.2433 1615.41,-33.1691"/>
</g>
<!-- NARS -->
<g id="node64" class="node"><title>NARS</title>
<ellipse fill="#d965a4" stroke="black" cx="1445" cy="-93" rx="38.8562" ry="18.5"/>
<text text-anchor="middle" x="1445" y="-89.4" font-family="Times Roman,serif" font-size="14.00">NARS</text>
</g>
<!-- NARS&#45;&gt;tRNA charging -->
<g id="edge90" class="edge"><title>NARS&#45;&gt;tRNA charging</title>
<path fill="none" stroke="green" d="M1474.5,-80.717C1480.6,-78.361 1487,-76.006 1493,-74 1538,-59.036 1589.7,-45.089 1629.6,-34.983"/>
<polygon fill="green" stroke="green" points="1630.65,-38.3273 1639.5,-32.498 1628.95,-31.538 1630.65,-38.3273"/>
</g>
<!-- LARS2 -->
<g id="node66" class="node"><title>LARS2</title>
<ellipse fill="#f7f5f6" stroke="black" cx="1546" cy="-93" rx="44" ry="18.5"/>
<text text-anchor="middle" x="1546" y="-89.4" font-family="Times Roman,serif" font-size="14.00">LARS2</text>
</g>
<!-- LARS2&#45;&gt;tRNA charging -->
<g id="edge92" class="edge"><title>LARS2&#45;&gt;tRNA charging</title>
<path fill="none" stroke="green" d="M1574.6,-78.907C1596.7,-68.001 1627.7,-52.719 1652.8,-40.319"/>
<polygon fill="green" stroke="green" points="1654.37,-43.4472 1661.8,-35.894 1651.28,-37.1654 1654.37,-43.4472"/>
</g>
<!-- HARS -->
<g id="node68" class="node"><title>HARS</title>
<ellipse fill="#f2badc" stroke="black" cx="1647" cy="-93" rx="38.8562" ry="18.5"/>
<text text-anchor="middle" x="1647" y="-89.4" font-family="Times Roman,serif" font-size="14.00">HARS</text>
</g>
<!-- HARS&#45;&gt;tRNA charging -->
<g id="edge94" class="edge"><title>HARS&#45;&gt;tRNA charging</title>
<path fill="none" stroke="green" d="M1658.9,-75.087C1664.6,-66.375 1671.7,-55.72 1678.1,-46.046"/>
<polygon fill="green" stroke="green" points="1681.13,-47.8007 1683.7,-37.521 1675.28,-43.9574 1681.13,-47.8007"/>
</g>
<!-- IARS2 -->
<g id="node70" class="node"><title>IARS2</title>
<ellipse fill="#fbdbec" stroke="black" cx="1745" cy="-93" rx="40.9631" ry="18.5"/>
<text text-anchor="middle" x="1745" y="-89.4" font-family="Times Roman,serif" font-size="14.00">IARS2</text>
</g>
<!-- IARS2&#45;&gt;tRNA charging -->
<g id="edge96" class="edge"><title>IARS2&#45;&gt;tRNA charging</title>
<path fill="none" stroke="green" d="M1733.1,-75.087C1727.4,-66.375 1720.3,-55.72 1713.9,-46.046"/>
<polygon fill="green" stroke="green" points="1716.72,-43.9574 1708.3,-37.521 1710.87,-47.8007 1716.72,-43.9574"/>
</g>
<!-- VARS -->
<g id="node72" class="node"><title>VARS</title>
<ellipse fill="#f5c4e1" stroke="black" cx="1842" cy="-93" rx="38" ry="18.5"/>
<text text-anchor="middle" x="1842" y="-89.4" font-family="Times Roman,serif" font-size="14.00">VARS</text>
</g>
<!-- VARS&#45;&gt;tRNA charging -->
<g id="edge98" class="edge"><title>VARS&#45;&gt;tRNA charging</title>
<path fill="none" stroke="green" d="M1815.6,-79.599C1794.1,-68.741 1763.5,-53.23 1738.7,-40.619"/>
<polygon fill="green" stroke="green" points="1739.91,-37.3082 1729.4,-35.943 1736.76,-43.5622 1739.91,-37.3082"/>
</g>
<!-- TARSL2 -->
<g id="node74" class="node"><title>TARSL2</title>
<ellipse fill="#f7cce5" stroke="black" cx="1948" cy="-93" rx="50" ry="18.5"/>
<text text-anchor="middle" x="1948" y="-89.4" font-family="Times Roman,serif" font-size="14.00">TARSL2</text>
</g>
<!-- TARSL2&#45;&gt;tRNA charging -->
<g id="edge100" class="edge"><title>TARSL2&#45;&gt;tRNA charging</title>
<path fill="none" stroke="green" d="M1910.3,-80.646C1903.2,-78.392 1895.9,-76.093 1889,-74 1845.4,-60.768 1796,-46.698 1758,-36.101"/>
<polygon fill="green" stroke="green" points="1758.77,-32.683 1748.2,-33.347 1756.88,-39.422 1758.77,-32.683"/>
</g>
<!-- PARS2 -->
<g id="node76" class="node"><title>PARS2</title>
<ellipse fill="#f2f6ec" stroke="black" cx="2060" cy="-93" rx="44" ry="18.5"/>
<text text-anchor="middle" x="2060" y="-89.4" font-family="Times Roman,serif" font-size="14.00">PARS2</text>
</g>
<!-- PARS2&#45;&gt;tRNA charging -->
<g id="edge102" class="edge"><title>PARS2&#45;&gt;tRNA charging</title>
<path fill="none" stroke="green" d="M2027.5,-80.365C2020.8,-78.037 2013.7,-75.782 2007,-74 1930.2,-53.59 1840.6,-38.657 1777.4,-29.543"/>
<polygon fill="green" stroke="green" points="1777.89,-26.0781 1767.5,-28.131 1776.91,-33.008 1777.89,-26.0781"/>
</g>
<!-- WARS2 -->
<g id="node78" class="node"><title>WARS2</title>
<ellipse fill="#f7f5f6" stroke="black" cx="2170" cy="-93" rx="48" ry="18.5"/>
<text text-anchor="middle" x="2170" y="-89.4" font-family="Times Roman,serif" font-size="14.00">WARS2</text>
</g>
<!-- WARS2&#45;&gt;tRNA charging -->
<g id="edge104" class="edge"><title>WARS2&#45;&gt;tRNA charging</title>
<path fill="none" stroke="green" d="M2135,-80.179C2127.8,-77.865 2120.2,-75.663 2113,-74 2001,-48.202 1869.2,-33.339 1784.2,-25.715"/>
<polygon fill="green" stroke="green" points="1784.27,-22.2076 1774,-24.82 1783.66,-29.1808 1784.27,-22.2076"/>
</g>
<!-- MARS2 -->
<g id="node80" class="node"><title>MARS2</title>
<ellipse fill="#f5f6f3" stroke="black" cx="2282" cy="-93" rx="45.8832" ry="18.5"/>
<text text-anchor="middle" x="2282" y="-89.4" font-family="Times Roman,serif" font-size="14.00">MARS2</text>
</g>
<!-- MARS2&#45;&gt;tRNA charging -->
<g id="edge106" class="edge"><title>MARS2&#45;&gt;tRNA charging</title>
<path fill="none" stroke="green" d="M2248.6,-80.1C2241.6,-77.763 2234.1,-75.573 2227,-74 2075.1,-40.371 1894.2,-27.196 1787.5,-22.111"/>
<polygon fill="green" stroke="green" points="1787.55,-18.6097 1777.4,-21.644 1787.23,-25.6022 1787.55,-18.6097"/>
</g>
<!-- GARS -->
<g id="node82" class="node"><title>GARS</title>
<ellipse fill="#bb1675" stroke="black" cx="2385" cy="-93" rx="38.8562" ry="18.5"/>
<text text-anchor="middle" x="2385" y="-89.4" font-family="Times Roman,serif" font-size="14.00">GARS</text>
</g>
<!-- GARS&#45;&gt;tRNA charging -->
<g id="edge108" class="edge"><title>GARS&#45;&gt;tRNA charging</title>
<path fill="none" stroke="green" d="M2356.5,-80.15C2350.2,-77.749 2343.5,-75.52 2337,-74 2234.9,-49.961 1937.6,-31.591 1786.5,-23.511"/>
<polygon fill="green" stroke="green" points="1786.47,-20.0047 1776.3,-22.971 1786.1,-26.9949 1786.47,-20.0047"/>
</g>
<!-- YARS -->
<g id="node84" class="node"><title>YARS</title>
<ellipse fill="#e286b8" stroke="black" cx="2479" cy="-93" rx="37.2461" ry="18.5"/>
<text text-anchor="middle" x="2479" y="-89.4" font-family="Times Roman,serif" font-size="14.00">YARS</text>
</g>
<!-- YARS&#45;&gt;tRNA charging -->
<g id="edge110" class="edge"><title>YARS&#45;&gt;tRNA charging</title>
<path fill="none" stroke="green" d="M2451.7,-80.084C2445.7,-77.688 2439.2,-75.477 2433,-74 2312.8,-45.464 1956.4,-28.738 1787.2,-22.201"/>
<polygon fill="green" stroke="green" points="1787.23,-18.6996 1777.1,-21.813 1786.96,-25.6944 1787.23,-18.6996"/>
</g>
<!-- NARS2 -->
<g id="node86" class="node"><title>NARS2</title>
<ellipse fill="#df7cb1" stroke="black" cx="2580" cy="-93" rx="46" ry="18.5"/>
<text text-anchor="middle" x="2580" y="-89.4" font-family="Times Roman,serif" font-size="14.00">NARS2</text>
</g>
<!-- NARS2&#45;&gt;tRNA charging -->
<g id="edge112" class="edge"><title>NARS2&#45;&gt;tRNA charging</title>
<path fill="none" stroke="green" d="M2546.9,-79.994C2539.8,-77.634 2532.2,-75.461 2525,-74 2386.2,-45.954 1972.9,-28.582 1787.6,-22.003"/>
<polygon fill="green" stroke="green" points="1787.52,-18.498 1777.4,-21.642 1787.27,-25.4936 1787.52,-18.498"/>
</g>
<!-- CARS -->
<g id="node88" class="node"><title>CARS</title>
<ellipse fill="#8e0152" stroke="black" cx="2683" cy="-93" rx="39" ry="18.5"/>
<text text-anchor="middle" x="2683" y="-89.4" font-family="Times Roman,serif" font-size="14.00">CARS</text>
</g>
<!-- CARS&#45;&gt;tRNA charging -->
<g id="edge114" class="edge"><title>CARS&#45;&gt;tRNA charging</title>
<path fill="none" stroke="green" d="M2654.8,-80.114C2648.4,-77.684 2641.6,-75.452 2635,-74 2475.5,-38.707 1991.5,-24.983 1787.9,-20.673"/>
<polygon fill="green" stroke="green" points="1787.87,-17.1717 1777.8,-20.463 1787.73,-24.1702 1787.87,-17.1717"/>
</g>
<!-- WARS -->
<g id="node90" class="node"><title>WARS</title>
<ellipse fill="#900253" stroke="black" cx="2781" cy="-93" rx="40.9631" ry="18.5"/>
<text text-anchor="middle" x="2781" y="-89.4" font-family="Times Roman,serif" font-size="14.00">WARS</text>
</g>
<!-- WARS&#45;&gt;tRNA charging -->
<g id="edge116" class="edge"><title>WARS&#45;&gt;tRNA charging</title>
<path fill="none" stroke="green" d="M2751.6,-80.095C2744.9,-77.666 2737.8,-75.439 2731,-74 2552.4,-36.281 2006.7,-23.802 1788,-20.249"/>
<polygon fill="green" stroke="green" points="1787.96,-16.7479 1777.9,-20.086 1787.84,-23.747 1787.96,-16.7479"/>
</g>
<!-- YARS2 -->
<g id="node92" class="node"><title>YARS2</title>
<ellipse fill="#f9edf3" stroke="black" cx="2884" cy="-93" rx="44" ry="18.5"/>
<text text-anchor="middle" x="2884" y="-89.4" font-family="Times Roman,serif" font-size="14.00">YARS2</text>
</g>
<!-- YARS2&#45;&gt;tRNA charging -->
<g id="edge118" class="edge"><title>YARS2&#45;&gt;tRNA charging</title>
<path fill="none" stroke="green" d="M2852.5,-79.984C2845.5,-77.594 2838.1,-75.411 2831,-74 2632.4,-34.494 2022.2,-22.979 1788.5,-19.968"/>
<polygon fill="green" stroke="green" points="1788.34,-16.4659 1778.3,-19.84 1788.26,-23.4653 1788.34,-16.4659"/>
</g>
<!-- AARS2 -->
<g id="node94" class="node"><title>AARS2</title>
<ellipse fill="#f7cbe4" stroke="black" cx="2992" cy="-93" rx="46" ry="18.5"/>
<text text-anchor="middle" x="2992" y="-89.4" font-family="Times Roman,serif" font-size="14.00">AARS2</text>
</g>
<!-- AARS2&#45;&gt;tRNA charging -->
<g id="edge120" class="edge"><title>AARS2&#45;&gt;tRNA charging</title>
<path fill="none" stroke="green" d="M2959.3,-79.969C2952,-77.579 2944.3,-75.401 2937,-74 2717,-32.033 2036.8,-21.959 1788.2,-19.652"/>
<polygon fill="green" stroke="green" points="1788.13,-16.1513 1778.1,-19.561 1788.07,-23.1511 1788.13,-16.1513"/>
</g>
<!-- FARSB -->
<g id="node96" class="node"><title>FARSB</title>
<ellipse fill="#e181b5" stroke="black" cx="3138" cy="-167" rx="44" ry="18.5"/>
<text text-anchor="middle" x="3138" y="-163.4" font-family="Times Roman,serif" font-size="14.00">FARSB</text>
</g>
<!-- FARSB&#45;&gt;tRNA charging -->
<g id="edge124" class="edge"><title>FARSB&#45;&gt;tRNA charging</title>
<path fill="none" stroke="green" d="M3121.4,-149.75C3095.8,-123.16 3049.4,-75.061 3047,-74 2989.6,-48.472 2083.4,-27.176 1788.2,-20.887"/>
<polygon fill="green" stroke="green" points="1787.97,-17.3815 1777.9,-20.67 1787.82,-24.38 1787.97,-17.3815"/>
</g>
<!-- FARSA -->
<g id="node97" class="node"><title>FARSA</title>
<ellipse fill="#e795c3" stroke="black" cx="3138" cy="-93" rx="44" ry="18.5"/>
<text text-anchor="middle" x="3138" y="-89.4" font-family="Times Roman,serif" font-size="14.00">FARSA</text>
</g>
<!-- FARSB&#45;&gt;FARSA -->
<g id="edge122" class="edge"><title>FARSB&#45;&gt;FARSA</title>
<path fill="none" stroke="green" d="M3132,-148.33C3131.3,-140.2 3131.1,-130.5 3131.4,-121.51"/>
<polygon fill="green" stroke="green" points="3134.9,-121.628 3132.1,-111.41 3127.92,-121.144 3134.9,-121.628"/>
</g>
<!-- FARSA&#45;&gt;tRNA charging -->
<g id="edge128" class="edge"><title>FARSA&#45;&gt;tRNA charging</title>
<path fill="none" stroke="green" d="M3105.3,-80.537C3097.1,-77.921 3088.3,-75.502 3080,-74 2831,-29.168 2056.3,-20.877 1788.3,-19.346"/>
<polygon fill="green" stroke="green" points="1788.22,-15.8456 1778.2,-19.29 1788.18,-22.8455 1788.22,-15.8456"/>
</g>
<!-- FARSA&#45;&gt;FARSB -->
<g id="edge126" class="edge"><title>FARSA&#45;&gt;FARSB</title>
<path fill="none" stroke="green" d="M3143.9,-111.41C3144.7,-119.5 3144.9,-129.19 3144.6,-138.2"/>
<polygon fill="green" stroke="green" points="3141.1,-138.141 3144,-148.33 3148.09,-138.554 3141.1,-138.141"/>
</g>
<!-- TARS2 -->
<g id="node102" class="node"><title>TARS2</title>
<ellipse fill="#e795c3" stroke="black" cx="3244" cy="-93" rx="44" ry="18.5"/>
<text text-anchor="middle" x="3244" y="-89.4" font-family="Times Roman,serif" font-size="14.00">TARS2</text>
</g>
<!-- TARS2&#45;&gt;tRNA charging -->
<g id="edge130" class="edge"><title>TARS2&#45;&gt;tRNA charging</title>
<path fill="none" stroke="green" d="M3212.5,-79.922C3205.5,-77.535 3198.1,-75.37 3191,-74 3053.9,-47.56 2092.1,-26.729 1788,-20.742"/>
<polygon fill="green" stroke="green" points="1787.97,-17.2408 1777.9,-20.543 1787.83,-24.2394 1787.97,-17.2408"/>
</g>
<!-- TARS -->
<g id="node104" class="node"><title>TARS</title>
<ellipse fill="#f8f0f4" stroke="black" cx="3343" cy="-93" rx="37.2461" ry="18.5"/>
<text text-anchor="middle" x="3343" y="-89.4" font-family="Times Roman,serif" font-size="14.00">TARS</text>
</g>
<!-- TARS&#45;&gt;tRNA charging -->
<g id="edge132" class="edge"><title>TARS&#45;&gt;tRNA charging</title>
<path fill="none" stroke="green" d="M3316.3,-80.088C3310.1,-77.627 3303.4,-75.388 3297,-74 3149.9,-42.173 2106.3,-24.839 1788,-20.25"/>
<polygon fill="green" stroke="green" points="1787.95,-16.749 1777.9,-20.105 1787.85,-23.7483 1787.95,-16.749"/>
</g>
<!-- RARS2 -->
<g id="node106" class="node"><title>RARS2</title>
<ellipse fill="#f1b7da" stroke="black" cx="3442" cy="-93" rx="43.7762" ry="18.5"/>
<text text-anchor="middle" x="3442" y="-89.4" font-family="Times Roman,serif" font-size="14.00">RARS2</text>
</g>
<!-- RARS2&#45;&gt;tRNA charging -->
<g id="edge134" class="edge"><title>RARS2&#45;&gt;tRNA charging</title>
<path fill="none" stroke="green" d="M3410.5,-79.899C3403.5,-77.513 3396.1,-75.354 3389,-74 3231.8,-44.035 2117.8,-25.262 1787.9,-20.314"/>
<polygon fill="green" stroke="green" points="1787.95,-16.8145 1777.9,-20.164 1787.85,-23.8137 1787.95,-16.8145"/>
</g>
</g>
</svg>
