<?xml version="1.0" encoding="UTF-8" standalone="no"?>
<!DOCTYPE svg PUBLIC "-//W3C//DTD SVG 1.1//EN"
 "http://www.w3.org/Graphics/SVG/1.1/DTD/svg11.dtd">
<!-- Generated by graphviz version 2.26.3 (20100126.1600)
 -->
<!-- Title: _anonymous_0 Pages: 1 -->
<svg width="511pt" height="342pt"
 viewBox="0.00 0.00 510.52 342.00" xmlns="http://www.w3.org/2000/svg" xmlns:xlink="http://www.w3.org/1999/xlink">
<g id="graph1" class="graph" transform="scale(1 1) rotate(0) translate(4 338)">
<title>_anonymous_0</title>
<polygon fill="white" stroke="white" points="-4,5 -4,-338 507.52,-338 507.52,5 -4,5"/>
<!-- Per2_Cry -->
<g id="node1" class="node"><title>Per2_Cry</title>
<ellipse fill="#6d8ff1" stroke="black" cx="235.52" cy="-315" rx="56.2206" ry="18.5"/>
<text text-anchor="middle" x="235.52" y="-311.4" font-family="Times Roman,serif" font-size="14.00">Per2_Cry</text>
</g>
<!-- Per2 -->
<g id="node2" class="node"><title>Per2</title>
<ellipse fill="#6b8cf0" stroke="black" cx="52.52" cy="-241" rx="34" ry="18.5"/>
<text text-anchor="middle" x="52.52" y="-237.4" font-family="Times Roman,serif" font-size="14.00">Per2</text>
</g>
<!-- Per2_Cry&#45;&gt;Per2 -->
<g id="edge2" class="edge"><title>Per2_Cry&#45;&gt;Per2</title>
<path fill="none" stroke="green" d="M194.79,-302.28C164.52,-291.37 122.67,-275.08 86.52,-260 85.814,-259.71 85.102,-259.41 84.385,-259.11"/>
<polygon fill="green" stroke="green" points="85.5596,-255.805 74.991,-255.06 82.7883,-262.233 85.5596,-255.805"/>
</g>
<!-- Cry -->
<g id="node4" class="node"><title>Cry</title>
<ellipse fill="#7c9ff8" stroke="black" cx="419.52" cy="-241" rx="29" ry="18.5"/>
<text text-anchor="middle" x="419.52" y="-237.4" font-family="Times Roman,serif" font-size="14.00">Cry</text>
</g>
<!-- Per2_Cry&#45;&gt;Cry -->
<g id="edge4" class="edge"><title>Per2_Cry&#45;&gt;Cry</title>
<path fill="none" stroke="green" d="M270.26,-300.37C298.23,-289.89 338.14,-275.02 372.52,-260 376.4,-258.31 380.45,-256.42 384.5,-254.5"/>
<polygon fill="green" stroke="green" points="386.312,-257.515 393.86,-250.08 383.323,-251.185 386.312,-257.515"/>
</g>
<!-- Per2&#45;&gt;Per2_Cry -->
<g id="edge16" class="edge"><title>Per2&#45;&gt;Per2_Cry</title>
<path fill="none" stroke="green" d="M81.966,-250.45C89.434,-253.56 97.289,-256.98 104.52,-260 134.23,-272.39 167.78,-285.6 193.59,-295.97"/>
<polygon fill="green" stroke="green" points="192.487,-299.299 203.07,-299.79 195.103,-292.806 192.487,-299.299"/>
</g>
<!-- E&#45;Box -->
<g id="node11" class="node"><title>E&#45;Box</title>
<ellipse fill="#ffffff" stroke="black" cx="271.52" cy="-19" rx="38.8562" ry="18.5"/>
<text text-anchor="middle" x="271.52" y="-15.4" font-family="Times Roman,serif" font-size="14.00">E&#45;Box</text>
</g>
<!-- Per2&#45;&gt;E&#45;Box -->
<g id="edge12" class="edge"><title>Per2&#45;&gt;E&#45;Box</title>
<path fill="none" stroke="green" d="M33.679,-225.28C23.205,-215.26 11.173,-201.32 5.52,-186 -0.32768,-170.16 -2.9202,-162.63 5.52,-148 50.834,-69.462 160.28,-37.887 223.77,-25.86"/>
<polygon fill="green" stroke="green" points="224.709,-29.2472 233.93,-24.029 223.468,-22.3582 224.709,-29.2472"/>
</g>
<!-- Per_CSNKIe -->
<g id="node13" class="node"><title>Per_CSNKIe</title>
<ellipse fill="#698bef" stroke="black" cx="167.52" cy="-167" rx="69" ry="18.5"/>
<text text-anchor="middle" x="167.52" y="-163.4" font-family="Times Roman,serif" font-size="14.00">Per_CSNKIe</text>
</g>
<!-- Per2&#45;&gt;Per_CSNKIe -->
<g id="edge14" class="edge"><title>Per2&#45;&gt;Per_CSNKIe</title>
<path fill="none" stroke="green" d="M74.693,-226.73C91.033,-216.22 113.59,-201.7 132.37,-189.62"/>
<polygon fill="green" stroke="green" points="134.459,-192.438 140.97,-184.08 130.668,-186.553 134.459,-192.438"/>
</g>
<!-- Cry&#45;&gt;Per2_Cry -->
<g id="edge8" class="edge"><title>Cry&#45;&gt;Per2_Cry</title>
<path fill="none" stroke="green" d="M400.8,-255.24C397.41,-256.9 393.9,-258.52 390.52,-260 356.93,-274.68 318.04,-289.21 287.52,-299.65"/>
<polygon fill="green" stroke="green" points="286.284,-296.373 277.93,-302.89 288.524,-303.005 286.284,-296.373"/>
</g>
<!-- Clk_BMAL1 -->
<g id="node6" class="node"><title>Clk_BMAL1</title>
<ellipse fill="#779af6" stroke="black" cx="209.52" cy="-93" rx="67" ry="18.5"/>
<text text-anchor="middle" x="209.52" y="-89.4" font-family="Times Roman,serif" font-size="14.00">Clk_BMAL1</text>
</g>
<!-- Cry&#45;&gt;Clk_BMAL1 -->
<g id="edge6" class="edge"><title>Cry&#45;&gt;Clk_BMAL1</title>
<path fill="none" stroke="red" d="M428.78,-223.22C437.95,-202.85 448.39,-169.53 431.52,-148 390.31,-95.389 350.38,-128.1 285.52,-112 280.24,-110.69 274.75,-109.32 269.26,-107.95"/>
<polygon fill="red" stroke="red" points="269.94,-104.512 259.39,-105.49 268.247,-111.305 269.94,-104.512"/>
</g>
<!-- Cry_Per1_Per3 -->
<g id="node9" class="node"><title>Cry_Per1_Per3</title>
<ellipse fill="#7497f5" stroke="black" cx="338.52" cy="-167" rx="84" ry="18.5"/>
<text text-anchor="middle" x="338.52" y="-163.4" font-family="Times Roman,serif" font-size="14.00">Cry_Per1_Per3</text>
</g>
<!-- Cry&#45;&gt;Cry_Per1_Per3 -->
<g id="edge10" class="edge"><title>Cry&#45;&gt;Cry_Per1_Per3</title>
<path fill="none" stroke="green" d="M402.74,-225.67C392.17,-216.01 378.28,-203.32 366.12,-192.21"/>
<polygon fill="green" stroke="green" points="368.175,-189.347 358.43,-185.19 363.456,-194.517 368.175,-189.347"/>
</g>
<!-- Clk_BMAL1&#45;&gt;E&#45;Box -->
<g id="edge18" class="edge"><title>Clk_BMAL1&#45;&gt;E&#45;Box</title>
<path fill="none" stroke="green" d="M224.85,-74.708C232.6,-65.454 242.13,-54.082 250.55,-44.031"/>
<polygon fill="green" stroke="green" points="253.272,-46.2324 257.01,-36.319 247.906,-41.7374 253.272,-46.2324"/>
</g>
<!-- Cry_Per1_Per3&#45;&gt;Clk_BMAL1 -->
<g id="edge22" class="edge"><title>Cry_Per1_Per3&#45;&gt;Clk_BMAL1</title>
<path fill="none" stroke="red" d="M308.28,-149.65C290.15,-139.25 266.93,-125.93 247.56,-114.82"/>
<polygon fill="red" stroke="red" points="249.105,-111.672 238.69,-109.73 245.621,-117.743 249.105,-111.672"/>
</g>
<!-- DEC -->
<g id="node17" class="node"><title>DEC</title>
<ellipse fill="#e36c54" stroke="black" cx="47.52" cy="-167" rx="33.0296" ry="18.5"/>
<text text-anchor="middle" x="47.52" y="-163.4" font-family="Times Roman,serif" font-size="14.00">DEC</text>
</g>
<!-- DEC&#45;&gt;Clk_BMAL1 -->
<g id="edge20" class="edge"><title>DEC&#45;&gt;Clk_BMAL1</title>
<path fill="none" stroke="green" d="M73.189,-155.27C97.904,-143.98 135.78,-126.68 165.35,-113.18"/>
<polygon fill="green" stroke="green" points="166.989,-116.279 174.63,-108.94 164.08,-109.912 166.989,-116.279"/>
</g>
<!-- RORA -->
<g id="node20" class="node"><title>RORA</title>
<ellipse fill="#7193f3" stroke="black" cx="333.52" cy="-93" rx="38.8562" ry="18.5"/>
<text text-anchor="middle" x="333.52" y="-89.4" font-family="Times Roman,serif" font-size="14.00">RORA</text>
</g>
<!-- RORA&#45;&gt;E&#45;Box -->
<g id="edge24" class="edge"><title>RORA&#45;&gt;E&#45;Box</title>
<path fill="none" stroke="green" d="M318.83,-75.463C311.03,-66.155 301.3,-54.55 292.71,-44.286"/>
<polygon fill="green" stroke="green" points="295.216,-41.8271 286.11,-36.411 289.851,-46.3234 295.216,-41.8271"/>
</g>
<!-- Per3 -->
<g id="node22" class="node"><title>Per3</title>
<ellipse fill="#6e90f2" stroke="black" cx="252.52" cy="-241" rx="34" ry="18.5"/>
<text text-anchor="middle" x="252.52" y="-237.4" font-family="Times Roman,serif" font-size="14.00">Per3</text>
</g>
<!-- Per3&#45;&gt;Cry_Per1_Per3 -->
<g id="edge28" class="edge"><title>Per3&#45;&gt;Cry_Per1_Per3</title>
<path fill="none" stroke="green" d="M270.76,-225.31C282.11,-215.54 296.95,-202.77 309.85,-191.67"/>
<polygon fill="green" stroke="green" points="312.293,-194.185 317.59,-185.01 307.727,-188.879 312.293,-194.185"/>
</g>
<!-- Per3&#45;&gt;Per_CSNKIe -->
<g id="edge26" class="edge"><title>Per3&#45;&gt;Per_CSNKIe</title>
<path fill="none" stroke="green" d="M234.49,-225.31C223.19,-215.47 208.39,-202.58 195.58,-191.43"/>
<polygon fill="green" stroke="green" points="197.75,-188.678 187.91,-184.75 193.152,-193.957 197.75,-188.678"/>
</g>
<!-- Per1 -->
<g id="node25" class="node"><title>Per1</title>
<ellipse fill="#ffffff" stroke="black" cx="338.52" cy="-241" rx="34" ry="18.5"/>
<text text-anchor="middle" x="338.52" y="-237.4" font-family="Times Roman,serif" font-size="14.00">Per1</text>
</g>
<!-- Per1&#45;&gt;Cry_Per1_Per3 -->
<g id="edge32" class="edge"><title>Per1&#45;&gt;Cry_Per1_Per3</title>
<path fill="none" stroke="green" d="M338.52,-222.33C338.52,-214.26 338.52,-204.65 338.52,-195.71"/>
<polygon fill="green" stroke="green" points="342.02,-195.67 338.52,-185.67 335.02,-195.67 342.02,-195.67"/>
</g>
<!-- Per1&#45;&gt;Per_CSNKIe -->
<g id="edge30" class="edge"><title>Per1&#45;&gt;Per_CSNKIe</title>
<path fill="none" stroke="green" d="M312.16,-229.3C306.67,-226.88 300.91,-224.35 295.52,-222 268.41,-210.19 238,-197.11 213.62,-186.67"/>
<polygon fill="green" stroke="green" points="214.821,-183.377 204.25,-182.67 212.073,-189.815 214.821,-183.377"/>
</g>
<!-- Rev&#45;Erba -->
<g id="node28" class="node"><title>Rev&#45;Erba</title>
<ellipse fill="#779af6" stroke="black" cx="446.52" cy="-93" rx="56" ry="18.5"/>
<text text-anchor="middle" x="446.52" y="-89.4" font-family="Times Roman,serif" font-size="14.00">Rev&#45;Erba</text>
</g>
<!-- Rev&#45;Erba&#45;&gt;E&#45;Box -->
<g id="edge34" class="edge"><title>Rev&#45;Erba&#45;&gt;E&#45;Box</title>
<path fill="none" stroke="red" d="M411.95,-78.38C382.64,-65.99 340.66,-48.236 310.24,-35.371"/>
<polygon fill="red" stroke="red" points="311.374,-32.0503 300.8,-31.379 308.647,-38.4975 311.374,-32.0503"/>
</g>
<!-- CSNKIe -->
<g id="node30" class="node"><title>CSNKIe</title>
<ellipse fill="#ffffff" stroke="black" cx="152.52" cy="-241" rx="48" ry="18.5"/>
<text text-anchor="middle" x="152.52" y="-237.4" font-family="Times Roman,serif" font-size="14.00">CSNKIe</text>
</g>
<!-- CSNKIe&#45;&gt;Per_CSNKIe -->
<g id="edge36" class="edge"><title>CSNKIe&#45;&gt;Per_CSNKIe</title>
<path fill="none" stroke="green" d="M156.31,-222.33C157.94,-214.26 159.89,-204.65 161.7,-195.71"/>
<polygon fill="green" stroke="green" points="165.179,-196.167 163.74,-185.67 158.319,-194.773 165.179,-196.167"/>
</g>
</g>
</svg>
