<?xml version="1.0" encoding="UTF-8" standalone="no"?>
<!DOCTYPE svg PUBLIC "-//W3C//DTD SVG 1.1//EN"
 "http://www.w3.org/Graphics/SVG/1.1/DTD/svg11.dtd">
<!-- Generated by graphviz version 2.26.3 (20100126.1600)
 -->
<!-- Title: _anonymous_0 Pages: 1 -->
<svg width="2838pt" height="786pt"
 viewBox="0.00 0.00 2838.00 786.00" xmlns="http://www.w3.org/2000/svg" xmlns:xlink="http://www.w3.org/1999/xlink">
<g id="graph1" class="graph" transform="scale(1 1) rotate(0) translate(4 782)">
<title>_anonymous_0</title>
<polygon fill="white" stroke="white" points="-4,5 -4,-782 2835,-782 2835,5 -4,5"/>
<!-- CyclinE_CDK4 -->
<g id="node1" class="node"><title>CyclinE_CDK4</title>
<ellipse fill="#e36c54" stroke="black" cx="80" cy="-241" rx="80" ry="18.5"/>
<text text-anchor="middle" x="80" y="-237.4" font-family="Times Roman,serif" font-size="14.00">CyclinE_CDK4</text>
</g>
<!-- E2F -->
<g id="node2" class="node"><title>E2F</title>
<ellipse fill="#e67259" stroke="black" cx="300" cy="-167" rx="30.2185" ry="18.5"/>
<text text-anchor="middle" x="300" y="-163.4" font-family="Times Roman,serif" font-size="14.00">E2F</text>
</g>
<!-- CyclinE_CDK4&#45;&gt;E2F -->
<g id="edge2" class="edge"><title>CyclinE_CDK4&#45;&gt;E2F</title>
<path fill="none" stroke="green" d="M125.58,-225.67C166.6,-211.87 226.06,-191.87 263.87,-179.15"/>
<polygon fill="green" stroke="green" points="265.094,-182.431 273.46,-175.93 262.866,-175.795 265.094,-182.431"/>
</g>
<!-- BRCA1 -->
<g id="node4" class="node"><title>BRCA1</title>
<ellipse fill="#87aafc" stroke="black" cx="2161" cy="-611" rx="45" ry="18.5"/>
<text text-anchor="middle" x="2161" y="-607.4" font-family="Times Roman,serif" font-size="14.00">BRCA1</text>
</g>
<!-- p53 -->
<g id="node5" class="node"><title>p53</title>
<ellipse fill="#87aafc" stroke="black" cx="2219" cy="-537" rx="30.2185" ry="18.5"/>
<text text-anchor="middle" x="2219" y="-533.4" font-family="Times Roman,serif" font-size="14.00">p53</text>
</g>
<!-- BRCA1&#45;&gt;p53 -->
<g id="edge4" class="edge"><title>BRCA1&#45;&gt;p53</title>
<path fill="none" stroke="green" d="M2175,-593.09C2182.4,-583.64 2191.6,-571.9 2199.7,-561.61"/>
<polygon fill="green" stroke="green" points="2202.47,-563.753 2205.9,-553.73 2196.97,-559.425 2202.47,-563.753"/>
</g>
<!-- p53_P_P -->
<g id="node7" class="node"><title>p53_P_P</title>
<ellipse fill="#87aafc" stroke="black" cx="2482" cy="-463" rx="52.9104" ry="18.5"/>
<text text-anchor="middle" x="2482" y="-459.4" font-family="Times Roman,serif" font-size="14.00">p53_P_P</text>
</g>
<!-- p53&#45;&gt;p53_P_P -->
<g id="edge6" class="edge"><title>p53&#45;&gt;p53_P_P</title>
<path fill="none" stroke="green" d="M2237.9,-522.57C2241.5,-520.91 2245.3,-519.33 2249,-518 2306.7,-497.15 2375.5,-481.56 2423.4,-472.41"/>
<polygon fill="green" stroke="green" points="2424.12,-475.836 2433.3,-470.55 2422.83,-468.957 2424.12,-475.836"/>
</g>
<!-- p53_Ub_uB_MDM2 -->
<g id="node9" class="node"><title>p53_Ub_uB_MDM2</title>
<ellipse fill="#ea7c60" stroke="black" cx="1503" cy="-167" rx="104" ry="18.5"/>
<text text-anchor="middle" x="1503" y="-163.4" font-family="Times Roman,serif" font-size="14.00">p53_Ub_uB_MDM2</text>
</g>
<!-- p53&#45;&gt;p53_Ub_uB_MDM2 -->
<g id="edge8" class="edge"><title>p53&#45;&gt;p53_Ub_uB_MDM2</title>
<path fill="none" stroke="green" d="M2196.4,-524.49C2191.1,-522 2185.5,-519.66 2180,-518 2122.7,-500.67 1958.7,-520.63 1913,-482 1879.9,-454.07 1884,-432.3 1884,-389 1884,-389 1884,-389 1884,-315 1884,-272.81 1895.6,-251.06 1865,-222 1846.3,-204.24 1706,-186.91 1605.7,-176.59"/>
<polygon fill="green" stroke="green" points="1605.8,-173.082 1595.5,-175.55 1605.09,-180.046 1605.8,-173.082"/>
</g>
<!-- PLAS1 -->
<g id="node11" class="node"><title>PLAS1</title>
<ellipse fill="#ffffff" stroke="black" cx="2269" cy="-463" rx="44" ry="18.5"/>
<text text-anchor="middle" x="2269" y="-459.4" font-family="Times Roman,serif" font-size="14.00">PLAS1</text>
</g>
<!-- p53&#45;&gt;PLAS1 -->
<g id="edge10" class="edge"><title>p53&#45;&gt;PLAS1</title>
<path fill="none" stroke="green" d="M2230.6,-519.84C2236.7,-510.79 2244.3,-499.49 2251.2,-489.36"/>
<polygon fill="green" stroke="green" points="2254.25,-491.098 2256.9,-480.84 2248.43,-487.205 2254.25,-491.098"/>
</g>
<!-- PML -->
<g id="node13" class="node"><title>PML</title>
<ellipse fill="#ffffff" stroke="black" cx="2175" cy="-463" rx="31.8295" ry="18.5"/>
<text text-anchor="middle" x="2175" y="-459.4" font-family="Times Roman,serif" font-size="14.00">PML</text>
</g>
<!-- p53&#45;&gt;PML -->
<g id="edge12" class="edge"><title>p53&#45;&gt;PML</title>
<path fill="none" stroke="green" d="M2208.6,-519.46C2203.2,-510.5 2196.6,-499.4 2190.7,-489.42"/>
<polygon fill="green" stroke="green" points="2193.62,-487.478 2185.5,-480.67 2187.6,-491.055 2193.62,-487.478"/>
</g>
<!-- p53_Ac -->
<g id="node15" class="node"><title>p53_Ac</title>
<ellipse fill="#87aafc" stroke="black" cx="2056" cy="-463" rx="47.0847" ry="18.5"/>
<text text-anchor="middle" x="2056" y="-459.4" font-family="Times Roman,serif" font-size="14.00">p53_Ac</text>
</g>
<!-- p53&#45;&gt;p53_Ac -->
<g id="edge14" class="edge"><title>p53&#45;&gt;p53_Ac</title>
<path fill="none" stroke="green" d="M2195.6,-525.41C2190.4,-522.93 2185.1,-520.35 2180,-518 2152.5,-505.2 2121.2,-491.34 2097,-480.74"/>
<polygon fill="green" stroke="green" points="2098.27,-477.474 2087.7,-476.7 2095.48,-483.895 2098.27,-477.474"/>
</g>
<!-- p53_P_P&#45;&gt;p53 -->
<g id="edge22" class="edge"><title>p53_P_P&#45;&gt;p53</title>
<path fill="none" stroke="green" d="M2436.6,-472.61C2392.5,-481.79 2324.2,-497.3 2267,-518 2262.8,-519.51 2258.5,-521.33 2254.2,-523.24"/>
<polygon fill="green" stroke="green" points="2252.55,-520.147 2244.9,-527.48 2255.45,-526.516 2252.55,-520.147"/>
</g>
<!-- Protosome -->
<g id="node17" class="node"><title>Protosome</title>
<ellipse fill="#e67259" stroke="black" cx="1503" cy="-93" rx="63.2481" ry="18.5"/>
<text text-anchor="middle" x="1503" y="-89.4" font-family="Times Roman,serif" font-size="14.00">Protosome</text>
</g>
<!-- p53_Ub_uB_MDM2&#45;&gt;Protosome -->
<g id="edge16" class="edge"><title>p53_Ub_uB_MDM2&#45;&gt;Protosome</title>
<path fill="none" stroke="green" d="M1503,-148.33C1503,-140.26 1503,-130.65 1503,-121.71"/>
<polygon fill="green" stroke="green" points="1506.5,-121.67 1503,-111.67 1499.5,-121.67 1506.5,-121.67"/>
</g>
<!-- p53_Ac_P_P_Ac_p53 -->
<g id="node35" class="node"><title>p53_Ac_P_P_Ac_p53</title>
<ellipse fill="#87aafc" stroke="black" cx="2061" cy="-389" rx="111.036" ry="18.5"/>
<text text-anchor="middle" x="2061" y="-385.4" font-family="Times Roman,serif" font-size="14.00">p53_Ac_P_P_Ac_p53</text>
</g>
<!-- p53_Ac&#45;&gt;p53_Ac_P_P_Ac_p53 -->
<g id="edge36" class="edge"><title>p53_Ac&#45;&gt;p53_Ac_P_P_Ac_p53</title>
<path fill="none" stroke="green" d="M2057.3,-444.33C2057.8,-436.26 2058.5,-426.65 2059.1,-417.71"/>
<polygon fill="green" stroke="green" points="2062.6,-417.861 2059.7,-407.67 2055.61,-417.443 2062.6,-417.861"/>
</g>
<!-- p53Degradation -->
<g id="node19" class="node"><title>p53Degradation</title>
<ellipse fill="#ffffff" stroke="black" cx="1503" cy="-19" rx="90" ry="18.5"/>
<text text-anchor="middle" x="1503" y="-15.4" font-family="Times Roman,serif" font-size="14.00">p53Degradation</text>
</g>
<!-- Protosome&#45;&gt;p53Degradation -->
<g id="edge18" class="edge"><title>Protosome&#45;&gt;p53Degradation</title>
<path fill="none" stroke="green" d="M1503,-74.327C1503,-66.264 1503,-56.648 1503,-47.711"/>
<polygon fill="green" stroke="green" points="1506.5,-47.667 1503,-37.667 1499.5,-47.667 1506.5,-47.667"/>
</g>
<!-- CSNKld -->
<g id="node21" class="node"><title>CSNKld</title>
<ellipse fill="#ed8568" stroke="black" cx="2442" cy="-611" rx="47.0847" ry="18.5"/>
<text text-anchor="middle" x="2442" y="-607.4" font-family="Times Roman,serif" font-size="14.00">CSNKld</text>
</g>
<!-- CSNKld&#45;&gt;p53_P_P -->
<g id="edge20" class="edge"><title>CSNKld&#45;&gt;p53_P_P</title>
<path fill="none" stroke="green" d="M2447,-592.55C2453.8,-567.19 2466.2,-521.29 2474.3,-491.49"/>
<polygon fill="green" stroke="green" points="2477.72,-492.25 2477,-481.68 2470.97,-490.393 2477.72,-492.25"/>
</g>
<!-- DNADamage -->
<g id="node24" class="node"><title>DNADamage</title>
<ellipse fill="#ffffff" stroke="black" cx="2717" cy="-685" rx="74" ry="18.5"/>
<text text-anchor="middle" x="2717" y="-681.4" font-family="Times Roman,serif" font-size="14.00">DNADamage</text>
</g>
<!-- Chk1_P_ATR -->
<g id="node25" class="node"><title>Chk1_P_ATR</title>
<ellipse fill="#e67259" stroke="black" cx="2757" cy="-611" rx="73.0867" ry="18.5"/>
<text text-anchor="middle" x="2757" y="-607.4" font-family="Times Roman,serif" font-size="14.00">Chk1_P_ATR</text>
</g>
<!-- DNADamage&#45;&gt;Chk1_P_ATR -->
<g id="edge24" class="edge"><title>DNADamage&#45;&gt;Chk1_P_ATR</title>
<path fill="none" stroke="green" d="M2727.1,-666.33C2731.7,-657.85 2737.2,-647.65 2742.2,-638.34"/>
<polygon fill="green" stroke="green" points="2745.35,-639.875 2747,-629.41 2739.18,-636.561 2745.35,-639.875"/>
</g>
<!-- ATM -->
<g id="node27" class="node"><title>ATM</title>
<ellipse fill="#ef8a6c" stroke="black" cx="2633" cy="-611" rx="33.0296" ry="18.5"/>
<text text-anchor="middle" x="2633" y="-607.4" font-family="Times Roman,serif" font-size="14.00">ATM</text>
</g>
<!-- DNADamage&#45;&gt;ATM -->
<g id="edge26" class="edge"><title>DNADamage&#45;&gt;ATM</title>
<path fill="none" stroke="green" d="M2696.7,-667.09C2685.2,-656.98 2670.8,-644.26 2658.5,-633.49"/>
<polygon fill="green" stroke="green" points="2660.7,-630.764 2650.9,-626.74 2656.05,-635.998 2660.7,-630.764"/>
</g>
<!-- Chk1_P_ATR&#45;&gt;p53_P_P -->
<g id="edge28" class="edge"><title>Chk1_P_ATR&#45;&gt;p53_P_P</title>
<path fill="none" stroke="green" d="M2752.4,-592.27C2746.2,-571.02 2733,-536.86 2709,-518 2683.2,-497.76 2599.6,-481.16 2541.4,-471.67"/>
<polygon fill="green" stroke="green" points="2541.63,-468.162 2531.2,-470.04 2540.52,-475.074 2541.63,-468.162"/>
</g>
<!-- ATM&#45;&gt;p53_P_P -->
<g id="edge32" class="edge"><title>ATM&#45;&gt;p53_P_P</title>
<path fill="none" stroke="green" d="M2654,-596.27C2678.2,-577.45 2712.2,-544.19 2692,-518 2673.8,-494.41 2597.9,-478.97 2542.6,-470.62"/>
<polygon fill="green" stroke="green" points="2542.9,-467.127 2532.5,-469.14 2541.89,-474.053 2542.9,-467.127"/>
</g>
<!-- DNA&#45;PK -->
<g id="node30" class="node"><title>DNA&#45;PK</title>
<ellipse fill="#f08b6d" stroke="black" cx="2633" cy="-537" rx="50" ry="18.5"/>
<text text-anchor="middle" x="2633" y="-533.4" font-family="Times Roman,serif" font-size="14.00">DNA&#45;PK</text>
</g>
<!-- ATM&#45;&gt;DNA&#45;PK -->
<g id="edge30" class="edge"><title>ATM&#45;&gt;DNA&#45;PK</title>
<path fill="none" stroke="green" d="M2633,-592.33C2633,-584.26 2633,-574.65 2633,-565.71"/>
<polygon fill="green" stroke="green" points="2636.5,-565.67 2633,-555.67 2629.5,-565.67 2636.5,-565.67"/>
</g>
<!-- DNA&#45;PK&#45;&gt;p53_P_P -->
<g id="edge38" class="edge"><title>DNA&#45;PK&#45;&gt;p53_P_P</title>
<path fill="none" stroke="green" d="M2602.8,-522.2C2579.6,-510.82 2547.3,-494.99 2521.9,-482.56"/>
<polygon fill="green" stroke="green" points="2523.42,-479.407 2512.9,-478.15 2520.34,-485.693 2523.42,-479.407"/>
</g>
<!-- PCAF -->
<g id="node33" class="node"><title>PCAF</title>
<ellipse fill="#ffffff" stroke="black" cx="1942" cy="-537" rx="37.2461" ry="18.5"/>
<text text-anchor="middle" x="1942" y="-533.4" font-family="Times Roman,serif" font-size="14.00">PCAF</text>
</g>
<!-- PCAF&#45;&gt;p53_Ac -->
<g id="edge34" class="edge"><title>PCAF&#45;&gt;p53_Ac</title>
<path fill="none" stroke="green" d="M1964.8,-522.2C1981.4,-511.43 2004.1,-496.66 2022.8,-484.57"/>
<polygon fill="green" stroke="green" points="2024.82,-487.432 2031.3,-479.05 2021.01,-481.561 2024.82,-487.432"/>
</g>
<!-- GSK3b -->
<g id="node43" class="node"><title>GSK3b</title>
<ellipse fill="#ee8769" stroke="black" cx="2061" cy="-167" rx="43.7762" ry="18.5"/>
<text text-anchor="middle" x="2061" y="-163.4" font-family="Times Roman,serif" font-size="14.00">GSK3b</text>
</g>
<!-- p53_Ac_P_P_Ac_p53&#45;&gt;GSK3b -->
<g id="edge46" class="edge"><title>p53_Ac_P_P_Ac_p53&#45;&gt;GSK3b</title>
<path fill="none" stroke="green" d="M2057.1,-370.45C2053.6,-331.77 2053.3,-242.22 2056.3,-195.91"/>
<polygon fill="green" stroke="green" points="2059.81,-195.865 2057,-185.65 2052.83,-195.389 2059.81,-195.865"/>
</g>
<!-- GeneExpression -->
<g id="node45" class="node"><title>GeneExpression</title>
<ellipse fill="#ffffff" stroke="black" cx="1153" cy="-315" rx="90" ry="18.5"/>
<text text-anchor="middle" x="1153" y="-311.4" font-family="Times Roman,serif" font-size="14.00">GeneExpression</text>
</g>
<!-- p53_Ac_P_P_Ac_p53&#45;&gt;GeneExpression -->
<g id="edge48" class="edge"><title>p53_Ac_P_P_Ac_p53&#45;&gt;GeneExpression</title>
<path fill="none" stroke="green" d="M1961.2,-380.87C1784.6,-366.48 1419.4,-336.71 1247,-322.66"/>
<polygon fill="green" stroke="green" points="1247.15,-319.161 1236.9,-321.84 1246.58,-326.138 1247.15,-319.161"/>
</g>
<!-- PTEN -->
<g id="node47" class="node"><title>PTEN</title>
<ellipse fill="#87aafc" stroke="black" cx="2136" cy="-315" rx="38" ry="18.5"/>
<text text-anchor="middle" x="2136" y="-311.4" font-family="Times Roman,serif" font-size="14.00">PTEN</text>
</g>
<!-- p53_Ac_P_P_Ac_p53&#45;&gt;PTEN -->
<g id="edge50" class="edge"><title>p53_Ac_P_P_Ac_p53&#45;&gt;PTEN</title>
<path fill="none" stroke="green" d="M2079.5,-370.71C2089.2,-361.13 2101.2,-349.29 2111.7,-338.99"/>
<polygon fill="green" stroke="green" points="2114.32,-341.324 2119,-331.82 2109.41,-336.33 2114.32,-341.324"/>
</g>
<!-- p300 -->
<g id="node38" class="node"><title>p300</title>
<ellipse fill="#ffffff" stroke="black" cx="2034" cy="-537" rx="37" ry="18.5"/>
<text text-anchor="middle" x="2034" y="-533.4" font-family="Times Roman,serif" font-size="14.00">p300</text>
</g>
<!-- p300&#45;&gt;p53_Ac -->
<g id="edge40" class="edge"><title>p300&#45;&gt;p53_Ac</title>
<path fill="none" stroke="green" d="M2039.6,-518.33C2042,-510.11 2044.9,-500.29 2047.6,-491.21"/>
<polygon fill="green" stroke="green" points="2051.02,-491.992 2050.5,-481.41 2044.31,-490.006 2051.02,-491.992"/>
</g>
<!-- CAK -->
<g id="node40" class="node"><title>CAK</title>
<ellipse fill="#83a6fb" stroke="black" cx="1954" cy="-463" rx="32" ry="18.5"/>
<text text-anchor="middle" x="1954" y="-459.4" font-family="Times Roman,serif" font-size="14.00">CAK</text>
</g>
<!-- CAK&#45;&gt;p53_Ub_uB_MDM2 -->
<g id="edge42" class="edge"><title>CAK&#45;&gt;p53_Ub_uB_MDM2</title>
<path fill="none" stroke="green" d="M1949.6,-444.67C1947.1,-433.98 1943.9,-420.23 1941,-408 1921.7,-325.38 1960.6,-279.27 1898,-222 1876.9,-202.65 1717.8,-185.32 1608.1,-175.5"/>
<polygon fill="green" stroke="green" points="1608.27,-172.001 1598,-174.6 1607.65,-178.974 1608.27,-172.001"/>
</g>
<!-- CAK&#45;&gt;p53_Ac_P_P_Ac_p53 -->
<g id="edge44" class="edge"><title>CAK&#45;&gt;p53_Ac_P_P_Ac_p53</title>
<path fill="none" stroke="green" d="M1974.6,-448.73C1989.2,-438.65 2009.1,-424.88 2026.1,-413.11"/>
<polygon fill="green" stroke="green" points="2028.47,-415.728 2034.7,-407.16 2024.48,-409.971 2028.47,-415.728"/>
</g>
<!-- GSK3b&#45;&gt;p53_Ac_P_P_Ac_p53 -->
<g id="edge88" class="edge"><title>GSK3b&#45;&gt;p53_Ac_P_P_Ac_p53</title>
<path fill="none" stroke="green" d="M2065,-185.65C2068.4,-224.43 2068.7,-313.98 2065.7,-360.22"/>
<polygon fill="green" stroke="green" points="2062.19,-360.208 2064.9,-370.45 2069.17,-360.753 2062.19,-360.208"/>
</g>
<!-- C&#45;Fos -->
<g id="node53" class="node"><title>C&#45;Fos</title>
<ellipse fill="#ffffff" stroke="black" cx="1714" cy="-241" rx="38" ry="18.5"/>
<text text-anchor="middle" x="1714" y="-237.4" font-family="Times Roman,serif" font-size="14.00">C&#45;Fos</text>
</g>
<!-- GeneExpression&#45;&gt;C&#45;Fos -->
<g id="edge68" class="edge"><title>GeneExpression&#45;&gt;C&#45;Fos</title>
<path fill="none" stroke="green" d="M1237.9,-308.78C1362.3,-299.19 1587.9,-279.8 1667,-260 1670.2,-259.21 1673.4,-258.25 1676.6,-257.19"/>
<polygon fill="green" stroke="green" points="1677.88,-260.448 1686.1,-253.76 1675.51,-253.864 1677.88,-260.448"/>
</g>
<!-- TSP1 -->
<g id="node54" class="node"><title>TSP1</title>
<ellipse fill="#80a3fa" stroke="black" cx="1153" cy="-241" rx="37.2461" ry="18.5"/>
<text text-anchor="middle" x="1153" y="-237.4" font-family="Times Roman,serif" font-size="14.00">TSP1</text>
</g>
<!-- GeneExpression&#45;&gt;TSP1 -->
<g id="edge76" class="edge"><title>GeneExpression&#45;&gt;TSP1</title>
<path fill="none" stroke="green" d="M1153,-296.33C1153,-288.26 1153,-278.65 1153,-269.71"/>
<polygon fill="green" stroke="green" points="1156.5,-269.67 1153,-259.67 1149.5,-269.67 1156.5,-269.67"/>
</g>
<!-- Fas -->
<g id="node57" class="node"><title>Fas</title>
<ellipse fill="#ffffff" stroke="black" cx="1235" cy="-241" rx="27" ry="18.5"/>
<text text-anchor="middle" x="1235" y="-237.4" font-family="Times Roman,serif" font-size="14.00">Fas</text>
</g>
<!-- GeneExpression&#45;&gt;Fas -->
<g id="edge84" class="edge"><title>GeneExpression&#45;&gt;Fas</title>
<path fill="none" stroke="green" d="M1173.3,-296.71C1184.7,-286.39 1199.1,-273.43 1211.1,-262.61"/>
<polygon fill="green" stroke="green" points="1213.48,-265.179 1218.5,-255.85 1208.76,-260.011 1213.48,-265.179"/>
</g>
<!-- Caspase -->
<g id="node60" class="node"><title>Caspase</title>
<ellipse fill="#f18f71" stroke="black" cx="1607" cy="-241" rx="50.8032" ry="18.5"/>
<text text-anchor="middle" x="1607" y="-237.4" font-family="Times Roman,serif" font-size="14.00">Caspase</text>
</g>
<!-- GeneExpression&#45;&gt;Caspase -->
<g id="edge80" class="edge"><title>GeneExpression&#45;&gt;Caspase</title>
<path fill="none" stroke="green" d="M1235.6,-307.55C1315.8,-299.35 1440.7,-284.06 1547,-260 1551.3,-259.02 1555.8,-257.88 1560.2,-256.65"/>
<polygon fill="green" stroke="green" points="1561.19,-260.008 1569.8,-253.84 1559.22,-253.29 1561.19,-260.008"/>
</g>
<!-- Box -->
<g id="node63" class="node"><title>Box</title>
<ellipse fill="#ffffff" stroke="black" cx="625" cy="-241" rx="29.0155" ry="18.5"/>
<text text-anchor="middle" x="625" y="-237.4" font-family="Times Roman,serif" font-size="14.00">Box</text>
</g>
<!-- GeneExpression&#45;&gt;Box -->
<g id="edge62" class="edge"><title>GeneExpression&#45;&gt;Box</title>
<path fill="none" stroke="green" d="M1068.6,-308.53C950.32,-298.92 741.41,-279.88 668,-260 664.4,-259.03 660.72,-257.79 657.09,-256.43"/>
<polygon fill="green" stroke="green" points="658.319,-253.151 647.74,-252.58 655.654,-259.624 658.319,-253.151"/>
</g>
<!-- GADD45 -->
<g id="node65" class="node"><title>GADD45</title>
<ellipse fill="#ffffff" stroke="black" cx="959" cy="-241" rx="55" ry="18.5"/>
<text text-anchor="middle" x="959" y="-237.4" font-family="Times Roman,serif" font-size="14.00">GADD45</text>
</g>
<!-- GeneExpression&#45;&gt;GADD45 -->
<g id="edge64" class="edge"><title>GeneExpression&#45;&gt;GADD45</title>
<path fill="none" stroke="green" d="M1109.9,-298.58C1078.8,-286.69 1036.7,-270.65 1004.9,-258.52"/>
<polygon fill="green" stroke="green" points="1006.01,-255.197 995.42,-254.89 1003.51,-261.735 1006.01,-255.197"/>
</g>
<!-- DR5 -->
<g id="node67" class="node"><title>DR5</title>
<ellipse fill="#e46e56" stroke="black" cx="1065" cy="-241" rx="33.0296" ry="18.5"/>
<text text-anchor="middle" x="1065" y="-237.4" font-family="Times Roman,serif" font-size="14.00">DR5</text>
</g>
<!-- GeneExpression&#45;&gt;DR5 -->
<g id="edge66" class="edge"><title>GeneExpression&#45;&gt;DR5</title>
<path fill="none" stroke="green" d="M1131.2,-296.71C1119.2,-286.6 1104.2,-273.96 1091.5,-263.27"/>
<polygon fill="green" stroke="green" points="1093.42,-260.31 1083.5,-256.58 1088.93,-265.68 1093.42,-260.31"/>
</g>
<!-- BCL2 -->
<g id="node70" class="node"><title>BCL2</title>
<ellipse fill="#ffffff" stroke="black" cx="653" cy="-167" rx="37.2461" ry="18.5"/>
<text text-anchor="middle" x="653" y="-163.4" font-family="Times Roman,serif" font-size="14.00">BCL2</text>
</g>
<!-- GeneExpression&#45;&gt;BCL2 -->
<g id="edge70" class="edge"><title>GeneExpression&#45;&gt;BCL2</title>
<path fill="none" stroke="red" d="M1067.9,-308.94C945.34,-299.57 730.45,-280.48 701,-260 679.21,-244.84 666.66,-216.7 659.9,-195.33"/>
<polygon fill="red" stroke="red" points="663.183,-194.085 657.03,-185.46 656.461,-196.04 663.183,-194.085"/>
</g>
<!-- 14&#45;3&#45;3s -->
<g id="node72" class="node"><title>14&#45;3&#45;3s</title>
<ellipse fill="#ffffff" stroke="black" cx="1329" cy="-241" rx="49.193" ry="18.5"/>
<text text-anchor="middle" x="1329" y="-237.4" font-family="Times Roman,serif" font-size="14.00">14&#45;3&#45;3s</text>
</g>
<!-- GeneExpression&#45;&gt;14&#45;3&#45;3s -->
<g id="edge72" class="edge"><title>GeneExpression&#45;&gt;14&#45;3&#45;3s</title>
<path fill="none" stroke="green" d="M1192.9,-298.21C1220.9,-286.45 1258.2,-270.75 1286.7,-258.78"/>
<polygon fill="green" stroke="green" points="1288.14,-261.972 1296,-254.87 1285.43,-255.519 1288.14,-261.972"/>
</g>
<!-- MDM2 -->
<g id="node74" class="node"><title>MDM2</title>
<ellipse fill="#ffffff" stroke="black" cx="1813" cy="-241" rx="43" ry="18.5"/>
<text text-anchor="middle" x="1813" y="-237.4" font-family="Times Roman,serif" font-size="14.00">MDM2</text>
</g>
<!-- GeneExpression&#45;&gt;MDM2 -->
<g id="edge74" class="edge"><title>GeneExpression&#45;&gt;MDM2</title>
<path fill="none" stroke="green" d="M1239.8,-309.94C1383.3,-301.1 1664.1,-281.7 1761,-260 1764.6,-259.19 1768.4,-258.18 1772.1,-257.06"/>
<polygon fill="green" stroke="green" points="1773.38,-260.325 1781.8,-253.9 1771.21,-253.67 1773.38,-260.325"/>
</g>
<!-- BAI1 -->
<g id="node77" class="node"><title>BAI1</title>
<ellipse fill="#ffffff" stroke="black" cx="745" cy="-241" rx="35.1378" ry="18.5"/>
<text text-anchor="middle" x="745" y="-237.4" font-family="Times Roman,serif" font-size="14.00">BAI1</text>
</g>
<!-- GeneExpression&#45;&gt;BAI1 -->
<g id="edge78" class="edge"><title>GeneExpression&#45;&gt;BAI1</title>
<path fill="none" stroke="green" d="M1068.6,-308.45C993.94,-301.21 882.7,-286.82 789,-260 786.23,-259.21 783.39,-258.28 780.57,-257.27"/>
<polygon fill="green" stroke="green" points="781.708,-253.957 771.12,-253.59 779.168,-260.48 781.708,-253.957"/>
</g>
<!-- p21CIP -->
<g id="node80" class="node"><title>p21CIP</title>
<ellipse fill="#ffffff" stroke="black" cx="224" cy="-241" rx="45.8832" ry="18.5"/>
<text text-anchor="middle" x="224" y="-237.4" font-family="Times Roman,serif" font-size="14.00">p21CIP</text>
</g>
<!-- GeneExpression&#45;&gt;p21CIP -->
<g id="edge82" class="edge"><title>GeneExpression&#45;&gt;p21CIP</title>
<path fill="none" stroke="green" d="M1063.6,-312.43C872.06,-306.43 427.14,-289.68 279,-260 274.93,-259.19 270.75,-258.14 266.61,-256.97"/>
<polygon fill="green" stroke="green" points="267.637,-253.624 257.05,-254.03 265.579,-260.315 267.637,-253.624"/>
</g>
<!-- Akt -->
<g id="node83" class="node"><title>Akt</title>
<ellipse fill="#ffffff" stroke="black" cx="2132" cy="-241" rx="29" ry="18.5"/>
<text text-anchor="middle" x="2132" y="-237.4" font-family="Times Roman,serif" font-size="14.00">Akt</text>
</g>
<!-- PTEN&#45;&gt;Akt -->
<g id="edge86" class="edge"><title>PTEN&#45;&gt;Akt</title>
<path fill="none" stroke="red" d="M2135,-296.33C2134.6,-288.26 2134,-278.65 2133.6,-269.71"/>
<polygon fill="red" stroke="red" points="2137.09,-269.443 2133,-259.67 2130.1,-269.861 2137.09,-269.443"/>
</g>
<!-- HIPK2 -->
<g id="node49" class="node"><title>HIPK2</title>
<ellipse fill="#87aafc" stroke="black" cx="2506" cy="-685" rx="40.9631" ry="18.5"/>
<text text-anchor="middle" x="2506" y="-681.4" font-family="Times Roman,serif" font-size="14.00">HIPK2</text>
</g>
<!-- HIPK2&#45;&gt;p53_P_P -->
<g id="edge52" class="edge"><title>HIPK2&#45;&gt;p53_P_P</title>
<path fill="none" stroke="green" d="M2504.6,-666.45C2503.2,-647.67 2500.7,-617.79 2498,-592 2494.4,-557.48 2489.3,-517.87 2485.9,-491.75"/>
<polygon fill="green" stroke="green" points="2489.36,-491.234 2484.6,-481.77 2482.42,-492.138 2489.36,-491.234"/>
</g>
<!-- CyclinD1_CDK2 -->
<g id="node51" class="node"><title>CyclinD1_CDK2</title>
<ellipse fill="#ffffff" stroke="black" cx="376" cy="-241" rx="88" ry="18.5"/>
<text text-anchor="middle" x="376" y="-237.4" font-family="Times Roman,serif" font-size="14.00">CyclinD1_CDK2</text>
</g>
<!-- CyclinD1_CDK2&#45;&gt;E2F -->
<g id="edge54" class="edge"><title>CyclinD1_CDK2&#45;&gt;E2F</title>
<path fill="none" stroke="green" d="M357.21,-222.71C347.1,-212.86 334.52,-200.61 323.73,-190.1"/>
<polygon fill="green" stroke="green" points="325.86,-187.29 316.25,-182.83 320.982,-192.31 325.86,-187.29"/>
</g>
<!-- c&#45;Abl -->
<g id="node55" class="node"><title>c&#45;Abl</title>
<ellipse fill="#ffffff" stroke="black" cx="1503" cy="-241" rx="35.1378" ry="18.5"/>
<text text-anchor="middle" x="1503" y="-237.4" font-family="Times Roman,serif" font-size="14.00">c&#45;Abl</text>
</g>
<!-- c&#45;Abl&#45;&gt;p53_Ub_uB_MDM2 -->
<g id="edge56" class="edge"><title>c&#45;Abl&#45;&gt;p53_Ub_uB_MDM2</title>
<path fill="none" stroke="red" d="M1503,-222.33C1503,-214.26 1503,-204.65 1503,-195.71"/>
<polygon fill="red" stroke="red" points="1506.5,-195.67 1503,-185.67 1499.5,-195.67 1506.5,-195.67"/>
</g>
<!-- PTEN1 -->
<g id="node58" class="node"><title>PTEN1</title>
<ellipse fill="none" stroke="black" cx="842" cy="-241" rx="43.7762" ry="18.5"/>
<text text-anchor="middle" x="842" y="-237.4" font-family="Times Roman,serif" font-size="14.00">PTEN1</text>
</g>
<!-- PTEN1&#45;&gt;p53_Ub_uB_MDM2 -->
<g id="edge58" class="edge"><title>PTEN1&#45;&gt;p53_Ub_uB_MDM2</title>
<path fill="none" stroke="red" d="M873.85,-228.11C880.73,-225.74 888.03,-223.54 895,-222 987.19,-201.65 1245.5,-182.99 1394.1,-173.52"/>
<polygon fill="red" stroke="red" points="1394.44,-177.005 1404.2,-172.88 1394,-170.019 1394.44,-177.005"/>
</g>
<!-- HIFla -->
<g id="node61" class="node"><title>HIFla</title>
<ellipse fill="#ec8165" stroke="black" cx="2261" cy="-611" rx="37" ry="18.5"/>
<text text-anchor="middle" x="2261" y="-607.4" font-family="Times Roman,serif" font-size="14.00">HIFla</text>
</g>
<!-- HIFla&#45;&gt;p53 -->
<g id="edge60" class="edge"><title>HIFla&#45;&gt;p53</title>
<path fill="none" stroke="green" d="M2250.8,-593.09C2245.8,-584.2 2239.6,-573.3 2234,-563.48"/>
<polygon fill="green" stroke="green" points="2236.88,-561.461 2228.9,-554.49 2230.79,-564.915 2236.88,-561.461"/>
</g>
<!-- Box&#45;&gt;BCL2 -->
<g id="edge90" class="edge"><title>Box&#45;&gt;BCL2</title>
<path fill="none" stroke="red" d="M631.92,-222.71C635.08,-214.35 638.9,-204.26 642.42,-194.97"/>
<polygon fill="red" stroke="red" points="645.798,-195.932 646.06,-185.34 639.25,-193.457 645.798,-195.932"/>
</g>
<!-- 14&#45;3&#45;3s&#45;&gt;p53_Ub_uB_MDM2 -->
<g id="edge92" class="edge"><title>14&#45;3&#45;3s&#45;&gt;p53_Ub_uB_MDM2</title>
<path fill="none" stroke="red" d="M1361.7,-227.08C1387.6,-216.09 1424.1,-200.57 1453.5,-188.06"/>
<polygon fill="red" stroke="red" points="1454.96,-191.241 1462.8,-184.11 1452.23,-184.798 1454.96,-191.241"/>
</g>
<!-- MDM2&#45;&gt;p53_Ub_uB_MDM2 -->
<g id="edge102" class="edge"><title>MDM2&#45;&gt;p53_Ub_uB_MDM2</title>
<path fill="none" stroke="green" d="M1781.1,-228.53C1774.5,-226.19 1767.6,-223.89 1761,-222 1703.7,-205.53 1638.1,-191.59 1587.3,-181.87"/>
<polygon fill="green" stroke="green" points="1587.88,-178.417 1577.4,-179.99 1586.57,-185.294 1587.88,-178.417"/>
</g>
<!-- p21CIP&#45;&gt;E2F -->
<g id="edge94" class="edge"><title>p21CIP&#45;&gt;E2F</title>
<path fill="none" stroke="red" d="M241.63,-223.84C251.96,-213.78 265.14,-200.94 276.37,-190.01"/>
<polygon fill="red" stroke="red" points="279.043,-192.292 283.77,-182.81 274.162,-187.275 279.043,-192.292"/>
</g>
<!-- Akt&#45;&gt;GSK3b -->
<g id="edge96" class="edge"><title>Akt&#45;&gt;GSK3b</title>
<path fill="none" stroke="red" d="M2116.6,-224.94C2107.2,-215.2 2095.1,-202.58 2084.6,-191.6"/>
<polygon fill="red" stroke="red" points="2087.05,-189.102 2077.6,-184.32 2082.01,-193.954 2087.05,-189.102"/>
</g>
<!-- HDAC -->
<g id="node90" class="node"><title>HDAC</title>
<ellipse fill="#ffffff" stroke="black" cx="2130" cy="-537" rx="41" ry="18.5"/>
<text text-anchor="middle" x="2130" y="-533.4" font-family="Times Roman,serif" font-size="14.00">HDAC</text>
</g>
<!-- HDAC&#45;&gt;p53_Ac -->
<g id="edge98" class="edge"><title>HDAC&#45;&gt;p53_Ac</title>
<path fill="none" stroke="red" d="M2112.8,-519.84C2103.3,-510.29 2091.2,-498.23 2080.7,-487.68"/>
<polygon fill="red" stroke="red" points="2082.86,-484.894 2073.3,-480.33 2077.93,-489.86 2082.86,-484.894"/>
</g>
<!-- p38 -->
<g id="node92" class="node"><title>p38</title>
<ellipse fill="#779af6" stroke="black" cx="2595" cy="-685" rx="30.2185" ry="18.5"/>
<text text-anchor="middle" x="2595" y="-681.4" font-family="Times Roman,serif" font-size="14.00">p38</text>
</g>
<!-- p38&#45;&gt;p53_P_P -->
<g id="edge100" class="edge"><title>p38&#45;&gt;p53_P_P</title>
<path fill="none" stroke="green" d="M2585.9,-667.21C2566.3,-628.59 2519.6,-536.87 2496.1,-490.64"/>
<polygon fill="green" stroke="green" points="2499.09,-488.793 2491.4,-481.5 2492.86,-491.994 2499.09,-488.793"/>
</g>
<!-- Ub -->
<g id="node95" class="node"><title>Ub</title>
<ellipse fill="#e7745a" stroke="black" cx="1423" cy="-241" rx="27" ry="18.5"/>
<text text-anchor="middle" x="1423" y="-237.4" font-family="Times Roman,serif" font-size="14.00">Ub</text>
</g>
<!-- Ub&#45;&gt;p53_Ub_uB_MDM2 -->
<g id="edge104" class="edge"><title>Ub&#45;&gt;p53_Ub_uB_MDM2</title>
<path fill="none" stroke="green" d="M1439.2,-226.02C1449.6,-216.39 1463.4,-203.63 1475.5,-192.44"/>
<polygon fill="green" stroke="green" points="1478.21,-194.705 1483.2,-185.36 1473.47,-189.552 1478.21,-194.705"/>
</g>
<!-- Rb_E2F -->
<g id="node97" class="node"><title>Rb_E2F</title>
<ellipse fill="#e57057" stroke="black" cx="530" cy="-241" rx="48" ry="18.5"/>
<text text-anchor="middle" x="530" y="-237.4" font-family="Times Roman,serif" font-size="14.00">Rb_E2F</text>
</g>
<!-- Rb_E2F&#45;&gt;E2F -->
<g id="edge106" class="edge"><title>Rb_E2F&#45;&gt;E2F</title>
<path fill="none" stroke="green" d="M493.54,-228.76C486.72,-226.5 479.65,-224.16 473,-222 426.09,-206.72 371.86,-189.56 336.8,-178.54"/>
<polygon fill="green" stroke="green" points="337.599,-175.122 327.01,-175.46 335.499,-181.8 337.599,-175.122"/>
</g>
<!-- P_Rb -->
<g id="node99" class="node"><title>P_Rb</title>
<ellipse fill="#e8785d" stroke="black" cx="530" cy="-167" rx="36" ry="18.5"/>
<text text-anchor="middle" x="530" y="-163.4" font-family="Times Roman,serif" font-size="14.00">P_Rb</text>
</g>
<!-- Rb_E2F&#45;&gt;P_Rb -->
<g id="edge108" class="edge"><title>Rb_E2F&#45;&gt;P_Rb</title>
<path fill="none" stroke="green" d="M530,-222.33C530,-214.26 530,-204.65 530,-195.71"/>
<polygon fill="green" stroke="green" points="533.5,-195.67 530,-185.67 526.5,-195.67 533.5,-195.67"/>
</g>
<!-- uv -->
<g id="node101" class="node"><title>uv</title>
<ellipse fill="#ffffff" stroke="black" cx="2506" cy="-759" rx="27" ry="18.5"/>
<text text-anchor="middle" x="2506" y="-755.4" font-family="Times Roman,serif" font-size="14.00">uv</text>
</g>
<!-- uv&#45;&gt;CSNKld -->
<g id="edge112" class="edge"><title>uv&#45;&gt;CSNKld</title>
<path fill="none" stroke="green" d="M2488.3,-744.52C2477.2,-734.38 2463.5,-719.85 2456,-704 2446.5,-683.94 2443.1,-658.93 2442.1,-639.9"/>
<polygon fill="green" stroke="green" points="2445.59,-639.604 2441.7,-629.75 2438.6,-639.88 2445.59,-639.604"/>
</g>
<!-- uv&#45;&gt;DNADamage -->
<g id="edge118" class="edge"><title>uv&#45;&gt;DNADamage</title>
<path fill="none" stroke="green" d="M2530.2,-750.51C2562.7,-739.11 2621.3,-718.55 2664.3,-703.49"/>
<polygon fill="green" stroke="green" points="2665.43,-706.803 2673.7,-700.18 2663.11,-700.2 2665.43,-706.803"/>
</g>
<!-- uv&#45;&gt;HIPK2 -->
<g id="edge110" class="edge"><title>uv&#45;&gt;HIPK2</title>
<path fill="none" stroke="green" d="M2506,-740.33C2506,-732.26 2506,-722.65 2506,-713.71"/>
<polygon fill="green" stroke="green" points="2509.5,-713.67 2506,-703.67 2502.5,-713.67 2509.5,-713.67"/>
</g>
<!-- uv&#45;&gt;p38 -->
<g id="edge114" class="edge"><title>uv&#45;&gt;p38</title>
<path fill="none" stroke="green" d="M2523.6,-744.38C2536.6,-733.58 2554.5,-718.69 2569.1,-706.53"/>
<polygon fill="green" stroke="green" points="2571.37,-709.196 2576.8,-700.1 2566.88,-703.823 2571.37,-709.196"/>
</g>
<!-- JNK -->
<g id="node105" class="node"><title>JNK</title>
<ellipse fill="#ffffff" stroke="black" cx="2371" cy="-685" rx="29" ry="18.5"/>
<text text-anchor="middle" x="2371" y="-681.4" font-family="Times Roman,serif" font-size="14.00">JNK</text>
</g>
<!-- uv&#45;&gt;JNK -->
<g id="edge116" class="edge"><title>uv&#45;&gt;JNK</title>
<path fill="none" stroke="green" d="M2484.9,-747.44C2462.7,-735.27 2427.6,-716 2402.2,-702.08"/>
<polygon fill="green" stroke="green" points="2403.75,-698.941 2393.3,-697.22 2400.4,-705.085 2403.75,-698.941"/>
</g>
<!-- JNK&#45;&gt;p53_P_P -->
<g id="edge120" class="edge"><title>JNK&#45;&gt;p53_P_P</title>
<path fill="none" stroke="green" d="M2371.4,-666.46C2372.4,-647.16 2375.7,-616.4 2386,-592 2403,-551.86 2434.9,-512.7 2457.3,-488.26"/>
<polygon fill="green" stroke="green" points="2459.94,-490.561 2464.2,-480.86 2454.82,-485.787 2459.94,-490.561"/>
</g>
<!-- Chk2_P -->
<g id="node109" class="node"><title>Chk2_P</title>
<ellipse fill="#698bef" stroke="black" cx="2316" cy="-537" rx="49" ry="18.5"/>
<text text-anchor="middle" x="2316" y="-533.4" font-family="Times Roman,serif" font-size="14.00">Chk2_P</text>
</g>
<!-- Chk2_P&#45;&gt;p53_P_P -->
<g id="edge122" class="edge"><title>Chk2_P&#45;&gt;p53_P_P</title>
<path fill="none" stroke="green" d="M2348,-522.73C2374.2,-511.07 2411.3,-494.5 2439.9,-481.76"/>
<polygon fill="green" stroke="green" points="2441.5,-484.878 2449.2,-477.6 2438.64,-478.488 2441.5,-484.878"/>
</g>
<!-- Sirt -->
<g id="node111" class="node"><title>Sirt</title>
<ellipse fill="#ffffff" stroke="black" cx="1858" cy="-537" rx="29" ry="18.5"/>
<text text-anchor="middle" x="1858" y="-533.4" font-family="Times Roman,serif" font-size="14.00">Sirt</text>
</g>
<!-- Sirt&#45;&gt;p53_Ac -->
<g id="edge124" class="edge"><title>Sirt&#45;&gt;p53_Ac</title>
<path fill="none" stroke="red" d="M1880.7,-525.05C1885.7,-522.59 1891,-520.11 1896,-518 1916.8,-509.25 1970.5,-491.13 2009.9,-478.08"/>
<polygon fill="red" stroke="red" points="2011.2,-481.337 2019.6,-474.88 2009.01,-474.689 2011.2,-481.337"/>
</g>
</g>
</svg>
